<svg width="788" height="145" viewBox="0 0 788 145" fill="none" xmlns="http://www.w3.org/2000/svg">
<path opacity="0.1" fill-rule="evenodd" clip-rule="evenodd" d="M2.19658 141.079H39.3475L68.2851 3.9215H36.0048L34.6678 5.54749C33.8401 6.69525 32.503 8.09807 30.6566 9.75594C28.8739 11.35 26.8047 13.0079 24.4489 14.7296C22.0932 16.4512 19.1325 18.0772 15.5671 19.6075C12.0653 21.0741 8.43615 22.0624 4.67968 22.5726L0 45.0495H22.5388L2.19658 141.079ZM1.24011 44.0398H23.7834L3.44112 140.069H38.53L67.0416 4.93122H36.4806L35.466 6.16516C34.5751 7.39375 33.1827 8.84389 31.3297 10.5077L31.3281 10.5091C29.516 12.1295 27.4201 13.8081 25.0432 15.5452C22.6099 17.3235 19.5781 18.9845 15.9642 20.5356L15.9561 20.5391C12.5934 21.9473 9.11498 22.925 5.52244 23.4713L1.24011 44.0398ZM168.689 63.0533L168.686 63.0502C161.816 55.6744 153.205 51.9893 142.778 51.9893C134.388 51.9893 128.099 53.2887 123.799 55.7755L121.663 57.011L127.973 34.2838H183.029L189.284 4.93122H103.339L82.2585 81.5316L105.306 85.1996L107.144 83.5189L107.145 83.5174C108.679 82.1207 111.103 80.7924 114.32 79.5032C117.688 78.1153 121.191 77.4204 124.823 77.4204C129.833 77.4204 133.891 78.7104 136.865 81.4124C139.826 84.1013 141.303 87.5668 141.303 91.7249C141.303 98.0748 139.312 103.235 135.259 107.091C131.256 110.896 125.559 112.725 118.329 112.725C113.524 112.725 108.795 111.636 104.151 109.474C99.6384 107.374 96.5227 105.632 94.9375 104.251L94.9199 104.236L94.9029 104.22C93.8644 103.227 92.9979 102.389 92.3045 101.707L68.1149 122.588L69.2719 124.198C70.5348 125.695 72.5843 127.51 75.4676 129.645C78.3637 131.725 81.7078 133.874 85.5029 136.092C89.282 138.263 94.1537 140.114 100.144 141.63L100.151 141.632C106.175 143.203 112.519 143.99 119.188 143.99C136.807 143.99 151.131 138.861 162.248 128.665L162.25 128.663C173.426 118.471 179.016 105.453 179.016 89.5251C179.016 79.1903 175.576 70.3852 168.689 63.0533ZM84.9982 136.966C81.178 134.734 77.8036 132.566 74.8748 130.462C71.946 128.294 69.8131 126.413 68.4761 124.819L66.757 122.427L92.352 100.333C93.116 101.098 94.1984 102.15 95.5991 103.489C97.0635 104.765 100.056 106.454 104.576 108.559C109.097 110.663 113.681 111.715 118.329 111.715C125.396 111.715 130.808 109.93 134.565 106.359C138.385 102.724 140.295 97.8463 140.295 91.7249C140.295 87.8353 138.926 84.6471 136.188 82.1603C133.45 79.6735 129.662 78.4301 124.823 78.4301C121.321 78.4301 117.947 79.0996 114.7 80.4387C111.516 81.714 109.224 82.9892 107.824 84.2645L105.627 86.2731L80.987 82.3516L102.571 3.9215H190.53L183.844 35.2935H128.739L123.295 54.9011C123.689 54.673 124.099 54.4549 124.523 54.2467C128.964 52.0686 135.049 50.9796 142.778 50.9796C153.474 50.9796 162.356 54.7735 169.423 62.3615C176.491 69.8857 180.024 78.9402 180.024 89.5251C180.024 105.721 174.326 119.016 162.929 129.41C151.596 139.803 137.016 145 119.188 145C112.44 145 106.009 144.203 99.8967 142.609C93.8482 141.079 88.882 139.197 84.9982 136.966ZM278.87 69.6306C280.207 63.8281 282.086 58.1212 284.505 52.5099C286.925 46.8986 290.267 42.2757 294.533 38.6412C298.863 35.0066 303.638 33.1893 308.859 33.1893C314.079 33.1893 318.473 35.4211 322.038 39.8846C325.667 44.2843 327.482 50.6607 327.482 59.0139C327.482 75.465 323.948 88.3773 316.881 97.7507C309.877 107.06 302.778 111.715 295.584 111.715C290.235 111.715 285.779 109.451 282.213 104.924C278.711 100.397 276.96 93.8929 276.96 85.4123C276.96 80.63 277.597 75.3694 278.87 69.6306ZM317.685 98.3591C310.61 107.764 303.249 112.725 295.584 112.725C289.9 112.725 285.161 110.298 281.421 105.549L281.416 105.543C277.725 100.771 275.952 94.0135 275.952 85.4123C275.952 80.5418 276.6 75.2066 277.886 69.4116L277.888 69.4036C279.239 63.5401 281.137 57.7753 283.58 52.1096C286.055 46.3691 289.486 41.6158 293.88 37.8721L293.885 37.8673C298.38 34.0939 303.381 32.1796 308.859 32.1796C314.415 32.1796 319.085 34.5744 322.821 39.2482C326.651 43.896 328.49 50.5358 328.49 59.0139C328.49 75.5987 324.929 88.7525 317.685 98.3591ZM359.09 88.4461L359.091 88.4424C362.371 78.5248 364.006 68.7804 364.006 59.2051C364.006 42.0769 358.921 28.1491 348.807 17.3326L348.803 17.3282C338.746 6.44268 326.25 1.00971 311.246 1.00971C302.495 1.00971 293.922 3.04309 285.518 7.12549L285.513 7.12816C277.098 11.153 269.526 16.7207 262.794 23.8401C256.151 30.9341 250.74 39.87 246.576 50.672C242.486 61.3872 240.436 72.9643 240.436 85.4123C240.436 102.738 245.462 116.796 255.45 127.674C265.507 138.558 278.002 143.99 293.005 143.99C303.913 143.99 313.959 141.356 323.161 136.089L323.164 136.088C332.463 130.802 339.955 124.017 345.657 115.733C351.395 107.398 355.872 98.3034 359.09 88.4461ZM254.708 128.358C244.521 117.263 239.427 102.947 239.427 85.4123C239.427 72.8507 241.497 61.15 245.635 50.31C249.837 39.4063 255.313 30.3518 262.062 23.1464C268.874 15.9411 276.547 10.2979 285.078 6.21702C293.61 2.07234 302.332 0 311.246 0C326.527 0 339.292 5.54749 349.543 16.6425C359.857 27.6737 365.015 41.8613 365.015 59.2051C365.015 68.8973 363.359 78.7489 360.048 88.7599C356.801 98.7071 352.281 107.889 346.487 116.306C340.693 124.723 333.085 131.61 323.662 136.966C314.302 142.322 304.083 145 293.005 145C277.724 145 264.959 139.453 254.708 128.358ZM417.733 69.6306C419.07 63.8281 420.948 58.1212 423.367 52.5099C425.787 46.8986 429.129 42.2757 433.395 38.6412C437.725 35.0066 442.5 33.1893 447.721 33.1893C452.942 33.1893 457.335 35.4211 460.9 39.8846C464.529 44.2843 466.344 50.6607 466.344 59.0139C466.344 75.465 462.81 88.3773 455.743 97.7507C448.739 107.06 441.64 111.715 434.446 111.715C429.098 111.715 424.641 109.451 421.075 104.924C417.573 100.397 415.823 93.8929 415.823 85.4123C415.823 80.63 416.459 75.3694 417.733 69.6306ZM456.548 98.3591C449.472 107.764 442.112 112.725 434.446 112.725C428.763 112.725 424.023 110.298 420.284 105.549L420.278 105.543C416.588 100.771 414.814 94.0135 414.814 85.4123C414.814 80.5418 415.463 75.2066 416.748 69.4116L416.75 69.4036C418.101 63.5401 419.999 57.7753 422.442 52.1096C424.917 46.3691 428.348 41.6158 432.742 37.8721L432.748 37.8673C437.243 34.0939 442.243 32.1796 447.721 32.1796C453.277 32.1796 457.947 34.5744 461.683 39.2482C465.513 43.896 467.352 50.5358 467.352 59.0139C467.352 75.5987 463.791 88.7525 456.548 98.3591ZM497.952 88.4461L497.954 88.4424C501.234 78.5248 502.869 68.7804 502.869 59.2051C502.869 42.0769 497.783 28.1491 487.669 17.3326L487.665 17.3282C477.608 6.44268 465.112 1.00971 450.108 1.00971C441.357 1.00971 432.784 3.04309 424.38 7.12549L424.375 7.12816C415.96 11.153 408.388 16.7207 401.657 23.8401C395.013 30.9341 389.602 39.87 385.439 50.672C381.348 61.3872 379.298 72.9643 379.298 85.4123C379.298 102.738 384.324 116.796 394.312 127.674C404.369 138.558 416.865 143.99 431.867 143.99C442.775 143.99 452.821 141.356 462.024 136.089L462.026 136.088C471.325 130.802 478.817 124.017 484.519 115.733C490.257 107.398 494.735 98.3034 497.952 88.4461ZM393.57 128.358C383.383 117.263 378.29 102.947 378.29 85.4123C378.29 72.8507 380.359 61.15 384.497 50.31C388.7 39.4063 394.175 30.3518 400.924 23.1464C407.737 15.9411 415.409 10.2979 423.94 6.21702C432.472 2.07234 441.195 0 450.108 0C465.389 0 478.155 5.54749 488.405 16.6425C498.72 27.6737 503.877 41.8613 503.877 59.2051C503.877 68.8973 502.221 78.7489 498.911 88.7599C495.664 98.7071 491.143 107.889 485.349 116.306C479.555 124.723 471.947 131.61 462.524 136.966C453.164 142.322 442.946 145 431.867 145C416.587 145 403.821 139.453 393.57 128.358ZM556.595 69.6306C557.932 63.8281 559.81 58.1212 562.23 52.5099C564.649 46.8986 567.992 42.2757 572.257 38.6412C576.587 35.0066 581.362 33.1893 586.583 33.1893C591.804 33.1893 596.197 35.4211 599.762 39.8846C603.392 44.2843 605.206 50.6607 605.206 59.0139C605.206 75.465 601.672 88.3773 594.605 97.7507C587.602 107.06 580.503 111.715 573.308 111.715C567.96 111.715 563.503 109.451 559.937 104.924C556.436 100.397 554.685 93.8929 554.685 85.4123C554.685 80.63 555.321 75.3694 556.595 69.6306ZM595.411 98.3583C588.334 107.764 580.974 112.725 573.308 112.725C567.625 112.725 562.886 110.298 559.146 105.549L559.14 105.543C555.45 100.771 553.677 94.0135 553.677 85.4123C553.677 80.5418 554.325 75.2066 555.611 69.4116L555.612 69.4036C556.964 63.5401 558.861 57.7753 561.304 52.1096C563.779 46.3691 567.21 41.6158 571.604 37.8721L571.61 37.8673C576.105 34.0939 581.105 32.1796 586.583 32.1796C592.14 32.1796 596.81 34.5748 600.546 39.2495C604.376 43.8973 606.214 50.5365 606.214 59.0139C606.214 75.5982 602.653 88.7517 595.411 98.3583ZM636.815 88.4461L636.816 88.4424C640.096 78.5248 641.731 68.7804 641.731 59.2051C641.731 42.0769 636.645 28.1491 626.532 17.3326L626.527 17.3282C616.47 6.44268 603.974 1.00971 588.971 1.00971C580.219 1.00971 571.646 3.04309 563.243 7.12549L563.237 7.12816C554.822 11.1531 547.25 16.7209 540.518 23.8407C533.875 30.9344 528.464 39.8695 524.301 50.6706C520.21 61.3863 518.16 72.9638 518.16 85.4123C518.16 102.737 523.186 116.794 533.172 127.672C543.23 138.557 555.726 143.99 570.729 143.99C581.637 143.99 591.683 141.356 600.886 136.089L600.888 136.088C610.187 130.802 617.679 124.017 623.381 115.733C629.119 107.398 633.597 98.3034 636.815 88.4461ZM532.432 128.358C522.245 117.263 517.152 102.947 517.152 85.4123C517.152 72.8507 519.221 61.15 523.36 50.31C527.562 39.4063 533.037 30.3518 539.786 23.1464C546.599 15.9411 554.271 10.2979 562.803 6.21702C571.334 2.07234 580.057 0 588.971 0C604.251 0 617.017 5.54749 627.267 16.6425C637.582 27.6737 642.739 41.8613 642.739 59.2051C642.739 68.8973 641.084 78.7489 637.773 88.7599C634.526 98.7071 630.005 107.889 624.211 116.306C618.417 124.723 610.809 131.61 601.386 136.966C592.027 142.322 581.808 145 570.729 145C555.449 145 542.683 139.453 532.432 128.358ZM764.124 38.2586H734.805L728.406 68.5785H698.036L691.637 98.9941H721.911L715.513 129.314H744.832L751.231 98.9941H781.601L788 68.5785H757.725L764.124 38.2586ZM786.757 69.5882H756.482L762.88 39.2683H735.622L729.223 69.5882H698.854L692.88 97.9844H723.155L716.756 128.304H744.015L750.414 97.9844H780.783L786.757 69.5882Z" fill="white"/>
</svg>
