<svg width="370" height="140" viewBox="0 0 370 140" fill="none" xmlns="http://www.w3.org/2000/svg">
<path opacity="0.1" fill-rule="evenodd" clip-rule="evenodd" d="M39.7414 106.201C37.1043 103.861 35.7857 100.998 35.7857 97.6121C35.7857 93.241 37.6562 89.4547 41.3973 86.2533C45.1997 82.9903 49.9221 81.3588 55.5644 81.3588C59.9188 81.3588 63.4759 82.5594 66.2357 84.9604C69.0569 87.3615 70.4674 90.1935 70.4674 93.4565C70.4674 97.8892 68.5662 101.706 64.7638 104.908C60.9614 108.109 56.239 109.71 50.5967 109.71C46.0583 109.71 42.4399 108.54 39.7414 106.201ZM66.8813 84.2049C63.9084 81.6202 60.1072 80.3634 55.5644 80.3634C49.7186 80.3634 44.7589 82.0595 40.754 85.4958C36.8238 88.859 34.7941 92.9098 34.7941 97.6121C34.7941 101.297 36.2451 104.427 39.0847 106.946L39.0933 106.954C42.0167 109.488 45.8871 110.705 50.5967 110.705C56.4382 110.705 61.3957 109.043 65.401 105.67C69.3968 102.306 71.459 98.2222 71.459 93.4565C71.459 89.8605 69.8876 86.7652 66.8813 84.2049ZM54.2901 33.4005L54.2974 33.3945C57.6868 30.6463 61.8407 29.2948 66.6957 29.2948C70.5166 29.2948 73.7146 30.4062 76.198 32.6971C78.6339 34.9441 79.9225 37.5674 79.9225 40.5409C79.9225 44.1755 78.162 47.3331 74.8605 49.9974C71.5337 52.6822 67.473 54.0033 62.7399 54.0033C58.9253 54.0033 55.6822 52.9272 53.084 50.7203L53.0743 50.7121C50.5677 48.5269 49.2371 45.9278 49.2371 42.942C49.2371 39.3098 50.9951 36.1244 54.2901 33.4005ZM2.51414 91.617L2.51275 91.6216C1.50057 94.9686 0.991599 98.5338 0.991599 102.322C0.991599 111.957 5.21082 120.469 13.8018 127.887C22.3619 135.278 33.2815 139.005 46.641 139.005C63.695 139.005 77.5306 134.531 88.233 125.659C98.9449 116.718 104.25 105.876 104.25 93.0871C104.25 89.9326 103.746 86.9363 102.743 84.0922C101.719 81.1914 100.59 78.8785 99.3692 77.1276L99.3627 77.1183L99.3564 77.1089C98.1784 75.335 96.7625 73.7053 95.1054 72.2201L95.0982 72.2136L95.0911 72.207C93.3637 70.5969 92.2318 69.6443 91.6457 69.2699C90.969 68.8376 90.4408 68.4946 90.0641 68.2425L88.7018 67.3308L90.1378 66.5412C104.692 58.5391 111.857 47.9618 111.977 34.8105C111.976 26.361 108.075 18.6138 100.079 11.5521L100.076 11.5497C92.1832 4.52706 82.3374 0.995417 70.4674 0.995417C55.324 0.995417 42.897 5.12572 33.1092 13.3237L33.1064 13.326C23.2863 21.4905 18.4705 30.8011 18.4705 41.2797C18.4705 45.4256 19.4422 49.3284 21.39 53.002C23.4147 56.8206 24.9657 59.1299 26.0452 60.11C27.3273 61.2131 28.332 62.0688 29.061 62.6786L30.4007 63.7993L27.2767 64.9061C26.4219 65.3972 25.133 66.1497 23.408 67.1648L23.3985 67.1704C21.7168 68.135 19.9061 69.3159 17.9656 70.7159L17.9572 70.722L17.9486 70.7279C16.0516 72.0372 14.0772 73.746 12.0265 75.8651C10.0474 77.9121 8.21451 80.2037 6.52869 82.7421C4.87498 85.2322 3.53341 88.1862 2.51414 91.617ZM11.3153 75.1715C13.4005 73.0167 15.4243 71.2621 17.3869 69.9077C19.3494 68.4916 21.1893 67.2911 22.9065 66.3061C24.6851 65.2595 26.0036 64.4899 26.8623 63.9974L28.4262 63.4433C28.1666 63.2262 27.8727 62.9784 27.5445 62.7C26.9421 62.1891 26.2241 61.5749 25.3904 60.8575C24.1638 59.7493 22.5385 57.2867 20.5147 53.4697C18.4908 49.6526 17.4789 45.5893 17.4789 41.2797C17.4789 30.4442 22.4772 20.8707 32.4739 12.5594C42.4706 4.18646 55.1351 0 70.4674 0C82.5493 0 92.638 3.60158 100.733 10.8047C108.89 18.0079 112.969 26.0114 112.969 34.8153C112.849 48.1184 105.723 58.8025 91.5902 66.8675C91.2685 67.0511 90.9431 67.2334 90.6141 67.4142C90.8594 67.5784 91.1729 67.7836 91.5545 68.0299C91.7453 68.153 91.9532 68.2864 92.178 68.4301C92.8526 68.861 94.0486 69.8769 95.7658 71.4776C97.483 73.0167 98.9549 74.7098 100.182 76.5567C101.469 78.4037 102.635 80.8047 103.677 83.7599C104.72 86.715 105.241 89.8241 105.241 93.0871C105.241 106.201 99.7829 117.313 88.8662 126.425C77.9496 135.475 63.8745 140 46.641 140C33.0872 140 21.9252 136.214 13.1551 128.641C4.38505 121.069 0 112.296 0 102.322C0 98.4433 0.5213 94.7801 1.5639 91.3325C2.6065 87.8232 3.98641 84.7757 5.70363 82.19C7.42085 79.6042 9.2914 77.2647 11.3153 75.1715ZM54.9204 34.1689C58.1096 31.5831 62.0346 30.2902 66.6957 30.2902C70.3141 30.2902 73.2579 31.3368 75.5271 33.4301C77.7963 35.5233 78.9309 37.8936 78.9309 40.5409C78.9309 43.8039 77.367 46.6975 74.2392 49.2216C71.1114 51.7458 67.2783 53.0079 62.7399 53.0079C59.1215 53.0079 56.1164 51.9921 53.7245 49.9604C51.394 47.9288 50.2287 45.5893 50.2287 42.942C50.2287 39.679 51.7926 36.7546 54.9204 34.1689ZM111.405 136.214H150.042L220.878 32.2295L226.857 3.78628L133.575 3.78628L126.86 36.0158L179.756 36.0158L111.405 136.214ZM128.08 35.0204L181.637 35.0204L113.286 135.218H149.519L219.948 31.8307L225.635 4.7817L134.381 4.7817L128.08 35.0204ZM241.208 11.5435C233.849 18.5004 230.169 26.6579 230.169 36.0158C230.169 44.0809 233.144 50.9763 239.092 56.7018C245.103 62.4274 252.616 65.2902 261.631 65.2902C272.057 65.2902 280.98 61.8426 288.401 54.9472C295.822 47.9903 299.533 39.8329 299.533 30.4749C299.533 22.4099 296.589 15.4837 290.701 9.69657C284.814 3.90941 277.27 1.01583 268.071 1.01583C257.522 1.01583 248.568 4.52507 241.208 11.5435ZM287.727 54.2176C294.965 47.4307 298.541 39.5299 298.541 30.4749C298.541 22.6851 295.71 16.0131 290.007 10.4078C284.327 4.8247 277.044 2.01125 268.071 2.01125C257.765 2.01125 249.059 5.42997 241.891 12.2652L241.888 12.2682C234.709 19.0547 231.161 26.957 231.161 36.0158C231.161 43.8009 234.018 50.4383 239.777 55.9813C245.585 61.5142 252.846 64.2948 261.631 64.2948C271.815 64.2948 280.496 60.9363 287.727 54.2176ZM324.693 116.151L324.682 116.139C322.589 114.039 321.539 111.444 321.539 108.417C321.539 104.639 322.905 101.37 325.602 98.6629C328.291 95.9633 331.483 94.5851 335.134 94.5851C338.587 94.5851 341.457 95.6049 343.639 97.7234C345.812 99.7722 346.889 102.411 346.889 105.554C346.889 109.397 345.49 112.675 342.718 115.325L342.709 115.334C339.962 117.894 336.781 119.201 333.202 119.201C329.755 119.201 326.888 118.216 324.705 116.162L324.693 116.151ZM342.954 98.4433C340.991 96.5347 338.385 95.5805 335.134 95.5805C331.761 95.5805 328.817 96.8426 326.303 99.3668C323.788 101.891 322.531 104.908 322.531 108.417C322.531 111.187 323.482 113.527 325.383 115.435C327.345 117.282 329.952 118.206 333.202 118.206C336.514 118.206 339.458 117.005 342.034 114.604C344.61 112.142 345.898 109.125 345.898 105.554C345.898 102.661 344.916 100.29 342.954 98.4433ZM310.572 85.2375C303.212 92.1944 299.533 100.352 299.533 109.71C299.533 117.775 302.507 124.701 308.456 130.488C314.466 136.214 321.979 139.077 330.995 139.077C341.421 139.077 350.344 135.629 357.765 128.734C365.186 121.777 368.896 113.619 368.896 104.261C368.896 96.1961 365.952 89.27 360.065 83.4828C354.177 77.6341 346.634 74.7098 337.434 74.7098C326.885 74.7098 317.931 78.219 310.572 85.2375ZM357.091 128.003C364.329 121.216 367.904 113.316 367.904 104.261C367.904 96.4714 365.074 89.7994 359.371 84.1941L359.367 84.1904C353.687 78.5473 346.404 75.7052 337.434 75.7052C327.129 75.7052 318.422 79.1239 311.255 85.9592L311.252 85.9622C304.072 92.7486 300.524 100.651 300.524 109.71C300.524 117.495 303.382 124.165 309.143 129.77C314.951 135.301 322.211 138.081 330.995 138.081C341.179 138.081 349.86 134.722 357.091 128.003ZM256.238 24.8766C258.927 22.177 262.119 20.7988 265.771 20.7988C269.227 20.7988 272.098 21.8202 274.28 23.942C276.447 26.0493 277.526 28.7136 277.526 31.8602C277.526 35.6472 276.123 38.892 273.354 41.5388C270.613 44.1595 267.461 45.5073 263.931 45.5073C260.475 45.5073 257.603 44.4858 255.421 42.364C253.264 40.2659 252.176 37.6675 252.176 34.6306C252.176 30.8523 253.541 27.5839 256.238 24.8766ZM229.065 136.214H260.159L370 3.78628L338.906 3.78628L229.065 136.214ZM231.181 135.218L339.371 4.7817L367.884 4.7817L259.694 135.218H231.181ZM256.939 25.5805C259.454 23.0563 262.398 21.7942 265.771 21.7942C269.021 21.7942 271.628 22.7485 273.59 24.657C275.553 26.5655 276.534 28.9666 276.534 31.8602C276.534 35.3694 275.246 38.3553 272.67 40.8179C270.094 43.2806 267.181 44.5119 263.931 44.5119C260.68 44.5119 258.074 43.5576 256.111 41.6491C254.149 39.7405 253.168 37.4011 253.168 34.6306C253.168 31.1214 254.425 28.1047 256.939 25.5805Z" fill="white"/>
</svg>
