<svg width="631" height="348" viewBox="0 0 631 348" fill="none" xmlns="http://www.w3.org/2000/svg">
<g opacity="0.5" filter="url(#filter0_f)">
<ellipse cx="303.237" cy="174.165" rx="26.1071" ry="171.894" transform="rotate(75 303.237 174.165)" fill="#F44D4D"/>
</g>
<g opacity="0.7" filter="url(#filter1_f)">
<ellipse cx="316.798" cy="172.988" rx="177.538" ry="25.2481" fill="#1D1D1D"/>
</g>
<path opacity="0.1" fill-rule="evenodd" clip-rule="evenodd" d="M29.5804 160.921L29.5824 160.919C31.9532 158.613 34.7855 157.446 38.0407 157.446C39.1413 157.446 40.2004 157.592 41.2151 157.887C42.1931 158.171 43.0213 158.505 43.6766 158.901C44.2968 159.277 44.8695 159.71 45.3937 160.201C45.7192 160.496 45.9982 160.764 46.2045 160.995L51.2532 156.73L51.1934 156.654L51.1751 156.627C50.9382 156.272 50.4734 155.786 49.7208 155.167L49.7147 155.162C48.9917 154.554 48.1375 153.94 47.1487 153.32L47.1441 153.317C46.2281 152.734 45.025 152.216 43.5141 151.776C42.0333 151.345 40.4597 151.127 38.7898 151.127C33.2543 151.127 28.5255 152.982 24.5606 156.699C20.6112 160.4 18.6624 164.778 18.6624 169.87C18.6624 173.611 20.038 176.885 22.8342 179.725C25.6259 182.53 29.0943 183.937 33.2965 183.937C34.9953 183.937 36.6479 183.712 38.2564 183.262L38.2646 183.26C39.9234 182.816 41.2261 182.322 42.1939 181.789L42.1982 181.786C43.2174 181.233 44.1777 180.6 45.0796 179.887C46.0435 179.122 46.5921 178.643 46.7955 178.415L46.7971 178.414C46.8755 178.326 46.9484 178.245 47.0158 178.169L43.8339 173.573C43.536 173.869 43.151 174.199 42.6913 174.562L42.6862 174.566L42.681 174.57C42.0793 175.029 41.4041 175.484 40.657 175.936C39.8622 176.416 38.9215 176.818 37.8459 177.151L37.8387 177.153C36.7503 177.478 35.6364 177.64 34.4996 177.64C32.0627 177.64 30.0062 176.873 28.4002 175.3L28.3941 175.294C26.8114 173.712 26.0256 171.725 26.0256 169.393C26.0256 166.076 27.2165 163.237 29.5804 160.921ZM43.3695 172.902C43.4035 172.866 43.4356 172.832 43.4659 172.798L43.9425 172.321L48.0285 178.223C47.8771 178.405 47.6653 178.647 47.3929 178.95C47.1356 179.237 46.5303 179.759 45.5769 180.516C44.6387 181.258 43.6399 181.916 42.5806 182.491C41.5364 183.066 40.1669 183.58 38.472 184.034C36.7922 184.504 35.067 184.738 33.2965 184.738C28.8928 184.738 25.2155 183.255 22.2645 180.289C19.3287 177.308 17.8608 173.835 17.8608 169.87C17.8608 164.543 19.9114 159.958 24.0124 156.114C28.1286 152.255 33.0544 150.326 38.7898 150.326C40.5301 150.326 42.1796 150.553 43.7383 151.007C45.2969 151.461 46.5757 152.005 47.5745 152.641C48.5884 153.277 49.4737 153.912 50.2303 154.548C51.0021 155.183 51.5393 155.728 51.842 156.182L52.3641 156.84L46.0763 162.152C46.0158 162.061 45.9174 161.925 45.7812 161.744C45.7367 161.679 45.6737 161.602 45.592 161.512C45.4238 161.326 45.1766 161.086 44.8505 160.79C44.3663 160.336 43.8366 159.935 43.2616 159.587C42.6865 159.239 41.9299 158.929 40.9916 158.656C40.0534 158.384 39.0697 158.248 38.0407 158.248C34.999 158.248 32.3658 159.33 30.1413 161.494C27.9318 163.658 26.8271 166.291 26.8271 169.393C26.8271 171.527 27.5384 173.305 28.9609 174.728C30.3985 176.135 32.2447 176.839 34.4996 176.839C35.5589 176.839 36.5955 176.687 37.6094 176.385C38.6384 176.067 39.5161 175.689 40.2425 175.25C40.9689 174.811 41.6196 174.372 42.1947 173.933C42.7059 173.53 43.0975 173.186 43.3695 172.902ZM72.2034 183.807H81.0335L87.9114 151.256H79.0813L76.539 163.355H64.6672L67.2322 151.256H58.4021L51.5242 183.807H60.3543L63.0101 171.255H74.8592L72.2034 183.807ZM59.7046 183.006L62.3604 170.453H75.8481L73.1922 183.006H80.3836L86.9229 152.058H79.732L77.1896 164.157H63.6779L66.2429 152.058H59.052L52.5128 183.006H59.7046ZM109.165 170.671H100.907L107.768 157.633L109.165 170.671ZM109.819 176.037L110.704 183.006H118.2L113.042 152.058H104.418L86.1597 183.006H94.1754L97.9435 176.037H109.819ZM94.6532 183.807H84.7562L103.96 151.256H113.721L119.146 183.807H109.998L109.113 176.839H98.4213L94.6532 183.807ZM107.251 160.336L102.235 169.87H108.273L107.251 160.336ZM138.599 151.256H129.769L122.891 183.807H146.136L147.793 175.908H133.401L138.599 151.256ZM146.806 176.71H132.413L137.611 152.058H130.419L123.88 183.006H145.485L146.806 176.71ZM166.474 151.256H157.644L150.766 183.807H174.011L175.668 175.908H161.276L166.474 151.256ZM174.681 176.71H160.288L165.486 152.058H158.294L151.755 183.006H173.36L174.681 176.71ZM188.048 177.164L189.569 169.999H202.121L203.258 164.611H190.707L192.109 157.9H208.387L209.634 152.058H186.169L179.63 183.006H203.552L204.799 177.164H188.048ZM205.79 176.362L204.201 183.807H178.641L185.519 151.256H210.625L209.036 158.702H192.76L191.693 163.809H204.246L202.771 170.801H190.218L189.038 176.362H205.79ZM232.734 183.807H240.225L247.103 151.256H238.273L234.414 169.393L224.199 151.256H216.663L209.785 183.807H218.615L222.429 165.671L232.734 183.807ZM217.965 183.006L222.08 163.434L233.201 183.006H239.575L246.114 152.058H238.922L234.756 171.635L223.731 152.058H217.313L210.774 183.006H217.965ZM278.701 152.641C277.732 152.005 276.469 151.461 274.91 151.007C273.351 150.553 271.702 150.326 269.961 150.326C264.226 150.326 259.277 152.255 255.116 156.114C250.969 159.958 248.896 164.543 248.896 169.87C248.896 173.835 250.402 177.308 253.413 180.289C256.44 183.255 260.155 184.738 264.559 184.738C266.299 184.738 268.009 184.504 269.689 184.034C271.384 183.58 272.768 183.066 273.843 182.491C274.932 181.916 275.962 181.258 276.93 180.516C277.914 179.759 278.557 179.237 278.859 178.95C279.162 178.647 279.389 178.405 279.54 178.223L282.174 165.671H268.236L267.078 171.255H272.186L271.437 174.75L270.801 175.25C270.362 175.628 269.651 175.991 268.667 176.339C267.699 176.672 266.655 176.839 265.535 176.839C263.28 176.839 261.434 176.15 259.996 174.773C258.574 173.381 257.862 171.633 257.862 169.529C257.862 166.367 258.982 163.696 261.222 161.517C263.477 159.337 266.125 158.248 269.167 158.248C270.15 158.248 271.104 158.384 272.027 158.656C272.965 158.929 273.714 159.239 274.274 159.587C274.834 159.935 275.364 160.336 275.863 160.79C276.2 161.086 276.454 161.327 276.626 161.513C276.709 161.603 276.772 161.68 276.817 161.744C276.953 161.925 277.051 162.061 277.112 162.152L283.399 156.84L282.877 156.182C282.575 155.728 282.045 155.183 281.288 154.548C280.547 153.912 279.684 153.277 278.701 152.641ZM282.289 156.73L282.229 156.654L282.21 156.627C281.971 156.268 281.51 155.781 280.773 155.162L280.767 155.156C280.057 154.548 279.225 153.934 278.266 153.314L278.261 153.311C277.38 152.733 276.196 152.216 274.686 151.776C273.205 151.345 271.631 151.127 269.961 151.127C264.426 151.127 259.672 152.982 255.661 156.702C251.667 160.404 249.698 164.781 249.698 169.87C249.698 173.604 251.106 176.876 253.976 179.718C256.846 182.53 260.357 183.937 264.559 183.937C266.226 183.937 267.864 183.712 269.473 183.262L269.482 183.26C271.141 182.816 272.462 182.321 273.465 181.784L273.469 181.782C274.519 181.228 275.51 180.594 276.442 179.88C277.422 179.126 278.03 178.631 278.301 178.375C278.511 178.165 278.676 177.992 278.799 177.855L281.187 166.472H268.889L268.063 170.453H273.177L272.16 175.202L271.31 175.869C270.758 176.34 269.94 176.739 268.935 177.095L268.928 177.097C267.868 177.462 266.735 177.64 265.535 177.64C263.103 177.64 261.049 176.891 259.442 175.352L259.436 175.346C257.85 173.794 257.061 171.835 257.061 169.529C257.061 166.153 258.266 163.274 260.663 160.942L260.665 160.94C263.064 158.622 265.91 157.446 269.167 157.446C270.225 157.446 271.254 157.593 272.252 157.887C273.23 158.171 274.054 158.506 274.697 158.906C275.297 159.279 275.864 159.708 276.397 160.192C276.735 160.489 277.025 160.761 277.239 160.996L282.289 156.73ZM294.736 177.164L296.256 169.999H308.808L309.946 164.611H297.395L298.797 157.9H315.075L316.322 152.058H292.857L286.317 183.006H310.24L311.487 177.164H294.736ZM312.477 176.362L310.888 183.807H285.329L292.207 151.256H317.312L315.723 158.702H299.448L298.381 163.809H310.934L309.458 170.801H296.906L295.725 176.362H312.477ZM345.187 172.185L361.236 151.256H351.248L342.123 163.809L338.219 151.256H329.162L336.357 172.185L333.906 183.807H342.736L345.187 172.185ZM342.086 183.006L344.441 171.842L359.611 152.058H351.656L341.832 165.573L337.629 152.058H330.285L337.187 172.134L334.894 183.006H342.086ZM369.111 160.793L369.113 160.791C371.326 158.578 373.94 157.446 376.921 157.446C379.532 157.446 381.727 158.294 383.437 160.021C385.152 161.737 386.008 163.873 386.008 166.374C386.008 169.538 384.879 172.228 382.632 174.395C380.42 176.543 377.824 177.64 374.878 177.64C372.27 177.64 370.069 176.801 368.344 175.093L368.339 175.087C366.637 173.368 365.791 171.217 365.791 168.69C365.791 165.655 366.91 163.01 369.111 160.793ZM382.074 173.82C384.162 171.807 385.207 169.325 385.207 166.374C385.207 164.074 384.427 162.145 382.869 160.586C381.325 159.027 379.343 158.248 376.921 158.248C374.167 158.248 371.753 159.284 369.68 161.358C367.622 163.431 366.593 165.875 366.593 168.69C366.593 171.02 367.365 172.965 368.908 174.523C370.467 176.067 372.457 176.839 374.878 176.839C377.602 176.839 380.001 175.832 382.074 173.82ZM389.474 154.888C386.19 151.847 382.082 150.326 377.148 150.326C371.912 150.326 367.312 152.225 363.347 156.023C359.382 159.822 357.4 164.233 357.4 169.257C357.4 173.509 359.042 177.156 362.326 180.198C365.609 183.225 369.718 184.738 374.651 184.738C378.056 184.738 381.28 183.853 384.321 182.082C387.378 180.312 389.822 177.974 391.653 175.068C393.484 172.147 394.4 169.06 394.4 165.807C394.4 161.554 392.758 157.915 389.474 154.888ZM390.974 174.642C392.73 171.841 393.598 168.901 393.598 165.807C393.598 161.791 392.059 158.361 388.931 155.478L388.929 155.476C385.809 152.586 381.902 151.127 377.148 151.127C372.13 151.127 367.725 152.939 363.901 156.602C360.078 160.265 358.201 164.473 358.201 169.257C358.201 173.273 359.74 176.711 362.87 179.61C365.99 182.485 369.897 183.937 374.651 183.937C377.91 183.937 380.994 183.091 383.918 181.39L383.92 181.389C386.867 179.682 389.214 177.434 390.974 174.642ZM420.494 170.49L420.493 170.496C420.05 172.511 419.093 174.21 417.62 175.567C416.147 176.923 414.484 177.64 412.65 177.64C410.74 177.64 409.154 176.912 407.967 175.463C406.76 173.99 406.407 172.189 406.826 170.162L406.827 170.157L410.684 152.058H403.493L399.566 170.487C399.565 170.488 399.565 170.488 399.565 170.488C398.783 174.245 399.625 177.38 402.067 179.991C404.527 182.606 407.807 183.937 411.992 183.937C415.977 183.937 419.362 182.651 422.189 180.082C425.039 177.478 426.896 174.179 427.756 170.156L431.591 152.058H424.4L420.494 170.49ZM423.75 151.256H432.58L428.54 170.324C427.647 174.501 425.71 177.951 422.729 180.675C419.748 183.384 416.169 184.738 411.992 184.738C407.619 184.738 404.115 183.338 401.482 180.539C398.849 177.724 397.949 174.319 398.781 170.324L402.844 151.256H411.674L407.611 170.324C407.233 172.155 407.558 173.699 408.587 174.955C409.616 176.211 410.97 176.839 412.65 176.839C414.254 176.839 415.73 176.218 417.077 174.977C418.423 173.736 419.301 172.185 419.71 170.324L423.75 151.256ZM457.868 171.663C458.397 171.482 459.04 171.126 459.797 170.596C460.569 170.052 461.341 169.401 462.112 168.644C462.884 167.872 463.543 166.806 464.087 165.444C464.632 164.082 464.904 162.576 464.904 160.926C464.904 158.323 463.898 156.061 461.885 154.139C459.873 152.217 457.376 151.256 454.395 151.256H439.799L432.921 183.807H441.751L443.885 173.57H448.765L452.17 183.807H461.273L457.05 171.958L457.868 171.663ZM460.136 183.006L456.027 171.475L457.602 170.907L457.608 170.905C458.035 170.758 458.608 170.45 459.337 169.94C460.068 169.424 460.805 168.803 461.549 168.074C462.221 167.401 462.826 166.438 463.343 165.146C463.846 163.89 464.103 162.487 464.103 160.926C464.103 158.559 463.198 156.501 461.332 154.719C459.48 152.95 457.186 152.058 454.395 152.058H440.449L433.91 183.006H441.099L443.233 172.768H449.343L452.748 183.006H460.136ZM446.949 159.178H452.851C453.759 159.178 454.485 159.451 455.03 159.996C455.59 160.525 455.87 161.176 455.87 161.948C455.87 163.068 455.446 163.968 454.599 164.649C453.751 165.33 452.768 165.671 451.648 165.671H445.565L446.949 159.178ZM455.589 159.421C454.868 158.705 453.927 158.377 452.851 158.377H446.301L444.574 166.472H451.648C452.944 166.472 454.107 166.073 455.101 165.274C456.144 164.436 456.672 163.302 456.672 161.948C456.672 160.96 456.304 160.101 455.589 159.421ZM481.151 177.201L481.147 177.203C480.165 177.81 479.005 178.094 477.707 178.094C476.856 178.094 476.001 177.969 475.147 177.722C474.323 177.485 473.607 177.208 473.012 176.885L473.004 176.881L472.996 176.876C472.431 176.553 471.884 176.183 471.354 175.766L471.35 175.762L471.345 175.758C470.99 175.47 470.715 175.243 470.528 175.083L465.727 179.211C466.019 179.535 466.51 179.957 467.234 180.478C467.96 181.001 468.801 181.528 469.761 182.06C470.684 182.564 471.858 183.004 473.297 183.371L473.303 183.373C474.732 183.748 476.215 183.937 477.752 183.937C482.055 183.937 485.308 182.859 487.616 180.803C489.934 178.723 491.093 176.076 491.093 172.798C491.093 171.364 490.707 170.129 489.948 169.064L489.944 169.058C489.161 167.94 488.212 167.07 487.095 166.436L487.091 166.433C485.909 165.754 484.714 165.164 483.506 164.663L483.498 164.66C482.225 164.116 481.127 163.542 480.213 162.933L480.208 162.929C479.271 162.293 478.585 161.469 478.585 160.427C478.585 159.379 479.108 158.527 479.984 157.893C480.865 157.256 481.958 156.97 483.2 156.97C484.293 156.97 485.354 157.218 486.377 157.703C487.295 158.125 487.999 158.501 488.403 158.828C488.484 158.893 488.562 158.958 488.636 159.022L493.405 154.908C493.227 154.685 492.894 154.382 492.347 154.004L492.341 154.001L492.336 153.997C491.734 153.567 491.023 153.131 490.199 152.689L490.194 152.686C489.443 152.277 488.441 151.912 487.166 151.604L487.158 151.602C485.911 151.287 484.578 151.127 483.155 151.127C479.071 151.127 475.935 152.179 473.652 154.195C471.361 156.218 470.246 158.623 470.246 161.448C470.246 162.865 470.631 164.101 471.392 165.184C472.208 166.323 473.169 167.211 474.273 167.86C475.478 168.559 476.68 169.182 477.881 169.731C479.137 170.305 480.223 170.901 481.132 171.523C482.088 172.166 482.799 172.996 482.799 174.047C482.799 175.403 482.264 176.505 481.151 177.201ZM480.681 172.185C481.558 172.775 481.997 173.396 481.997 174.047C481.997 175.166 481.573 175.991 480.726 176.521C479.894 177.035 478.887 177.293 477.707 177.293C476.935 177.293 476.156 177.179 475.369 176.952C474.582 176.725 473.924 176.468 473.394 176.18C472.864 175.878 472.35 175.53 471.851 175.136C471.366 174.743 471.048 174.478 470.897 174.342L470.557 174.001L464.564 179.154L465.109 179.722C465.112 179.726 465.116 179.73 465.119 179.734C465.468 180.125 466.017 180.59 466.766 181.129C467.522 181.674 468.393 182.218 469.376 182.763C470.375 183.308 471.616 183.77 473.099 184.148C474.597 184.541 476.148 184.738 477.752 184.738C482.186 184.738 485.652 183.626 488.149 181.401C490.646 179.162 491.894 176.294 491.894 172.798C491.894 171.209 491.463 169.809 490.6 168.599C489.753 167.388 488.716 166.435 487.49 165.739C486.28 165.043 485.054 164.437 483.813 163.923C482.572 163.393 481.521 162.841 480.658 162.266C479.81 161.691 479.387 161.078 479.387 160.427C479.387 159.685 479.742 159.057 480.454 158.543C481.165 158.028 482.08 157.771 483.2 157.771C484.169 157.771 485.115 157.991 486.038 158.429C486.961 158.853 487.581 159.194 487.899 159.451C488.183 159.681 488.401 159.881 488.552 160.05C488.57 160.07 488.587 160.09 488.603 160.109L494.55 154.979L494.119 154.525C494.087 154.479 494.051 154.432 494.012 154.384C493.757 154.072 493.354 153.725 492.802 153.345C492.167 152.891 491.425 152.437 490.578 151.983C489.745 151.529 488.671 151.143 487.354 150.825C486.038 150.492 484.638 150.326 483.155 150.326C478.933 150.326 475.588 151.415 473.122 153.594C470.67 155.758 469.444 158.376 469.444 161.448C469.444 163.022 469.876 164.422 470.738 165.648C471.616 166.874 472.66 167.842 473.871 168.553C475.097 169.265 476.322 169.9 477.548 170.46C478.774 171.02 479.818 171.595 480.681 172.185ZM504.161 177.164L505.682 169.999H518.234L519.371 164.611H506.82L508.222 157.9H524.5L525.747 152.058H502.282L495.743 183.006H519.665L520.912 177.164H504.161ZM521.903 176.362L520.314 183.807H494.754L501.632 151.256H526.738L525.149 158.702H508.873L507.806 163.809H520.359L518.884 170.801H506.331L505.151 176.362H521.903ZM541.606 151.256H532.776L525.898 183.807H549.142L550.799 175.908H536.408L541.606 151.256ZM549.812 176.71H535.42L540.618 152.058H533.426L526.887 183.006H548.491L549.812 176.71ZM567.801 159.178H584.077L585.757 151.256H560.651L553.773 183.807H562.603L565.009 172.412H577.562L579.242 164.513H566.689L567.801 159.178ZM578.252 165.314H565.703L567.15 158.377H583.427L584.767 152.058H561.301L554.762 183.006H561.953L564.359 171.611H576.913L578.252 165.314ZM591.877 182.297L591.882 182.292C592.72 181.506 593.104 180.63 593.104 179.631C593.104 178.825 592.818 178.154 592.216 177.576C591.631 177.015 590.858 176.71 589.82 176.71C588.672 176.71 587.71 177.108 586.891 177.928C586.069 178.749 585.695 179.634 585.695 180.607C585.695 181.448 585.985 182.109 586.569 182.648C587.148 183.167 587.939 183.46 589.025 183.46C590.114 183.46 591.053 183.082 591.877 182.297ZM586.029 183.24C585.272 182.544 584.894 181.666 584.894 180.607C584.894 179.396 585.371 178.314 586.324 177.361C587.293 176.392 588.458 175.908 589.82 175.908C591.03 175.908 592.014 176.271 592.771 176.998C593.527 177.724 593.906 178.602 593.906 179.631C593.906 180.872 593.414 181.954 592.43 182.877C591.462 183.8 590.327 184.261 589.025 184.261C587.784 184.261 586.786 183.921 586.029 183.24ZM593.815 173.57L599.944 151.256H590.66L587.3 173.57H593.815ZM588.231 172.768H593.204L598.892 152.058H591.349L588.231 172.768Z" fill="white"/>
<g filter="url(#filter2_d)">
<path d="M44.4528 162.256C41.4111 162.256 38.7779 163.338 36.5534 165.502C34.344 167.666 33.2392 170.299 33.2392 173.402C33.2392 175.535 33.9505 177.313 35.373 178.736C36.8106 180.143 38.6569 180.847 40.9117 180.847C41.971 180.847 43.0076 180.696 44.0215 180.393C45.0505 180.075 45.9283 179.697 46.6546 179.258C47.381 178.819 48.0317 178.38 48.6068 177.941C49.1819 177.487 49.6056 177.109 49.878 176.806L50.3547 176.33L54.4406 182.232C54.2892 182.413 54.0774 182.655 53.805 182.958C53.5477 183.246 52.9424 183.768 51.989 184.524C51.0508 185.266 50.052 185.924 48.9927 186.499C47.9485 187.074 46.579 187.589 44.8841 188.043C43.2043 188.512 41.4792 188.746 39.7086 188.746C35.3049 188.746 31.6276 187.263 28.6766 184.297C25.7408 181.316 24.2729 177.843 24.2729 173.878C24.2729 168.551 26.3235 163.966 30.4245 160.122C34.5407 156.263 39.4665 154.334 45.2019 154.334C46.9422 154.334 48.5917 154.561 50.1504 155.015C51.7091 155.469 52.9878 156.014 53.9866 156.649C55.0005 157.285 55.8858 157.921 56.6424 158.556C57.4142 159.192 57.9514 159.736 58.2541 160.19L58.7762 160.849L52.4884 166.16C52.4279 166.07 52.3295 165.933 52.1933 165.752C52.0571 165.555 51.7469 165.237 51.2626 164.798C50.7784 164.344 50.2487 163.943 49.6737 163.595C49.0986 163.247 48.342 162.937 47.4037 162.665C46.4655 162.392 45.4818 162.256 44.4528 162.256Z" fill="#F44D4D"/>
<path d="M94.3236 155.265L87.4456 187.816H78.6155L81.2714 175.263H69.4222L66.7664 187.816H57.9363L64.8142 155.265H73.6443L71.0793 167.363H82.9511L85.4935 155.265H94.3236Z" fill="#F44D4D"/>
<path d="M114.685 173.878L113.664 164.344L108.647 173.878H114.685ZM115.525 180.847H104.833L101.065 187.816H91.1683L110.372 155.265H120.133L125.558 187.816H116.41L115.525 180.847Z" fill="#F44D4D"/>
<path d="M152.548 187.816H129.303L136.181 155.265H145.012L139.813 179.916H154.205L152.548 187.816Z" fill="#F44D4D"/>
<path d="M180.423 187.816H157.178L164.056 155.265H172.886L167.688 179.916H182.08L180.423 187.816Z" fill="#F44D4D"/>
<path d="M195.45 180.37H212.202L210.613 187.816H185.053L191.931 155.265H217.037L215.448 162.71H199.172L198.106 167.817H210.658L209.183 174.809H196.63L195.45 180.37Z" fill="#F44D4D"/>
<path d="M244.685 155.265H253.515L246.637 187.816H239.146L228.841 169.679L225.027 187.816H216.197L223.075 155.265H230.611L240.826 173.402L244.685 155.265Z" fill="#F44D4D"/>
<path d="M270.971 188.746C266.567 188.746 262.852 187.263 259.826 184.297C256.814 181.316 255.308 177.843 255.308 173.878C255.308 168.551 257.382 163.966 261.528 160.122C265.69 156.263 270.638 154.334 276.373 154.334C278.114 154.334 279.763 154.561 281.322 155.015C282.881 155.469 284.144 156.014 285.113 156.649C286.096 157.285 286.959 157.921 287.7 158.556C288.457 159.192 288.987 159.736 289.289 160.19L289.812 160.849L283.524 166.16C283.463 166.07 283.365 165.933 283.229 165.752C283.092 165.555 282.775 165.237 282.275 164.798C281.776 164.344 281.246 163.943 280.686 163.595C280.126 163.247 279.377 162.937 278.439 162.665C277.516 162.392 276.563 162.256 275.579 162.256C272.537 162.256 269.889 163.346 267.634 165.525C265.394 167.704 264.275 170.375 264.275 173.538C264.275 175.641 264.986 177.389 266.408 178.781C267.846 180.158 269.692 180.847 271.947 180.847C273.067 180.847 274.111 180.681 275.08 180.348C276.063 180 276.774 179.636 277.213 179.258L277.849 178.759L278.598 175.263H273.491L274.648 169.679H288.586L285.953 182.232C285.801 182.413 285.574 182.655 285.272 182.958C284.969 183.246 284.326 183.768 283.342 184.524C282.374 185.266 281.345 185.924 280.255 186.499C279.181 187.074 277.796 187.589 276.101 188.043C274.421 188.512 272.711 188.746 270.971 188.746Z" fill="#F44D4D"/>
<path d="M302.137 180.37H318.89L317.301 187.816H291.741L298.619 155.265H323.725L322.136 162.71H305.86L304.793 167.817H317.346L315.871 174.809H303.318L302.137 180.37Z" fill="#F44D4D"/>
<path d="M357.66 155.265H367.648L351.6 176.194L349.148 187.816H340.318L342.769 176.194L335.574 155.265H344.631L348.535 167.817L357.66 155.265Z" fill="#F44D4D"/>
<path d="M383.333 162.256C380.579 162.256 378.165 163.293 376.092 165.366C374.034 167.439 373.005 169.883 373.005 172.698C373.005 175.028 373.777 176.973 375.32 178.532C376.879 180.075 378.869 180.847 381.29 180.847C384.014 180.847 386.413 179.841 388.486 177.828C390.575 175.815 391.619 173.333 391.619 170.383C391.619 168.082 390.839 166.153 389.281 164.594C387.737 163.035 385.755 162.256 383.333 162.256ZM400.812 169.815C400.812 173.069 399.896 176.156 398.065 179.076C396.234 181.982 393.79 184.32 390.733 186.091C387.692 187.861 384.468 188.746 381.063 188.746C376.13 188.746 372.021 187.233 368.738 184.207C365.454 181.165 363.812 177.518 363.812 173.265C363.812 168.241 365.794 163.83 369.759 160.032C373.724 156.233 378.324 154.334 383.56 154.334C388.494 154.334 392.602 155.855 395.886 158.897C399.17 161.923 400.812 165.563 400.812 169.815Z" fill="#F44D4D"/>
<path d="M419.062 180.847C420.666 180.847 422.142 180.227 423.489 178.986C424.836 177.745 425.713 176.194 426.122 174.332L430.162 155.265H438.993L434.952 174.332C434.059 178.509 432.122 181.959 429.141 184.683C426.16 187.392 422.581 188.746 418.404 188.746C414.031 188.746 410.527 187.347 407.894 184.547C405.261 181.732 404.361 178.327 405.193 174.332L409.256 155.265H418.086L414.023 174.332C413.645 176.163 413.97 177.707 414.999 178.963C416.028 180.219 417.383 180.847 419.062 180.847Z" fill="#F44D4D"/>
<path d="M439.333 187.816L446.211 155.265H460.807C463.788 155.265 466.285 156.226 468.298 158.147C470.31 160.069 471.317 162.332 471.317 164.935C471.317 166.584 471.044 168.09 470.499 169.452C469.955 170.814 469.296 171.881 468.525 172.652C467.753 173.409 466.981 174.06 466.209 174.605C465.453 175.134 464.809 175.49 464.28 175.672L463.463 175.967L467.685 187.816H458.582L455.177 177.578H450.297L448.163 187.816H439.333ZM458.06 169.679C459.18 169.679 460.164 169.338 461.011 168.657C461.858 167.976 462.282 167.076 462.282 165.956C462.282 165.184 462.002 164.534 461.442 164.004C460.898 163.459 460.171 163.187 459.263 163.187H453.361L451.977 169.679H458.06Z" fill="#F44D4D"/>
<path d="M484.119 181.301C485.299 181.301 486.306 181.044 487.138 180.529C487.986 180 488.409 179.175 488.409 178.055C488.409 177.404 487.97 176.784 487.093 176.194C486.23 175.603 485.186 175.028 483.96 174.468C482.734 173.909 481.509 173.273 480.283 172.562C479.072 171.85 478.028 170.882 477.15 169.656C476.288 168.43 475.856 167.031 475.856 165.457C475.856 162.385 477.082 159.767 479.534 157.603C482 155.424 485.345 154.334 489.567 154.334C491.05 154.334 492.45 154.5 493.766 154.833C495.083 155.151 496.157 155.537 496.99 155.991C497.837 156.445 498.579 156.899 499.214 157.353C499.85 157.792 500.289 158.185 500.531 158.533L500.962 158.987L495.015 164.117C494.864 163.936 494.629 163.716 494.311 163.459C493.993 163.202 493.373 162.861 492.45 162.438C491.527 161.999 490.581 161.779 489.612 161.779C488.493 161.779 487.577 162.037 486.866 162.551C486.154 163.066 485.799 163.694 485.799 164.435C485.799 165.086 486.223 165.699 487.07 166.274C487.933 166.849 488.984 167.401 490.225 167.931C491.466 168.445 492.692 169.051 493.903 169.747C495.128 170.443 496.165 171.396 497.012 172.607C497.875 173.818 498.306 175.218 498.306 176.806C498.306 180.302 497.058 183.17 494.561 185.41C492.064 187.634 488.598 188.746 484.164 188.746C482.56 188.746 481.009 188.55 479.511 188.156C478.028 187.778 476.787 187.316 475.788 186.772C474.805 186.227 473.935 185.682 473.178 185.137C472.421 184.592 471.869 184.123 471.521 183.73L470.976 183.162L476.969 178.01C477.06 178.1 477.173 178.214 477.309 178.35C477.461 178.486 477.778 178.751 478.263 179.145C478.762 179.538 479.277 179.886 479.806 180.189C480.336 180.476 480.994 180.733 481.781 180.96C482.568 181.187 483.347 181.301 484.119 181.301Z" fill="#F44D4D"/>
<path d="M511.563 180.37H528.315L526.726 187.816H501.166L508.044 155.265H533.15L531.561 162.71H515.285L514.219 167.817H526.771L525.296 174.809H512.743L511.563 180.37Z" fill="#F44D4D"/>
<path d="M555.554 187.816H532.31L539.188 155.265H548.018L542.82 179.916H557.211L555.554 187.816Z" fill="#F44D4D"/>
<path d="M567.063 155.265H592.169L590.489 163.187H574.213L573.101 168.521H585.654L583.974 176.421H571.421L569.015 187.816H560.185L567.063 155.265Z" fill="#F44D4D"/>
<path d="M600.227 177.578H593.712L597.072 155.265H606.356L600.227 177.578ZM591.306 184.615C591.306 183.404 591.783 182.322 592.736 181.369C593.705 180.401 594.87 179.916 596.232 179.916C597.443 179.916 598.426 180.279 599.183 181.006C599.939 181.732 600.318 182.61 600.318 183.639C600.318 184.88 599.826 185.962 598.842 186.885C597.874 187.808 596.739 188.27 595.437 188.27C594.196 188.27 593.198 187.929 592.441 187.248C591.684 186.552 591.306 185.674 591.306 184.615Z" fill="#F44D4D"/>
</g>
<defs>
<filter id="filter0_f" x="26.4429" y="0.458008" width="553.588" height="347.414" filterUnits="userSpaceOnUse" color-interpolation-filters="sRGB">
<feFlood flood-opacity="0" result="BackgroundImageFix"/>
<feBlend mode="normal" in="SourceGraphic" in2="BackgroundImageFix" result="shape"/>
<feGaussianBlur stdDeviation="52" result="effect1_foregroundBlur"/>
</filter>
<filter id="filter1_f" x="91.2598" y="99.7402" width="451.076" height="146.496" filterUnits="userSpaceOnUse" color-interpolation-filters="sRGB">
<feFlood flood-opacity="0" result="BackgroundImageFix"/>
<feBlend mode="normal" in="SourceGraphic" in2="BackgroundImageFix" result="shape"/>
<feGaussianBlur stdDeviation="24" result="effect1_foregroundBlur"/>
</filter>
<filter id="filter2_d" x="0.272949" y="153.334" width="630.083" height="82.4124" filterUnits="userSpaceOnUse" color-interpolation-filters="sRGB">
<feFlood flood-opacity="0" result="BackgroundImageFix"/>
<feColorMatrix in="SourceAlpha" type="matrix" values="0 0 0 0 0 0 0 0 0 0 0 0 0 0 0 0 0 0 127 0"/>
<feOffset dy="23"/>
<feGaussianBlur stdDeviation="12"/>
<feColorMatrix type="matrix" values="0 0 0 0 0 0 0 0 0 0 0 0 0 0 0 0 0 0 0.25 0"/>
<feBlend mode="normal" in2="BackgroundImageFix" result="effect1_dropShadow"/>
<feBlend mode="normal" in="SourceGraphic" in2="effect1_dropShadow" result="shape"/>
</filter>
</defs>
</svg>
