<svg width="768" height="669" viewBox="0 0 768 669" fill="none" xmlns="http://www.w3.org/2000/svg">
<mask id="mask0" mask-type="alpha" maskUnits="userSpaceOnUse" x="0" y="330" width="768" height="339">
<rect y="330" width="768" height="339" fill="#252525"/>
</mask>
<g mask="url(#mask0)">
<g opacity="0.5" filter="url(#filter0_f)">
<ellipse cx="326.669" cy="405.269" rx="386.444" ry="31.145" transform="rotate(-30 326.669 405.269)" fill="#F44D4D"/>
</g>
</g>
<path opacity="0.1" fill-rule="evenodd" clip-rule="evenodd" d="M119.155 36.3408H156.172L163.037 3.96289H52.8223L45.957 36.3408H83.0664L61.7285 137H97.8174L119.155 36.3408ZM97.0072 136L118.345 35.3408H155.362L161.803 4.96289H53.6325L47.1913 35.3408H84.3006L62.9627 136H97.0072ZM255.903 87.3662C258.068 86.624 260.697 85.1706 263.789 83.0059C266.943 80.7793 270.098 78.1198 273.252 75.0273C276.406 71.873 279.097 67.5127 281.323 61.9463C283.55 56.3799 284.663 50.2259 284.663 43.4844C284.663 32.8464 280.55 23.5999 272.324 15.7451C264.098 7.8903 253.893 3.96289 241.709 3.96289H182.056L153.945 137H190.034L198.755 95.1592H218.701L232.617 137H269.819L252.563 88.5723L255.903 87.3662ZM268.401 136L251.287 87.9699L255.571 86.4229L255.579 86.4203C257.616 85.7219 260.155 84.3286 263.212 82.1889C266.316 79.998 269.428 77.3752 272.549 74.3164C275.579 71.285 278.203 67.0541 280.395 61.5749C282.569 56.1404 283.663 50.1145 283.663 43.4844C283.663 33.14 279.677 24.149 271.634 16.4683C263.608 8.80462 253.656 4.96289 241.709 4.96289H182.866L155.179 136H189.221L197.942 94.1592H219.422L233.338 136H268.401ZM211.279 36.3408H235.4C239.111 36.3408 242.08 37.4541 244.307 39.6807C246.595 41.8454 247.739 44.5049 247.739 47.6592C247.739 52.236 246.007 55.916 242.544 58.6992C239.08 61.4824 235.06 62.874 230.483 62.874H205.62L211.279 36.3408ZM245.004 38.9635C242.558 36.523 239.32 35.3408 235.4 35.3408H210.47L204.384 63.874H230.483C235.281 63.874 239.523 62.4092 243.17 59.4787C246.878 56.4992 248.739 52.5285 248.739 47.6592C248.739 44.235 247.486 41.3158 245.004 38.9635ZM372.705 81.0371H345.258L368.061 37.7001L372.705 81.0371ZM375.905 107.519L379.524 136H414.85L393.01 4.96289H354.536L277.23 136H315.332L330.732 107.519H375.905ZM315.928 137H275.479L353.965 3.96289H393.857L416.03 137H378.643L375.024 108.519H331.328L315.928 137ZM367.417 41.0723L346.914 80.0371H371.592L367.417 41.0723ZM525.132 137H555.747L583.857 3.96289H547.769L531.997 78.0889L490.249 3.96289H459.448L431.338 137H467.427L483.013 62.874L525.132 137ZM466.615 136L482.578 60.0839L525.714 136H554.936L582.624 4.96289H548.578L532.424 80.8855L489.664 4.96289H460.259L432.571 136H466.615ZM645.432 108.068L645.428 108.07C641.839 110.289 637.535 111.374 632.563 111.374C629.31 111.374 626.031 110.895 622.731 109.943C619.468 109.002 616.706 107.926 614.459 106.707L614.45 106.702L614.44 106.696C612.231 105.434 610.087 103.983 608.009 102.346L608.003 102.341L607.997 102.337C606.022 100.732 604.703 99.6332 604.062 99.0568L604.043 99.0392L604.024 99.0206L604.021 99.0173L604.018 99.0141L604.015 99.0108L604.011 99.0076L604.002 98.9978L603.998 98.9946L603.995 98.9913L603.992 98.9881L603.976 98.9719L603.972 98.9687L603.969 98.9654L603.966 98.9622L603.956 98.9526L603.953 98.9493L603.95 98.9461L603.947 98.9429L603.943 98.9397L603.94 98.9365L603.937 98.9333L603.934 98.9301L603.931 98.9269L603.927 98.9237L603.924 98.9205L603.921 98.9173L603.918 98.9141L603.908 98.9045L603.905 98.9014L603.899 98.895L603.896 98.8918L603.886 98.8823L603.883 98.8791L603.88 98.876L603.877 98.8728L603.873 98.8696L603.864 98.8602L603.861 98.857L603.858 98.8539L603.854 98.8507L603.851 98.8475L603.848 98.8444L603.845 98.8413L603.842 98.8381L603.839 98.835L603.836 98.8318L603.832 98.8287L603.826 98.8224L603.823 98.8193L603.817 98.8131L603.814 98.81L603.811 98.8068L603.807 98.8037L603.804 98.8006L603.798 98.7944L603.795 98.7913L603.792 98.7881L603.789 98.785L603.776 98.7726L603.773 98.7695L603.77 98.7664L603.767 98.7634L603.764 98.7603L603.761 98.7572L603.758 98.7541L603.755 98.751L603.752 98.7479L603.749 98.7449L603.746 98.7418L603.742 98.7387L603.739 98.7356L603.73 98.7264L603.727 98.7234L603.724 98.7203L603.721 98.7173L603.703 98.6989L603.697 98.6929L603.694 98.6898L603.688 98.6837L603.684 98.6807L603.681 98.6777L603.678 98.6747L603.675 98.6716L603.669 98.6656L603.666 98.6626L603.663 98.6595L603.66 98.6565L603.657 98.6535L603.654 98.6505L603.645 98.6415L603.642 98.6385L603.639 98.6355L603.636 98.6325L603.633 98.6295L603.618 98.6145L603.615 98.6115L603.612 98.6086L603.606 98.6026L603.603 98.5996L603.597 98.5937L603.594 98.5907L603.591 98.5877L603.589 98.5848L603.586 98.5818L603.583 98.5788L603.58 98.5759L603.577 98.5729L603.574 98.57L603.571 98.567L603.568 98.5641L603.559 98.5552L603.556 98.5523L603.553 98.5494L603.55 98.5464L603.547 98.5435L603.544 98.5405L603.536 98.5318L603.533 98.5288L603.53 98.5259L603.524 98.5201L603.521 98.5172L603.518 98.5142L603.515 98.5113L603.512 98.5084L603.509 98.5055L603.506 98.5026L603.503 98.4997L603.501 98.4968L603.498 98.4939L603.495 98.491L603.492 98.4881L603.489 98.4852L603.486 98.4823L603.483 98.4794L603.48 98.4765L603.472 98.4679L603.469 98.465L603.466 98.4621L603.449 98.4449L603.446 98.4421L603.443 98.4392L603.434 98.4306L603.432 98.4278L603.429 98.4249L603.426 98.4221L603.423 98.4193L603.42 98.4164L603.417 98.4136L603.414 98.4107L603.412 98.4079L603.409 98.4051L603.406 98.4022L603.403 98.3994L603.4 98.3966L603.395 98.3909L603.392 98.3881L603.389 98.3853L603.383 98.3797L603.369 98.3656L603.367 98.3628L603.364 98.36L603.358 98.3544L603.355 98.3516L603.35 98.3461L603.347 98.3433L603.344 98.3405L603.341 98.3377L603.339 98.3349L603.336 98.3321L603.333 98.3294L603.33 98.3266L603.328 98.3238L603.325 98.321L603.322 98.3183L603.319 98.3155L603.317 98.3127L603.314 98.31L603.311 98.3072L603.308 98.3045L603.305 98.3017L603.303 98.299L603.3 98.2962L603.292 98.288L603.289 98.2852L580.301 118.051L581.81 119.623L581.823 119.638C583.173 121.164 585.36 123.03 588.431 125.241C591.484 127.44 595.004 129.644 598.995 131.855C602.983 134.03 607.971 135.89 613.978 137.423L613.984 137.424C620.022 139.01 626.276 139.804 632.749 139.804C650.707 139.804 664.605 135.301 674.574 126.419C684.556 117.465 689.547 106.02 689.547 92.0049C689.547 85.7036 687.841 80.1886 684.444 75.4221L684.44 75.4153C681.057 70.5829 676.929 66.7901 672.055 64.0219L672.05 64.0193C667.138 61.1948 662.167 58.74 657.137 56.6542L657.127 56.6502C652.015 54.4681 647.659 52.1829 644.069 49.7901L644.062 49.7855C640.487 47.3596 638.429 44.5917 638.429 41.4434C638.429 38.0303 640.09 35.1846 643.203 32.9329C646.322 30.6765 650.286 29.5889 655.015 29.5889C659.128 29.5889 663.138 30.5214 667.035 32.3735C670.801 34.1024 673.441 35.5379 674.848 36.6769C675.779 37.4307 676.56 38.1232 677.178 38.7524L699.954 19.1058L698.861 17.9558L698.818 17.8933C697.932 16.6193 696.256 15.0929 693.69 13.3209L693.683 13.3164L693.677 13.3118C691.121 11.4861 688.128 9.65278 684.694 7.81312L684.687 7.80956C681.387 6.0097 677.086 4.45854 671.758 3.17228L671.747 3.16973C666.453 1.83103 660.815 1.15918 654.829 1.15918C637.746 1.15918 624.337 5.56466 614.485 14.268L613.823 13.5186C623.905 4.6123 637.573 0.15918 654.829 0.15918C660.89 0.15918 666.611 0.83952 671.992 2.2002C677.373 3.49902 681.764 5.07617 685.166 6.93164C688.63 8.78711 691.66 10.6426 694.258 12.498C696.855 14.2917 698.649 15.8997 699.639 17.3223L701.401 19.1777L677.095 40.1445C677.03 40.0664 676.961 39.9866 676.888 39.905C676.271 39.2118 675.381 38.3949 674.219 37.4541C672.92 36.4027 670.384 35.0111 666.611 33.2793C662.839 31.4857 658.973 30.5889 655.015 30.5889C650.438 30.5889 646.696 31.6403 643.789 33.7432C640.882 35.846 639.429 38.4128 639.429 41.4434C639.429 44.1029 641.16 46.6077 644.624 48.958C648.149 51.3083 652.448 53.5658 657.52 55.7305C662.591 57.8333 667.601 60.3073 672.549 63.1523C677.559 65.9974 681.795 69.8939 685.259 74.8418C688.784 79.7897 690.547 85.5107 690.547 92.0049C690.547 106.292 685.444 118.012 675.239 127.166C665.034 136.258 650.871 140.804 632.749 140.804C626.193 140.804 619.854 140 613.73 138.392C607.669 136.845 602.598 134.959 598.516 132.732C594.495 130.506 590.939 128.279 587.847 126.053C584.754 123.826 582.497 121.909 581.074 120.301L578.848 117.981L603.34 96.9219L604.731 98.3135C605.35 98.8701 606.649 99.9525 608.628 101.561C610.669 103.169 612.772 104.591 614.937 105.828C617.101 107.003 619.792 108.055 623.008 108.982C626.224 109.91 629.409 110.374 632.563 110.374C637.388 110.374 641.501 109.323 644.902 107.22C648.366 105.055 650.098 101.684 650.098 97.1074C650.098 94.4479 648.304 91.9121 644.717 89.5C641.191 87.0879 636.924 84.7376 631.914 82.4492C626.904 80.1608 621.895 77.5632 616.885 74.6562C611.937 71.7493 607.669 67.791 604.082 62.7812C600.557 57.7715 598.794 52.0505 598.794 45.6182C598.794 33.0628 603.804 22.363 613.823 13.5186L614.485 14.268C604.665 22.9364 599.794 33.3699 599.794 45.6182C599.794 51.8543 601.499 57.3714 604.898 62.2034C608.408 67.1043 612.571 70.9615 617.387 73.7913C622.37 76.6828 627.351 79.2654 632.33 81.5396C637.376 83.8448 641.695 86.2213 645.279 88.6728C648.963 91.1513 651.098 93.9485 651.098 97.1074C651.098 101.98 649.228 105.696 645.432 108.068ZM193.56 315.678H124.165L118.135 344.159H187.437L193.56 315.678ZM192.322 316.678H124.975L119.369 343.159H186.629L192.322 316.678ZM257.852 285.341H324.37L331.235 252.963H228.628L200.518 386H236.606L246.44 339.428H297.744L304.609 307.143H253.306L257.852 285.341ZM303.374 308.143H252.076L257.039 284.341H323.56L330.001 253.963H229.439L201.751 385H235.796L245.63 338.428H296.934L303.374 308.143ZM374.593 293.543L374.596 293.54C383.243 284.893 393.357 280.537 404.897 280.537C415.03 280.537 423.398 283.808 429.915 290.389C436.479 296.955 439.76 305.098 439.76 314.75C439.76 327.076 435.386 337.48 426.653 345.898C426.652 345.898 426.652 345.899 426.651 345.9L425.957 345.18L426.653 345.898C426.653 345.898 426.653 345.897 426.653 345.898C418.006 354.292 407.957 358.519 396.548 358.519C386.418 358.519 378.023 355.28 371.445 348.766L371.438 348.759C364.931 342.189 361.686 333.983 361.686 324.213C361.686 312.434 366.003 302.195 374.593 293.543ZM456.201 267.807C442.78 255.375 425.988 249.159 405.825 249.159C384.425 249.159 365.623 256.921 349.419 272.445C333.215 287.969 325.112 305.998 325.112 326.532C325.112 343.912 331.823 358.817 345.244 371.249C358.665 383.619 375.457 389.804 395.62 389.804C409.536 389.804 422.71 386.186 435.142 378.949C447.635 371.713 457.624 362.157 465.107 350.282C472.591 338.345 476.333 325.728 476.333 312.431C476.333 295.051 469.622 280.176 456.201 267.807ZM464.26 349.751C471.65 337.963 475.333 325.529 475.333 312.431C475.333 295.346 468.751 280.733 455.523 268.542L455.522 268.54C442.305 256.298 425.764 250.159 405.825 250.159C384.697 250.159 366.139 257.812 350.111 273.167C334.083 288.522 326.112 306.298 326.112 326.532C326.112 343.617 332.695 358.262 345.924 370.515C359.14 382.695 375.681 388.804 395.62 388.804C409.353 388.804 422.354 385.236 434.639 378.085L434.64 378.084C446.997 370.927 456.865 361.484 464.26 349.751ZM585.62 336.366C587.785 335.624 590.413 334.171 593.506 332.006C596.66 329.779 599.814 327.12 602.969 324.027C606.123 320.873 608.813 316.513 611.04 310.946C613.267 305.38 614.38 299.226 614.38 292.484C614.38 281.846 610.267 272.6 602.041 264.745C593.815 256.89 583.61 252.963 571.426 252.963H511.772L483.662 386H519.751L528.472 344.159H548.418L562.334 386H599.536L582.28 337.572L585.62 336.366ZM598.118 385L581.004 336.97L585.288 335.423L585.296 335.42C587.333 334.722 589.874 333.328 592.932 331.187C596.035 328.996 599.147 326.373 602.267 323.315C605.296 320.284 607.92 316.053 610.112 310.575C612.285 305.14 613.38 299.114 613.38 292.484C613.38 282.14 609.394 273.149 601.35 265.468C593.325 257.805 583.373 253.963 571.426 253.963H512.583L484.896 385H518.938L527.659 343.159H549.139L563.055 385H598.118ZM540.996 285.341H565.117C568.828 285.341 571.797 286.454 574.023 288.681C576.312 290.845 577.456 293.505 577.456 296.659C577.456 301.236 575.724 304.916 572.261 307.699C568.797 310.482 564.777 311.874 560.2 311.874H535.337L540.996 285.341ZM574.72 287.963C572.274 285.523 569.037 284.341 565.117 284.341H540.187L534.101 312.874H560.2C564.997 312.874 569.24 311.409 572.887 308.479C576.595 305.499 578.456 301.528 578.456 296.659C578.456 293.235 577.202 290.315 574.72 287.963ZM23.042 501.963H-6.92383L-35.0342 635H1.05469L17.7539 556.143L44.9365 602.715L91.8799 556.143L75.1807 635H111.27L139.38 501.963H104.775L52.915 554.287L23.042 501.963ZM105.192 502.963L52.699 555.926L22.4614 502.963H-6.11305L-33.8008 634H0.244278L17.3121 553.402L45.1491 601.095L93.5516 553.076L76.4146 634H110.459L138.147 502.963H105.192ZM223.618 579.037H196.171L218.974 535.7L223.618 579.037ZM226.819 605.519L230.437 634H265.763L243.923 502.963H205.449L128.143 634H166.245L181.645 605.519H226.819ZM166.841 635H126.392L204.878 501.963H244.771L266.943 635H229.556L225.938 606.519H182.241L166.841 635ZM218.33 539.072L197.827 578.037H222.505L218.33 539.072ZM353.779 534.341H390.796L397.661 501.963H287.446L280.581 534.341H317.69L296.353 635H332.441L353.779 534.341ZM331.631 634L352.969 533.341H389.986L396.427 502.963H288.256L281.815 533.341H318.925L297.587 634H331.631ZM388.569 635H424.658L452.769 501.963H416.68L388.569 635ZM389.803 634H423.847L451.535 502.963H417.49L389.803 634ZM509.393 542.543L509.395 542.54C518.043 533.893 528.157 529.537 539.697 529.537C549.83 529.537 558.198 532.808 564.714 539.389C571.279 545.955 574.56 554.098 574.56 563.75C574.56 576.077 570.185 586.482 561.451 594.9C552.804 603.293 542.756 607.519 531.348 607.519C521.218 607.519 512.823 604.28 506.245 597.766L506.238 597.759C499.731 591.189 496.485 582.983 496.485 573.213C496.485 561.434 500.803 551.195 509.393 542.543ZM560.757 594.18C569.292 585.954 573.56 575.811 573.56 563.75C573.56 554.349 570.374 546.463 564.004 540.093C557.695 533.722 549.593 530.537 539.697 530.537C528.441 530.537 518.576 534.774 510.103 543.247C501.691 551.72 497.485 561.709 497.485 573.213C497.485 582.738 500.64 590.685 506.948 597.056C513.319 603.364 521.452 606.519 531.348 606.519C542.48 606.519 552.284 602.406 560.757 594.18ZM591.001 516.807C577.58 504.375 560.788 498.159 540.625 498.159C519.225 498.159 500.423 505.921 484.219 521.445C468.014 536.969 459.912 554.998 459.912 575.532C459.912 592.912 466.623 607.817 480.044 620.249C493.465 632.619 510.257 638.804 530.42 638.804C544.336 638.804 557.51 635.186 569.941 627.949C582.435 620.713 592.424 611.157 599.907 599.282C607.391 587.345 611.133 574.728 611.133 561.431C611.133 544.051 604.422 529.176 591.001 516.807ZM599.061 598.749C606.451 586.962 610.133 574.528 610.133 561.431C610.133 544.346 603.551 529.733 590.323 517.542L590.321 517.54C577.105 505.298 560.564 499.159 540.625 499.159C519.497 499.159 500.939 506.812 484.911 522.167C468.883 537.522 460.912 555.298 460.912 575.532C460.912 592.616 467.494 607.26 480.722 619.514C493.938 631.695 510.48 637.804 530.42 637.804C544.153 637.804 557.154 634.236 569.438 627.085L569.44 627.084C581.798 619.926 591.666 610.483 599.061 598.749ZM712.256 635H742.871L770.981 501.963H734.893L719.121 576.089L677.373 501.963H646.572L618.462 635H654.551L670.137 560.874L712.256 635ZM653.739 634L669.702 558.084L712.838 634H742.06L769.748 502.963H735.702L719.548 578.885L676.789 502.963H647.383L619.695 634H653.739Z" fill="white"/>
<defs>
<filter id="filter0_f" x="-217.574" y="-8.92593" width="1088.49" height="828.389" filterUnits="userSpaceOnUse" color-interpolation-filters="sRGB">
<feFlood flood-opacity="0" result="BackgroundImageFix"/>
<feBlend mode="normal" in="SourceGraphic" in2="BackgroundImageFix" result="shape"/>
<feGaussianBlur stdDeviation="97" result="effect1_foregroundBlur"/>
</filter>
</defs>
</svg>
