<svg width="1209" height="750" viewBox="0 0 1209 750" fill="none" xmlns="http://www.w3.org/2000/svg">
<mask id="mask0" mask-type="alpha" maskUnits="userSpaceOnUse" x="0" y="0" width="1209" height="750">
<rect width="1209" height="750" fill="#252525"/>
</mask>
<g mask="url(#mask0)">
<g opacity="0.5" filter="url(#filter0_f)">
<ellipse cx="283.407" cy="446.989" rx="444" ry="35.7836" transform="rotate(-30 283.407 446.989)" fill="#F44D4D"/>
</g>
<g opacity="0.1" filter="url(#filter1_d)">
<path d="M-4.62109 125.963V124.963H-5.43129L-5.59934 125.755L-4.62109 125.963ZM105.594 125.963L106.572 126.17L106.828 124.963H105.594V125.963ZM98.7285 158.341V159.341H99.5387L99.7068 158.548L98.7285 158.341ZM61.7119 158.341V157.341H60.9017L60.7337 158.133L61.7119 158.341ZM40.374 259V260H41.1843L41.3523 259.207L40.374 259ZM4.28516 259L3.30689 258.793L3.05095 260H4.28516V259ZM25.623 158.341L26.6013 158.548L26.8573 157.341H25.623V158.341ZM-11.4863 158.341L-12.4646 158.133L-12.7206 159.341H-11.4863V158.341ZM-4.62109 126.963H105.594V124.963H-4.62109V126.963ZM104.615 125.755L97.7503 158.133L99.7068 158.548L106.572 126.17L104.615 125.755ZM98.7285 157.341H61.7119V159.341H98.7285V157.341ZM60.7337 158.133L39.3958 258.793L41.3523 259.207L62.6902 158.548L60.7337 158.133ZM40.374 258H4.28516V260H40.374V258ZM5.26342 259.207L26.6013 158.548L24.6448 158.133L3.30689 258.793L5.26342 259.207ZM25.623 157.341H-11.4863V159.341H25.623V157.341ZM-10.5081 158.548L-3.64284 126.17L-5.59934 125.755L-12.4646 158.133L-10.5081 158.548ZM96.502 259L95.5236 258.793L95.2686 260H96.502V259ZM124.612 125.963V124.963H123.802L123.634 125.756L124.612 125.963ZM215.809 197.027L216.509 197.741L216.516 197.734L215.809 197.027ZM206.346 205.006L206.919 205.825L206.922 205.823L206.346 205.006ZM198.46 209.366L198.136 208.42L198.128 208.423L198.12 208.426L198.46 209.366ZM195.12 210.572L194.78 209.632L193.844 209.97L194.178 210.908L195.12 210.572ZM212.376 259V260H213.794L213.318 258.664L212.376 259ZM175.174 259L174.225 259.316L174.453 260H175.174V259ZM161.258 217.159L162.207 216.844L161.979 216.159H161.258V217.159ZM141.312 217.159V216.159H140.498L140.333 216.955L141.312 217.159ZM132.591 259V260H133.404L133.57 259.204L132.591 259ZM185.101 180.699L185.727 181.479L185.101 180.699ZM186.863 161.681L186.156 162.388L186.166 162.398L186.176 162.407L186.863 161.681ZM153.836 158.341V157.341H153.027L152.858 158.132L153.836 158.341ZM148.177 184.874L147.199 184.665L146.941 185.874H148.177V184.874ZM97.4804 259.207L125.591 126.17L123.634 125.756L95.5236 258.793L97.4804 259.207ZM124.612 126.963H184.266V124.963H124.612V126.963ZM184.266 126.963C196.213 126.963 206.164 130.805 214.19 138.468L215.571 137.022C207.145 128.976 196.687 124.963 184.266 124.963V126.963ZM214.19 138.468C222.234 146.149 226.22 155.14 226.22 165.484H228.22C228.22 154.553 223.98 145.051 215.571 137.022L214.19 138.468ZM226.22 165.484C226.22 172.114 225.125 178.14 222.951 183.575L224.808 184.318C227.088 178.619 228.22 172.337 228.22 165.484H226.22ZM222.951 183.575C220.759 189.056 218.133 193.289 215.101 196.32L216.516 197.734C219.793 194.458 222.548 189.969 224.808 184.318L222.951 183.575ZM215.109 196.313C211.987 199.373 208.874 201.997 205.769 204.189L206.922 205.823C210.126 203.561 213.321 200.866 216.509 197.741L215.109 196.313ZM205.772 204.187C202.714 206.328 200.173 207.722 198.136 208.42L198.784 210.312C201.076 209.526 203.793 208.014 206.919 205.825L205.772 204.187ZM198.12 208.426L194.78 209.632L195.46 211.513L198.8 210.307L198.12 208.426ZM194.178 210.908L211.434 259.336L213.318 258.664L196.062 210.237L194.178 210.908ZM212.376 258H175.174V260H212.376V258ZM176.123 258.684L162.207 216.844L160.309 217.475L174.225 259.316L176.123 258.684ZM161.258 216.159H141.312V218.159H161.258V216.159ZM140.333 216.955L131.612 258.796L133.57 259.204L142.29 217.363L140.333 216.955ZM132.591 258H96.502V260H132.591V258ZM173.04 185.874C177.837 185.874 182.08 184.409 185.727 181.479L184.474 179.92C181.194 182.556 177.396 183.874 173.04 183.874V185.874ZM185.727 181.479C189.435 178.499 191.296 174.528 191.296 169.659H189.296C189.296 173.944 187.693 177.333 184.474 179.92L185.727 181.479ZM191.296 169.659C191.296 166.23 190.039 163.308 187.55 160.954L186.176 162.407C188.265 164.383 189.296 166.779 189.296 169.659H191.296ZM187.57 160.974C185.123 158.526 181.882 157.341 177.957 157.341V159.341C181.454 159.341 184.15 160.382 186.156 162.388L187.57 160.974ZM177.957 157.341H153.836V159.341H177.957V157.341ZM152.858 158.132L147.199 184.665L149.155 185.083L154.814 158.549L152.858 158.132ZM148.177 185.874H173.04V183.874H148.177V185.874ZM314.148 202.037V203.037H315.261L315.143 201.931L314.148 202.037ZM309.974 163.072L310.968 162.966L310.618 159.7L309.089 162.607L309.974 163.072ZM289.471 202.037L288.586 201.571L287.815 203.037H289.471V202.037ZM317.581 230.519L318.573 230.393L318.462 229.519H317.581V230.519ZM273.885 230.519V229.519H273.289L273.005 230.043L273.885 230.519ZM258.484 259V260H259.08L259.364 259.476L258.484 259ZM218.035 259L217.174 258.492L216.284 260H218.035V259ZM296.521 125.963V124.963H295.95L295.66 125.455L296.521 125.963ZM336.414 125.963L337.4 125.798L337.261 124.963H336.414V125.963ZM358.587 259V260H359.767L359.573 258.836L358.587 259ZM321.199 259L320.207 259.126L320.318 260H321.199V259ZM315.143 201.931L310.968 162.966L308.979 163.179L313.154 202.144L315.143 201.931ZM309.089 162.607L288.586 201.571L290.356 202.503L310.859 163.538L309.089 162.607ZM289.471 203.037H314.148V201.037H289.471V203.037ZM317.581 229.519H273.885V231.519H317.581V229.519ZM273.005 230.043L257.605 258.524L259.364 259.476L274.764 230.994L273.005 230.043ZM258.484 258H218.035V260H258.484V258ZM218.896 259.508L297.383 126.471L295.66 125.455L217.174 258.492L218.896 259.508ZM296.521 126.963H336.414V124.963H296.521V126.963ZM335.428 126.127L357.601 259.164L359.573 258.836L337.4 125.798L335.428 126.127ZM358.587 258H321.199V260H358.587V258ZM322.191 258.874L318.573 230.393L316.589 230.645L320.207 259.126L322.191 258.874ZM490.325 125.963V124.963H489.516L489.347 125.755L490.325 125.963ZM526.414 125.963L527.392 126.17L527.647 124.963H526.414V125.963ZM498.304 259V260H499.115L499.282 259.207L498.304 259ZM467.688 259L466.819 259.494L467.107 260H467.688V259ZM425.569 184.874L426.439 184.38L425.134 182.084L424.591 184.668L425.569 184.874ZM409.983 259V260H410.795L410.962 259.206L409.983 259ZM373.895 259L372.916 258.793L372.661 260H373.895V259ZM402.005 125.963V124.963H401.194L401.026 125.756L402.005 125.963ZM432.806 125.963L433.677 125.472L433.39 124.963H432.806V125.963ZM474.554 200.089L473.682 200.58L474.981 202.885L475.532 200.297L474.554 200.089ZM490.325 126.963H526.414V124.963H490.325V126.963ZM525.436 125.756L497.325 258.793L499.282 259.207L527.392 126.17L525.436 125.756ZM498.304 258H467.688V260H498.304V258ZM468.558 258.506L426.439 184.38L424.7 185.368L466.819 259.494L468.558 258.506ZM424.591 184.668L409.005 258.794L410.962 259.206L426.548 185.08L424.591 184.668ZM409.983 258H373.895V260H409.983V258ZM374.873 259.207L402.983 126.17L401.026 125.756L372.916 258.793L374.873 259.207ZM402.005 126.963H432.806V124.963H402.005V126.963ZM431.934 126.454L473.682 200.58L475.425 199.598L433.677 125.472L431.934 126.454ZM475.532 200.297L491.303 126.171L489.347 125.755L473.576 199.881L475.532 200.297ZM587.459 229.22L587.985 230.07L587.989 230.068L587.459 229.22ZM587.273 211.5L586.709 212.325L586.715 212.33L587.273 211.5ZM559.441 196.656L558.935 197.518L558.94 197.521L559.441 196.656ZM546.639 184.781L545.821 185.357L545.826 185.363L546.639 184.781ZM556.38 135.519L557.042 136.268L557.042 136.268L556.38 135.519ZM614.549 124.2L614.304 125.17L614.314 125.172L614.549 124.2ZM627.723 128.932L627.244 129.81L627.25 129.813L627.723 128.932ZM636.814 134.498L636.233 135.312L636.24 135.316L636.246 135.321L636.814 134.498ZM642.195 139.322L641.374 139.893L641.418 139.956L641.47 140.011L642.195 139.322ZM643.958 141.178L644.611 141.935L645.406 141.25L644.683 140.489L643.958 141.178ZM619.651 162.145L618.883 162.785L619.534 163.566L620.305 162.902L619.651 162.145ZM609.168 155.279L608.739 156.183L608.751 156.188L609.168 155.279ZM587.181 170.958L586.619 171.786L586.626 171.79L587.181 170.958ZM600.076 177.73L599.684 178.65L599.693 178.654L600.076 177.73ZM615.105 185.152L614.607 186.019L614.612 186.022L615.105 185.152ZM627.815 196.842L626.996 197.415L627.001 197.422L627.815 196.842ZM617.796 249.166L618.461 249.913L618.464 249.91L617.796 249.166ZM556.287 260.392L556.541 259.424L556.534 259.423L556.287 260.392ZM541.072 254.732L540.588 255.607L540.593 255.61L541.072 254.732ZM523.631 242.301L524.38 241.638L524.366 241.623L524.352 241.608L523.631 242.301ZM521.404 239.981L520.752 239.223L519.951 239.912L520.683 240.674L521.404 239.981ZM545.896 218.922L546.604 218.215L545.948 217.559L545.245 218.164L545.896 218.922ZM547.288 220.313L546.581 221.021L546.6 221.039L546.619 221.057L547.288 220.313ZM551.185 223.561L550.554 224.337L550.56 224.341L550.566 224.346L551.185 223.561ZM557.493 227.828L556.997 228.696L557.006 228.702L557.016 228.707L557.493 227.828ZM575.12 233.374C580.092 233.374 584.395 232.289 587.985 230.07L586.933 228.369C583.719 230.356 579.797 231.374 575.12 231.374V233.374ZM587.989 230.068C591.784 227.696 593.654 223.98 593.654 219.107H591.654C591.654 223.389 590.061 226.414 586.929 228.372L587.989 230.068ZM593.654 219.107C593.654 215.947 591.518 213.149 587.831 210.67L586.715 212.33C590.203 214.675 591.654 216.948 591.654 219.107H593.654ZM587.838 210.675C584.254 208.223 579.934 205.845 574.886 203.54L574.055 205.359C579.027 207.63 583.242 209.953 586.709 212.325L587.838 210.675ZM574.886 203.54C569.907 201.265 564.926 198.683 559.943 195.791L558.94 197.521C563.976 200.444 569.014 203.056 574.055 205.359L574.886 203.54ZM559.948 195.794C555.129 192.963 550.964 189.104 547.452 184.199L545.826 185.363C549.488 190.478 553.858 194.536 558.935 197.518L559.948 195.794ZM547.456 184.206C544.056 179.373 542.351 173.855 542.351 167.618H540.351C540.351 174.246 542.171 180.17 545.821 185.357L547.456 184.206ZM542.351 167.618C542.351 155.37 547.221 144.937 557.042 136.268L555.718 134.769C545.499 143.789 540.351 154.756 540.351 167.618H542.351ZM557.042 136.268C566.894 127.565 580.303 123.159 597.386 123.159V121.159C579.957 121.159 566.029 125.66 555.718 134.769L557.042 136.268ZM597.386 123.159C603.372 123.159 609.01 123.831 614.304 125.17L614.794 123.231C609.326 121.848 603.522 121.159 597.386 121.159V123.159ZM614.314 125.172C619.643 126.459 623.944 128.01 627.244 129.81L628.202 128.054C624.698 126.143 620.216 124.54 614.783 123.228L614.314 125.172ZM627.25 129.813C630.684 131.653 633.677 133.486 636.233 135.312L637.396 133.684C634.756 131.799 631.688 129.921 628.195 128.05L627.25 129.813ZM636.246 135.321C638.813 137.093 640.488 138.619 641.374 139.893L643.016 138.751C641.923 137.18 640.012 135.49 637.383 133.675L636.246 135.321ZM641.47 140.011L643.233 141.866L644.683 140.489L642.92 138.634L641.47 140.011ZM643.305 140.421L618.998 161.387L620.305 162.902L644.611 141.935L643.305 140.421ZM620.42 161.504C619.74 160.689 618.723 159.744 617.405 158.677L616.146 160.231C617.425 161.267 618.326 162.116 618.883 162.785L620.42 161.504ZM617.405 158.677C615.997 157.537 613.355 156.101 609.585 154.37L608.751 156.188C612.527 157.921 614.956 159.268 616.146 160.231L617.405 158.677ZM609.597 154.376C605.698 152.522 601.686 151.589 597.571 151.589V153.589C601.373 153.589 605.092 154.449 608.739 156.182L609.597 154.376ZM597.571 151.589C592.842 151.589 588.879 152.676 585.76 154.933L586.932 156.553C589.626 154.604 593.147 153.589 597.571 153.589V151.589ZM585.76 154.933C582.647 157.185 580.985 160.03 580.985 163.443H582.985C582.985 160.795 584.231 158.507 586.932 156.553L585.76 154.933ZM580.985 163.443C580.985 166.592 583.044 169.36 586.619 171.785L587.742 170.131C584.39 167.856 582.985 165.614 582.985 163.443H580.985ZM586.626 171.79C590.215 174.183 594.571 176.468 599.684 178.65L600.469 176.811C595.438 174.663 591.197 172.434 587.735 170.126L586.626 171.79ZM599.693 178.654C604.724 180.74 609.695 183.195 614.607 186.019L615.604 184.285C610.62 181.42 605.572 178.927 600.459 176.807L599.693 178.654ZM614.612 186.022C619.486 188.79 623.614 192.583 626.996 197.415L628.635 196.268C625.09 191.205 620.744 187.205 615.599 184.283L614.612 186.022ZM627.001 197.422C630.397 202.189 632.104 207.704 632.104 214.005H634.104C634.104 207.318 632.284 201.391 628.63 196.262L627.001 197.422ZM632.104 214.005C632.104 228.022 627.112 239.467 617.128 248.422L618.464 249.91C628.89 240.558 634.104 228.562 634.104 214.005H632.104ZM617.131 248.419C607.162 257.301 593.263 261.804 575.306 261.804V263.804C593.591 263.804 608.02 259.215 618.461 249.913L617.131 248.419ZM575.306 261.804C568.832 261.804 562.578 261.01 556.541 259.424L556.033 261.359C562.242 262.989 568.667 263.804 575.306 263.804V261.804ZM556.534 259.423C550.528 257.89 545.54 256.03 541.551 253.855L540.593 255.61C544.769 257.888 549.924 259.8 556.04 261.361L556.534 259.423ZM541.557 253.858C537.564 251.646 534.042 249.441 530.988 247.241L529.819 248.864C532.949 251.118 536.54 253.365 540.588 255.607L541.557 253.858ZM530.988 247.241C527.917 245.03 525.729 243.164 524.38 241.638L522.882 242.963C524.377 244.654 526.705 246.622 529.819 248.864L530.988 247.241ZM524.352 241.608L522.126 239.289L520.683 240.674L522.909 242.993L524.352 241.608ZM522.056 240.74L546.548 219.68L545.245 218.164L520.752 239.223L522.056 240.74ZM545.189 219.629C545.19 219.63 545.191 219.63 545.192 219.631C545.192 219.632 545.193 219.633 545.194 219.633C545.194 219.634 545.195 219.635 545.196 219.636C545.197 219.636 545.197 219.637 545.198 219.638C545.199 219.638 545.2 219.639 545.2 219.64C545.201 219.641 545.202 219.641 545.202 219.642C545.203 219.643 545.204 219.644 545.205 219.644C545.205 219.645 545.206 219.646 545.207 219.646C545.208 219.647 545.208 219.648 545.209 219.649C545.21 219.649 545.211 219.65 545.211 219.651C545.212 219.652 545.213 219.652 545.213 219.653C545.214 219.654 545.215 219.654 545.216 219.655C545.216 219.656 545.217 219.657 545.218 219.657C545.219 219.658 545.219 219.659 545.22 219.66C545.221 219.66 545.221 219.661 545.222 219.662C545.223 219.663 545.224 219.663 545.224 219.664C545.225 219.665 545.226 219.666 545.227 219.666C545.227 219.667 545.228 219.668 545.229 219.668C545.23 219.669 545.23 219.67 545.231 219.671C545.232 219.671 545.233 219.672 545.233 219.673C545.234 219.674 545.235 219.674 545.236 219.675C545.236 219.676 545.237 219.677 545.238 219.677C545.238 219.678 545.239 219.679 545.24 219.68C545.241 219.68 545.241 219.681 545.242 219.682C545.243 219.683 545.244 219.683 545.244 219.684C545.245 219.685 545.246 219.685 545.247 219.686C545.247 219.687 545.248 219.688 545.249 219.688C545.25 219.689 545.25 219.69 545.251 219.691C545.252 219.691 545.253 219.692 545.253 219.693C545.254 219.694 545.255 219.694 545.256 219.695C545.256 219.696 545.257 219.697 545.258 219.697C545.259 219.698 545.259 219.699 545.26 219.7C545.261 219.7 545.262 219.701 545.262 219.702C545.263 219.703 545.264 219.703 545.265 219.704C545.265 219.705 545.266 219.706 545.267 219.706C545.268 219.707 545.268 219.708 545.269 219.709C545.27 219.709 545.271 219.71 545.271 219.711C545.272 219.712 545.273 219.712 545.274 219.713C545.274 219.714 545.275 219.715 545.276 219.715C545.277 219.716 545.277 219.717 545.278 219.718C545.279 219.718 545.28 219.719 545.28 219.72C545.281 219.721 545.282 219.721 545.283 219.722C545.283 219.723 545.284 219.724 545.285 219.724C545.286 219.725 545.286 219.726 545.287 219.727C545.288 219.727 545.289 219.728 545.289 219.729C545.29 219.73 545.291 219.73 545.292 219.731C545.292 219.732 545.293 219.733 545.294 219.734C545.295 219.734 545.295 219.735 545.296 219.736C545.297 219.737 545.298 219.737 545.298 219.738C545.299 219.739 545.3 219.74 545.301 219.74C545.302 219.741 545.302 219.742 545.303 219.743C545.304 219.743 545.305 219.744 545.305 219.745C545.306 219.746 545.307 219.746 545.308 219.747C545.308 219.748 545.309 219.749 545.31 219.749C545.311 219.75 545.311 219.751 545.312 219.752C545.313 219.753 545.314 219.753 545.314 219.754C545.315 219.755 545.316 219.756 545.317 219.756C545.318 219.757 545.318 219.758 545.319 219.759C545.32 219.759 545.321 219.76 545.321 219.761C545.322 219.762 545.323 219.762 545.324 219.763C545.324 219.764 545.325 219.765 545.326 219.766C545.327 219.766 545.328 219.767 545.328 219.768C545.329 219.769 545.33 219.769 545.331 219.77C545.331 219.771 545.332 219.772 545.333 219.772C545.334 219.773 545.334 219.774 545.335 219.775C545.336 219.776 545.337 219.776 545.338 219.777C545.338 219.778 545.339 219.779 545.34 219.779C545.341 219.78 545.341 219.781 545.342 219.782C545.343 219.783 545.344 219.783 545.344 219.784C545.345 219.785 545.346 219.786 545.347 219.786C545.348 219.787 545.348 219.788 545.349 219.789C545.35 219.789 545.351 219.79 545.351 219.791C545.352 219.792 545.353 219.793 545.354 219.793C545.355 219.794 545.355 219.795 545.356 219.796C545.357 219.796 545.358 219.797 545.358 219.798C545.359 219.799 545.36 219.8 545.361 219.8C545.362 219.801 545.362 219.802 545.363 219.803C545.364 219.803 545.365 219.804 545.365 219.805C545.366 219.806 545.367 219.807 545.368 219.807C545.369 219.808 545.369 219.809 545.37 219.81C545.371 219.811 545.372 219.811 545.372 219.812C545.373 219.813 545.374 219.814 545.375 219.814C545.376 219.815 545.376 219.816 545.377 219.817C545.378 219.818 545.379 219.818 545.38 219.819C545.38 219.82 545.381 219.821 545.382 219.821C545.383 219.822 545.383 219.823 545.384 219.824C545.385 219.825 545.386 219.825 545.387 219.826C545.387 219.827 545.388 219.828 545.389 219.829C545.39 219.829 545.391 219.83 545.391 219.831C545.392 219.832 545.393 219.832 545.394 219.833C545.394 219.834 545.395 219.835 545.396 219.836C545.397 219.836 545.398 219.837 545.398 219.838C545.399 219.839 545.4 219.84 545.401 219.84C545.402 219.841 545.402 219.842 545.403 219.843C545.404 219.844 545.405 219.844 545.406 219.845C545.406 219.846 545.407 219.847 545.408 219.848C545.409 219.848 545.409 219.849 545.41 219.85C545.411 219.851 545.412 219.851 545.413 219.852C545.413 219.853 545.414 219.854 545.415 219.855C545.416 219.855 545.417 219.856 545.417 219.857C545.418 219.858 545.419 219.859 545.42 219.859C545.421 219.86 545.421 219.861 545.422 219.862C545.423 219.863 545.424 219.863 545.425 219.864C545.425 219.865 545.426 219.866 545.427 219.867C545.428 219.867 545.429 219.868 545.429 219.869C545.43 219.87 545.431 219.871 545.432 219.871C545.433 219.872 545.433 219.873 545.434 219.874C545.435 219.875 545.436 219.875 545.437 219.876C545.437 219.877 545.438 219.878 545.439 219.879C545.44 219.879 545.441 219.88 545.441 219.881C545.442 219.882 545.443 219.883 545.444 219.883C545.445 219.884 545.445 219.885 545.446 219.886C545.447 219.887 545.448 219.887 545.449 219.888C545.449 219.889 545.45 219.89 545.451 219.891C545.452 219.891 545.453 219.892 545.453 219.893C545.454 219.894 545.455 219.895 545.456 219.895C545.457 219.896 545.458 219.897 545.458 219.898C545.459 219.899 545.46 219.9 545.461 219.9C545.462 219.901 545.462 219.902 545.463 219.903C545.464 219.904 545.465 219.904 545.466 219.905C545.466 219.906 545.467 219.907 545.468 219.908C545.469 219.908 545.47 219.909 545.47 219.91C545.471 219.911 545.472 219.912 545.473 219.912C545.474 219.913 545.474 219.914 545.475 219.915C545.476 219.916 545.477 219.917 545.478 219.917C545.479 219.918 545.479 219.919 545.48 219.92C545.481 219.921 545.482 219.921 545.483 219.922C545.483 219.923 545.484 219.924 545.485 219.925C545.486 219.926 545.487 219.926 545.488 219.927C545.488 219.928 545.489 219.929 545.49 219.93C545.491 219.93 545.492 219.931 545.492 219.932C545.493 219.933 545.494 219.934 545.495 219.934C545.496 219.935 545.497 219.936 545.497 219.937C545.498 219.938 545.499 219.939 545.5 219.939C545.501 219.94 545.501 219.941 545.502 219.942C545.503 219.943 545.504 219.944 545.505 219.944C545.506 219.945 545.506 219.946 545.507 219.947C545.508 219.948 545.509 219.948 545.51 219.949C545.51 219.95 545.511 219.951 545.512 219.952C545.513 219.953 545.514 219.953 545.515 219.954C545.515 219.955 545.516 219.956 545.517 219.957C545.518 219.958 545.519 219.958 545.52 219.959C545.52 219.96 545.521 219.961 545.522 219.962C545.523 219.962 545.524 219.963 545.524 219.964C545.525 219.965 545.526 219.966 545.527 219.967C545.528 219.967 545.529 219.968 545.529 219.969C545.53 219.97 545.531 219.971 545.532 219.972C545.533 219.972 545.534 219.973 545.534 219.974C545.535 219.975 545.536 219.976 545.537 219.977C545.538 219.977 545.539 219.978 545.539 219.979C545.54 219.98 545.541 219.981 545.542 219.982C545.543 219.982 545.544 219.983 545.544 219.984C545.545 219.985 545.546 219.986 545.547 219.987C545.548 219.987 545.549 219.988 545.549 219.989C545.55 219.99 545.551 219.991 545.552 219.992C545.553 219.992 545.554 219.993 545.554 219.994C545.555 219.995 545.556 219.996 545.557 219.997C545.558 219.997 545.559 219.998 545.559 219.999C545.56 220 545.561 220.001 545.562 220.002C545.563 220.002 545.564 220.003 545.564 220.004C545.565 220.005 545.566 220.006 545.567 220.007C545.568 220.007 545.569 220.008 545.57 220.009C545.57 220.01 545.571 220.011 545.572 220.012C545.573 220.012 545.574 220.013 545.575 220.014C545.575 220.015 545.576 220.016 545.577 220.017C545.578 220.018 545.579 220.018 545.58 220.019C545.58 220.02 545.581 220.021 545.582 220.022C545.583 220.023 545.584 220.023 545.585 220.024C545.586 220.025 545.586 220.026 545.587 220.027C545.588 220.028 545.589 220.028 545.59 220.029C545.591 220.03 545.591 220.031 545.592 220.032C545.593 220.033 545.594 220.034 545.595 220.034C545.596 220.035 545.596 220.036 545.597 220.037C545.598 220.038 545.599 220.039 545.6 220.039C545.601 220.04 545.602 220.041 545.602 220.042C545.603 220.043 545.604 220.044 545.605 220.045C545.606 220.045 545.607 220.046 545.607 220.047C545.608 220.048 545.609 220.049 545.61 220.05C545.611 220.051 545.612 220.051 545.613 220.052C545.613 220.053 545.614 220.054 545.615 220.055C545.616 220.056 545.617 220.056 545.618 220.057C545.619 220.058 545.619 220.059 545.62 220.06C545.621 220.061 545.622 220.062 545.623 220.062C545.624 220.063 545.625 220.064 545.625 220.065C545.626 220.066 545.627 220.067 545.628 220.068C545.629 220.068 545.63 220.069 545.631 220.07C545.631 220.071 545.632 220.072 545.633 220.073C545.634 220.074 545.635 220.074 545.636 220.075C545.637 220.076 545.637 220.077 545.638 220.078C545.639 220.079 545.64 220.08 545.641 220.08C545.642 220.081 545.643 220.082 545.643 220.083C545.644 220.084 545.645 220.085 545.646 220.086C545.647 220.086 545.648 220.087 545.649 220.088C545.649 220.089 545.65 220.09 545.651 220.091C545.652 220.092 545.653 220.092 545.654 220.093C545.655 220.094 545.655 220.095 545.656 220.096C545.657 220.097 545.658 220.098 545.659 220.099C545.66 220.099 545.661 220.1 545.661 220.101C545.662 220.102 545.663 220.103 545.664 220.104C545.665 220.105 545.666 220.105 545.667 220.106C545.668 220.107 545.668 220.108 545.669 220.109C545.67 220.11 545.671 220.111 545.672 220.112C545.673 220.112 545.674 220.113 545.674 220.114C545.675 220.115 545.676 220.116 545.677 220.117C545.678 220.118 545.679 220.118 545.68 220.119C545.681 220.12 545.681 220.121 545.682 220.122C545.683 220.123 545.684 220.124 545.685 220.125C545.686 220.125 545.687 220.126 545.688 220.127C545.688 220.128 545.689 220.129 545.69 220.13C545.691 220.131 545.692 220.132 545.693 220.132C545.694 220.133 545.695 220.134 545.695 220.135C545.696 220.136 545.697 220.137 545.698 220.138C545.699 220.139 545.7 220.139 545.701 220.14C545.702 220.141 545.702 220.142 545.703 220.143C545.704 220.144 545.705 220.145 545.706 220.146C545.707 220.146 545.708 220.147 545.709 220.148C545.709 220.149 545.71 220.15 545.711 220.151C545.712 220.152 545.713 220.153 545.714 220.153C545.715 220.154 545.716 220.155 545.716 220.156C545.717 220.157 545.718 220.158 545.719 220.159C545.72 220.16 545.721 220.16 545.722 220.161C545.723 220.162 545.724 220.163 545.724 220.164C545.725 220.165 545.726 220.166 545.727 220.167C545.728 220.168 545.729 220.168 545.73 220.169C545.731 220.17 545.732 220.171 545.732 220.172C545.733 220.173 545.734 220.174 545.735 220.175C545.736 220.176 545.737 220.176 545.738 220.177C545.739 220.178 545.739 220.179 545.74 220.18C545.741 220.181 545.742 220.182 545.743 220.183C545.744 220.183 545.745 220.184 545.746 220.185C545.747 220.186 545.747 220.187 545.748 220.188C545.749 220.189 545.75 220.19 545.751 220.191C545.752 220.191 545.753 220.192 545.754 220.193C545.755 220.194 545.755 220.195 545.756 220.196C545.757 220.197 545.758 220.198 545.759 220.199C545.76 220.199 545.761 220.2 545.762 220.201C545.763 220.202 545.763 220.203 545.764 220.204C545.765 220.205 545.766 220.206 545.767 220.207C545.768 220.208 545.769 220.208 545.77 220.209C545.771 220.21 545.771 220.211 545.772 220.212C545.773 220.213 545.774 220.214 545.775 220.215C545.776 220.216 545.777 220.216 545.778 220.217C545.779 220.218 545.78 220.219 545.78 220.22C545.781 220.221 545.782 220.222 545.783 220.223C545.784 220.224 545.785 220.225 545.786 220.225C545.787 220.226 545.788 220.227 545.789 220.228C545.789 220.229 545.79 220.23 545.791 220.231C545.792 220.232 545.793 220.233 545.794 220.234C545.795 220.234 545.796 220.235 545.797 220.236C545.798 220.237 545.798 220.238 545.799 220.239C545.8 220.24 545.801 220.241 545.802 220.242C545.803 220.243 545.804 220.243 545.805 220.244C545.806 220.245 545.807 220.246 545.807 220.247C545.808 220.248 545.809 220.249 545.81 220.25C545.811 220.251 545.812 220.252 545.813 220.252C545.814 220.253 545.815 220.254 545.816 220.255C545.817 220.256 545.817 220.257 545.818 220.258C545.819 220.259 545.82 220.26 545.821 220.261C545.822 220.262 545.823 220.262 545.824 220.263C545.825 220.264 545.826 220.265 545.826 220.266C545.827 220.267 545.828 220.268 545.829 220.269C545.83 220.27 545.831 220.271 545.832 220.272C545.833 220.272 545.834 220.273 545.835 220.274C545.836 220.275 545.836 220.276 545.837 220.277C545.838 220.278 545.839 220.279 545.84 220.28C545.841 220.281 545.842 220.282 545.843 220.282C545.844 220.283 545.845 220.284 545.846 220.285C545.847 220.286 545.847 220.287 545.848 220.288C545.849 220.289 545.85 220.29 545.851 220.291C545.852 220.292 545.853 220.293 545.854 220.293C545.855 220.294 545.856 220.295 545.857 220.296C545.858 220.297 545.858 220.298 545.859 220.299C545.86 220.3 545.861 220.301 545.862 220.302C545.863 220.303 545.864 220.304 545.865 220.304C545.866 220.305 545.867 220.306 545.868 220.307C545.869 220.308 545.869 220.309 545.87 220.31C545.871 220.311 545.872 220.312 545.873 220.313C545.874 220.314 545.875 220.315 545.876 220.316C545.877 220.316 545.878 220.317 545.879 220.318C545.88 220.319 545.88 220.32 545.881 220.321C545.882 220.322 545.883 220.323 545.884 220.324C545.885 220.325 545.886 220.326 545.887 220.327C545.888 220.328 545.889 220.328 545.89 220.329C545.891 220.33 545.892 220.331 545.893 220.332C545.893 220.333 545.894 220.334 545.895 220.335C545.896 220.336 545.897 220.337 545.898 220.338C545.899 220.339 545.9 220.34 545.901 220.34C545.902 220.341 545.903 220.342 545.904 220.343C545.905 220.344 545.906 220.345 545.906 220.346C545.907 220.347 545.908 220.348 545.909 220.349C545.91 220.35 545.911 220.351 545.912 220.352C545.913 220.353 545.914 220.354 545.915 220.354C545.916 220.355 545.917 220.356 545.918 220.357C545.919 220.358 545.919 220.359 545.92 220.36C545.921 220.361 545.922 220.362 545.923 220.363C545.924 220.364 545.925 220.365 545.926 220.366C545.927 220.367 545.928 220.367 545.929 220.368C545.93 220.369 545.931 220.37 545.932 220.371C545.933 220.372 545.933 220.373 545.934 220.374C545.935 220.375 545.936 220.376 545.937 220.377C545.938 220.378 545.939 220.379 545.94 220.38C545.941 220.381 545.942 220.382 545.943 220.382C545.944 220.383 545.945 220.384 545.946 220.385C545.947 220.386 545.948 220.387 545.948 220.388C545.949 220.389 545.95 220.39 545.951 220.391C545.952 220.392 545.953 220.393 545.954 220.394C545.955 220.395 545.956 220.396 545.957 220.397C545.958 220.398 545.959 220.398 545.96 220.399C545.961 220.4 545.962 220.401 545.963 220.402C545.964 220.403 545.965 220.404 545.965 220.405C545.966 220.406 545.967 220.407 545.968 220.408C545.969 220.409 545.97 220.41 545.971 220.411C545.972 220.412 545.973 220.413 545.974 220.414C545.975 220.415 545.976 220.415 545.977 220.416C545.978 220.417 545.979 220.418 545.98 220.419C545.981 220.42 545.982 220.421 545.982 220.422C545.983 220.423 545.984 220.424 545.985 220.425C545.986 220.426 545.987 220.427 545.988 220.428C545.989 220.429 545.99 220.43 545.991 220.431C545.992 220.432 545.993 220.433 545.994 220.434C545.995 220.434 545.996 220.435 545.997 220.436C545.998 220.437 545.999 220.438 546 220.439C546.001 220.44 546.002 220.441 546.002 220.442C546.003 220.443 546.004 220.444 546.005 220.445C546.006 220.446 546.007 220.447 546.008 220.448C546.009 220.449 546.01 220.45 546.011 220.451C546.012 220.452 546.013 220.453 546.014 220.454C546.015 220.454 546.016 220.455 546.017 220.456C546.018 220.457 546.019 220.458 546.02 220.459C546.021 220.46 546.022 220.461 546.023 220.462C546.023 220.463 546.024 220.464 546.025 220.465C546.026 220.466 546.027 220.467 546.028 220.468C546.029 220.469 546.03 220.47 546.031 220.471C546.032 220.472 546.033 220.473 546.034 220.474C546.035 220.475 546.036 220.476 546.037 220.477C546.038 220.478 546.039 220.478 546.04 220.479C546.041 220.48 546.042 220.481 546.043 220.482C546.044 220.483 546.045 220.484 546.046 220.485C546.047 220.486 546.048 220.487 546.049 220.488C546.049 220.489 546.05 220.49 546.051 220.491C546.052 220.492 546.053 220.493 546.054 220.494C546.055 220.495 546.056 220.496 546.057 220.497C546.058 220.498 546.059 220.499 546.06 220.5C546.061 220.501 546.062 220.502 546.063 220.503C546.064 220.504 546.065 220.505 546.066 220.506C546.067 220.506 546.068 220.507 546.069 220.508C546.07 220.509 546.071 220.51 546.072 220.511C546.073 220.512 546.074 220.513 546.075 220.514C546.076 220.515 546.077 220.516 546.078 220.517C546.079 220.518 546.079 220.519 546.08 220.52C546.081 220.521 546.082 220.522 546.083 220.523C546.084 220.524 546.085 220.525 546.086 220.526C546.087 220.527 546.088 220.528 546.089 220.529C546.09 220.53 546.091 220.531 546.092 220.532C546.093 220.533 546.094 220.534 546.095 220.535C546.096 220.536 546.097 220.537 546.098 220.538C546.099 220.539 546.1 220.54 546.101 220.541C546.102 220.542 546.103 220.543 546.104 220.543C546.105 220.544 546.106 220.545 546.107 220.546C546.108 220.547 546.109 220.548 546.11 220.549C546.111 220.55 546.112 220.551 546.113 220.552C546.114 220.553 546.115 220.554 546.116 220.555C546.117 220.556 546.118 220.557 546.119 220.558C546.12 220.559 546.121 220.56 546.122 220.561C546.122 220.562 546.123 220.563 546.124 220.564C546.125 220.565 546.126 220.566 546.127 220.567C546.128 220.568 546.129 220.569 546.13 220.57C546.131 220.571 546.132 220.572 546.133 220.573C546.134 220.574 546.135 220.575 546.136 220.576C546.137 220.577 546.138 220.578 546.139 220.579C546.14 220.58 546.141 220.581 546.142 220.582C546.143 220.583 546.144 220.584 546.145 220.585C546.146 220.586 546.147 220.587 546.148 220.588C546.149 220.589 546.15 220.59 546.151 220.591C546.152 220.592 546.153 220.593 546.154 220.594C546.155 220.595 546.156 220.596 546.157 220.597C546.158 220.598 546.159 220.599 546.16 220.6C546.161 220.601 546.162 220.602 546.163 220.603C546.164 220.604 546.165 220.605 546.166 220.606C546.167 220.607 546.168 220.608 546.169 220.609C546.17 220.61 546.171 220.611 546.172 220.612C546.173 220.613 546.174 220.614 546.175 220.615C546.176 220.616 546.177 220.617 546.178 220.618C546.179 220.618 546.18 220.62 546.181 220.62C546.182 220.621 546.183 220.622 546.184 220.623C546.185 220.624 546.186 220.625 546.187 220.626C546.188 220.627 546.189 220.628 546.19 220.629C546.191 220.63 546.192 220.631 546.193 220.632C546.194 220.633 546.195 220.634 546.196 220.635C546.197 220.636 546.198 220.637 546.199 220.638C546.2 220.639 546.201 220.64 546.202 220.641C546.203 220.642 546.204 220.643 546.205 220.644C546.206 220.645 546.207 220.646 546.208 220.647C546.209 220.648 546.21 220.65 546.211 220.65C546.212 220.652 546.213 220.653 546.214 220.654C546.215 220.655 546.216 220.656 546.217 220.657C546.218 220.658 546.219 220.659 546.22 220.66C546.221 220.661 546.222 220.662 546.223 220.663C546.224 220.664 546.225 220.665 546.226 220.666C546.227 220.667 546.228 220.668 546.229 220.669C546.23 220.67 546.231 220.671 546.232 220.672C546.233 220.673 546.234 220.674 546.235 220.675C546.236 220.676 546.237 220.677 546.238 220.678C546.239 220.679 546.24 220.68 546.241 220.681C546.242 220.682 546.243 220.683 546.244 220.684C546.245 220.685 546.246 220.686 546.247 220.687C546.248 220.688 546.249 220.689 546.25 220.69C546.251 220.691 546.252 220.692 546.253 220.693C546.254 220.694 546.255 220.695 546.256 220.696C546.257 220.697 546.258 220.698 546.259 220.699C546.26 220.7 546.261 220.701 546.262 220.702C546.263 220.703 546.264 220.704 546.265 220.705C546.266 220.706 546.267 220.707 546.268 220.708C546.27 220.709 546.271 220.71 546.272 220.711C546.273 220.712 546.274 220.713 546.275 220.714C546.276 220.715 546.277 220.716 546.278 220.717C546.279 220.718 546.28 220.719 546.281 220.72C546.282 220.721 546.283 220.722 546.284 220.723C546.285 220.724 546.286 220.725 546.287 220.726C546.288 220.727 546.289 220.728 546.29 220.73C546.291 220.731 546.292 220.732 546.293 220.733C546.294 220.734 546.295 220.735 546.296 220.736C546.297 220.737 546.298 220.738 546.299 220.739C546.3 220.74 546.301 220.741 546.302 220.742C546.303 220.743 546.304 220.744 546.305 220.745C546.306 220.746 546.307 220.747 546.308 220.748C546.309 220.749 546.31 220.75 546.311 220.751C546.312 220.752 546.313 220.753 546.315 220.754C546.316 220.755 546.317 220.756 546.318 220.757C546.319 220.758 546.32 220.759 546.321 220.76C546.322 220.761 546.323 220.762 546.324 220.763C546.325 220.764 546.326 220.765 546.327 220.766C546.328 220.767 546.329 220.769 546.33 220.77C546.331 220.771 546.332 220.772 546.333 220.773C546.334 220.774 546.335 220.775 546.336 220.776C546.337 220.777 546.338 220.778 546.339 220.779C546.34 220.78 546.341 220.781 546.342 220.782C546.343 220.783 546.344 220.784 546.345 220.785C546.346 220.786 546.348 220.787 546.349 220.788C546.35 220.789 546.351 220.79 546.352 220.791C546.353 220.792 546.354 220.793 546.355 220.794C546.356 220.795 546.357 220.796 546.358 220.797C546.359 220.799 546.36 220.8 546.361 220.801C546.362 220.802 546.363 220.803 546.364 220.804C546.365 220.805 546.366 220.806 546.367 220.807C546.368 220.808 546.369 220.809 546.37 220.81C546.371 220.811 546.372 220.812 546.373 220.813C546.375 220.814 546.376 220.815 546.377 220.816C546.378 220.817 546.379 220.818 546.38 220.819C546.381 220.82 546.382 220.821 546.383 220.822C546.384 220.823 546.385 220.825 546.386 220.826C546.387 220.827 546.388 220.828 546.389 220.829C546.39 220.83 546.391 220.831 546.392 220.832C546.393 220.833 546.394 220.834 546.395 220.835C546.396 220.836 546.397 220.837 546.398 220.838C546.4 220.839 546.401 220.84 546.402 220.841C546.403 220.842 546.404 220.843 546.405 220.844C546.406 220.845 546.407 220.847 546.408 220.848C546.409 220.849 546.41 220.85 546.411 220.851C546.412 220.852 546.413 220.853 546.414 220.854C546.415 220.855 546.416 220.856 546.417 220.857C546.418 220.858 546.419 220.859 546.421 220.86C546.422 220.861 546.423 220.862 546.424 220.863C546.425 220.864 546.426 220.865 546.427 220.866C546.428 220.868 546.429 220.869 546.43 220.87C546.431 220.871 546.432 220.872 546.433 220.873C546.434 220.874 546.435 220.875 546.436 220.876C546.437 220.877 546.438 220.878 546.44 220.879C546.441 220.88 546.442 220.881 546.443 220.882C546.444 220.883 546.445 220.884 546.446 220.885C546.447 220.887 546.448 220.888 546.449 220.889C546.45 220.89 546.451 220.891 546.452 220.892C546.453 220.893 546.454 220.894 546.455 220.895C546.456 220.896 546.458 220.897 546.459 220.898C546.46 220.899 546.461 220.9 546.462 220.901C546.463 220.902 546.464 220.903 546.465 220.905C546.466 220.906 546.467 220.907 546.468 220.908C546.469 220.909 546.47 220.91 546.471 220.911C546.472 220.912 546.473 220.913 546.474 220.914C546.476 220.915 546.477 220.916 546.478 220.917C546.479 220.918 546.48 220.919 546.481 220.921C546.482 220.922 546.483 220.923 546.484 220.924C546.485 220.925 546.486 220.926 546.487 220.927C546.488 220.928 546.489 220.929 546.49 220.93C546.492 220.931 546.493 220.932 546.494 220.933C546.495 220.934 546.496 220.935 546.497 220.936C546.498 220.938 546.499 220.939 546.5 220.94C546.501 220.941 546.502 220.942 546.503 220.943C546.504 220.944 546.505 220.945 546.507 220.946C546.508 220.947 546.509 220.948 546.51 220.949C546.511 220.95 546.512 220.951 546.513 220.953C546.514 220.954 546.515 220.955 546.516 220.956C546.517 220.957 546.518 220.958 546.519 220.959C546.52 220.96 546.522 220.961 546.523 220.962C546.524 220.963 546.525 220.964 546.526 220.965C546.527 220.967 546.528 220.968 546.529 220.969C546.53 220.97 546.531 220.971 546.532 220.972C546.533 220.973 546.534 220.974 546.536 220.975C546.537 220.976 546.538 220.977 546.539 220.978C546.54 220.979 546.541 220.981 546.542 220.982C546.543 220.983 546.544 220.984 546.545 220.985C546.546 220.986 546.547 220.987 546.548 220.988C546.55 220.989 546.551 220.99 546.552 220.991C546.553 220.992 546.554 220.993 546.555 220.995C546.556 220.996 546.557 220.997 546.558 220.998C546.559 220.999 546.56 221 546.561 221.001C546.563 221.002 546.564 221.003 546.565 221.004C546.566 221.005 546.567 221.006 546.568 221.008C546.569 221.009 546.57 221.01 546.571 221.011C546.572 221.012 546.573 221.013 546.574 221.014C546.576 221.015 546.577 221.016 546.578 221.017C546.579 221.018 546.58 221.02 546.581 221.021L547.995 219.606C547.994 219.605 547.993 219.604 547.992 219.603C547.991 219.602 547.99 219.601 547.989 219.6C547.988 219.599 547.987 219.598 547.985 219.597C547.984 219.596 547.983 219.594 547.982 219.593C547.981 219.592 547.98 219.591 547.979 219.59C547.978 219.589 547.977 219.588 547.976 219.587C547.975 219.586 547.974 219.585 547.972 219.584C547.971 219.583 547.97 219.581 547.969 219.58C547.968 219.579 547.967 219.578 547.966 219.577C547.965 219.576 547.964 219.575 547.963 219.574C547.962 219.573 547.961 219.572 547.959 219.571C547.958 219.57 547.957 219.568 547.956 219.567C547.955 219.566 547.954 219.565 547.953 219.564C547.952 219.563 547.951 219.562 547.95 219.561C547.949 219.56 547.948 219.559 547.947 219.558C547.945 219.557 547.944 219.556 547.943 219.554C547.942 219.553 547.941 219.552 547.94 219.551C547.939 219.55 547.938 219.549 547.937 219.548C547.936 219.547 547.935 219.546 547.934 219.545C547.933 219.544 547.931 219.543 547.93 219.542C547.929 219.54 547.928 219.539 547.927 219.538C547.926 219.537 547.925 219.536 547.924 219.535C547.923 219.534 547.922 219.533 547.921 219.532C547.92 219.531 547.919 219.53 547.918 219.529C547.916 219.528 547.915 219.527 547.914 219.525C547.913 219.524 547.912 219.523 547.911 219.522C547.91 219.521 547.909 219.52 547.908 219.519C547.907 219.518 547.906 219.517 547.905 219.516C547.904 219.515 547.903 219.514 547.901 219.513C547.9 219.512 547.899 219.511 547.898 219.509C547.897 219.508 547.896 219.507 547.895 219.506C547.894 219.505 547.893 219.504 547.892 219.503C547.891 219.502 547.89 219.501 547.889 219.5C547.888 219.499 547.887 219.498 547.885 219.497C547.884 219.496 547.883 219.495 547.882 219.494C547.881 219.492 547.88 219.491 547.879 219.49C547.878 219.489 547.877 219.488 547.876 219.487C547.875 219.486 547.874 219.485 547.873 219.484C547.872 219.483 547.871 219.482 547.87 219.481C547.869 219.48 547.867 219.479 547.866 219.478C547.865 219.477 547.864 219.475 547.863 219.474C547.862 219.473 547.861 219.472 547.86 219.471C547.859 219.47 547.858 219.469 547.857 219.468C547.856 219.467 547.855 219.466 547.854 219.465C547.853 219.464 547.852 219.463 547.851 219.462C547.849 219.461 547.848 219.46 547.847 219.459C547.846 219.458 547.845 219.456 547.844 219.455C547.843 219.454 547.842 219.453 547.841 219.452C547.84 219.451 547.839 219.45 547.838 219.449C547.837 219.448 547.836 219.447 547.835 219.446C547.834 219.445 547.833 219.444 547.832 219.443C547.831 219.442 547.83 219.441 547.828 219.44C547.827 219.439 547.826 219.438 547.825 219.436C547.824 219.435 547.823 219.434 547.822 219.433C547.821 219.432 547.82 219.431 547.819 219.43C547.818 219.429 547.817 219.428 547.816 219.427C547.815 219.426 547.814 219.425 547.813 219.424C547.812 219.423 547.811 219.422 547.81 219.421C547.809 219.42 547.807 219.419 547.806 219.418C547.805 219.417 547.804 219.416 547.803 219.415C547.802 219.413 547.801 219.412 547.8 219.411C547.799 219.41 547.798 219.409 547.797 219.408C547.796 219.407 547.795 219.406 547.794 219.405C547.793 219.404 547.792 219.403 547.791 219.402C547.79 219.401 547.789 219.4 547.788 219.399C547.787 219.398 547.786 219.397 547.785 219.396C547.784 219.395 547.782 219.394 547.781 219.393C547.78 219.392 547.779 219.391 547.778 219.389C547.777 219.388 547.776 219.387 547.775 219.386C547.774 219.385 547.773 219.384 547.772 219.383C547.771 219.382 547.77 219.381 547.769 219.38C547.768 219.379 547.767 219.378 547.766 219.377C547.765 219.376 547.764 219.375 547.763 219.374C547.762 219.373 547.761 219.372 547.76 219.371C547.759 219.37 547.758 219.369 547.757 219.368C547.755 219.367 547.754 219.366 547.753 219.365C547.752 219.364 547.751 219.363 547.75 219.362C547.749 219.36 547.748 219.359 547.747 219.358C547.746 219.357 547.745 219.356 547.744 219.355C547.743 219.354 547.742 219.353 547.741 219.352C547.74 219.351 547.739 219.35 547.738 219.349C547.737 219.348 547.736 219.347 547.735 219.346C547.734 219.345 547.733 219.344 547.732 219.343C547.731 219.342 547.73 219.341 547.729 219.34C547.728 219.339 547.727 219.338 547.726 219.337C547.725 219.336 547.724 219.335 547.723 219.334C547.721 219.333 547.721 219.332 547.719 219.331C547.718 219.33 547.717 219.329 547.716 219.328C547.715 219.327 547.714 219.326 547.713 219.324C547.712 219.323 547.711 219.322 547.71 219.321C547.709 219.32 547.708 219.319 547.707 219.318C547.706 219.317 547.705 219.316 547.704 219.315C547.703 219.314 547.702 219.313 547.701 219.312C547.7 219.311 547.699 219.31 547.698 219.309C547.697 219.308 547.696 219.307 547.695 219.306C547.694 219.305 547.693 219.304 547.692 219.303C547.691 219.302 547.69 219.301 547.689 219.3C547.688 219.299 547.687 219.298 547.686 219.297C547.685 219.296 547.684 219.295 547.683 219.294C547.682 219.293 547.681 219.292 547.68 219.291C547.679 219.29 547.678 219.289 547.677 219.288C547.676 219.287 547.675 219.286 547.674 219.285C547.673 219.284 547.672 219.283 547.671 219.282C547.669 219.281 547.668 219.28 547.667 219.279C547.666 219.278 547.665 219.277 547.664 219.276C547.663 219.275 547.662 219.274 547.661 219.273C547.66 219.272 547.659 219.271 547.658 219.27C547.657 219.269 547.656 219.268 547.655 219.267C547.654 219.265 547.653 219.264 547.652 219.263C547.651 219.262 547.65 219.261 547.649 219.26C547.648 219.259 547.647 219.258 547.646 219.257C547.645 219.256 547.644 219.255 547.643 219.254C547.642 219.253 547.641 219.252 547.64 219.251C547.639 219.25 547.638 219.249 547.637 219.248C547.636 219.247 547.635 219.246 547.634 219.245C547.633 219.244 547.632 219.243 547.631 219.242C547.63 219.241 547.629 219.24 547.628 219.239C547.627 219.238 547.626 219.237 547.625 219.236C547.624 219.235 547.623 219.234 547.622 219.233C547.621 219.232 547.62 219.231 547.619 219.23C547.618 219.229 547.617 219.228 547.616 219.227C547.615 219.226 547.614 219.225 547.613 219.224C547.612 219.223 547.611 219.222 547.61 219.221C547.609 219.22 547.608 219.219 547.607 219.218C547.606 219.217 547.605 219.216 547.604 219.215C547.603 219.214 547.602 219.213 547.601 219.212C547.6 219.211 547.599 219.21 547.598 219.209C547.597 219.208 547.596 219.207 547.595 219.206C547.594 219.205 547.593 219.204 547.592 219.203C547.591 219.202 547.59 219.201 547.589 219.2C547.588 219.199 547.587 219.198 547.586 219.197C547.585 219.196 547.584 219.195 547.583 219.194C547.582 219.193 547.581 219.192 547.58 219.191C547.579 219.19 547.578 219.189 547.577 219.188C547.576 219.187 547.575 219.186 547.574 219.185C547.573 219.184 547.572 219.183 547.571 219.182C547.57 219.181 547.569 219.18 547.568 219.179C547.567 219.178 547.566 219.177 547.565 219.176C547.564 219.176 547.563 219.175 547.562 219.174C547.561 219.173 547.56 219.172 547.559 219.171C547.558 219.17 547.557 219.169 547.556 219.168C547.555 219.167 547.554 219.166 547.553 219.165C547.552 219.164 547.552 219.163 547.55 219.162C547.549 219.161 547.549 219.16 547.548 219.159C547.547 219.158 547.546 219.157 547.545 219.156C547.544 219.155 547.543 219.154 547.542 219.153C547.541 219.152 547.54 219.151 547.539 219.15C547.538 219.149 547.537 219.148 547.536 219.147C547.535 219.146 547.534 219.145 547.533 219.144C547.532 219.143 547.531 219.142 547.53 219.141C547.529 219.14 547.528 219.139 547.527 219.138C547.526 219.137 547.525 219.136 547.524 219.135C547.523 219.134 547.522 219.133 547.521 219.132C547.52 219.131 547.519 219.13 547.518 219.129C547.517 219.128 547.516 219.127 547.515 219.126C547.514 219.125 547.513 219.124 547.512 219.123C547.511 219.122 547.51 219.121 547.509 219.12C547.508 219.119 547.507 219.119 547.506 219.118C547.505 219.117 547.504 219.116 547.503 219.115C547.502 219.114 547.502 219.113 547.501 219.112C547.5 219.111 547.499 219.11 547.498 219.109C547.497 219.108 547.496 219.107 547.495 219.106C547.494 219.105 547.493 219.104 547.492 219.103C547.491 219.102 547.49 219.101 547.489 219.1C547.488 219.099 547.487 219.098 547.486 219.097C547.485 219.096 547.484 219.095 547.483 219.094C547.482 219.093 547.481 219.092 547.48 219.091C547.479 219.09 547.478 219.089 547.477 219.088C547.476 219.087 547.475 219.086 547.474 219.085C547.473 219.085 547.472 219.084 547.471 219.083C547.47 219.082 547.469 219.081 547.469 219.08C547.468 219.079 547.467 219.078 547.466 219.077C547.465 219.076 547.464 219.075 547.463 219.074C547.462 219.073 547.461 219.072 547.46 219.071C547.459 219.07 547.458 219.069 547.457 219.068C547.456 219.067 547.455 219.066 547.454 219.065C547.453 219.064 547.452 219.063 547.451 219.062C547.45 219.061 547.449 219.06 547.448 219.059C547.447 219.058 547.446 219.058 547.445 219.057C547.444 219.056 547.443 219.055 547.443 219.054C547.442 219.053 547.441 219.052 547.44 219.051C547.439 219.05 547.438 219.049 547.437 219.048C547.436 219.047 547.435 219.046 547.434 219.045C547.433 219.044 547.432 219.043 547.431 219.042C547.43 219.041 547.429 219.04 547.428 219.039C547.427 219.038 547.426 219.037 547.425 219.036C547.424 219.035 547.423 219.035 547.422 219.034C547.421 219.033 547.42 219.032 547.42 219.031C547.419 219.03 547.418 219.029 547.417 219.028C547.416 219.027 547.415 219.026 547.414 219.025C547.413 219.024 547.412 219.023 547.411 219.022C547.41 219.021 547.409 219.02 547.408 219.019C547.407 219.018 547.406 219.017 547.405 219.016C547.404 219.015 547.403 219.015 547.402 219.014C547.401 219.013 547.401 219.012 547.4 219.011C547.399 219.01 547.398 219.009 547.397 219.008C547.396 219.007 547.395 219.006 547.394 219.005C547.393 219.004 547.392 219.003 547.391 219.002C547.39 219.001 547.389 219 547.388 218.999C547.387 218.998 547.386 218.997 547.385 218.997C547.384 218.996 547.383 218.995 547.383 218.994C547.382 218.993 547.381 218.992 547.38 218.991C547.379 218.99 547.378 218.989 547.377 218.988C547.376 218.987 547.375 218.986 547.374 218.985C547.373 218.984 547.372 218.983 547.371 218.982C547.37 218.981 547.369 218.98 547.368 218.98C547.367 218.979 547.366 218.978 547.366 218.977C547.365 218.976 547.364 218.975 547.363 218.974C547.362 218.973 547.361 218.972 547.36 218.971C547.359 218.97 547.358 218.969 547.357 218.968C547.356 218.967 547.355 218.966 547.354 218.965C547.353 218.965 547.352 218.964 547.351 218.963C547.351 218.962 547.35 218.961 547.349 218.96C547.348 218.959 547.347 218.958 547.346 218.957C547.345 218.956 547.344 218.955 547.343 218.954C547.342 218.953 547.341 218.952 547.34 218.951C547.339 218.95 547.338 218.95 547.337 218.949C547.336 218.948 547.336 218.947 547.335 218.946C547.334 218.945 547.333 218.944 547.332 218.943C547.331 218.942 547.33 218.941 547.329 218.94C547.328 218.939 547.327 218.938 547.326 218.937C547.325 218.936 547.324 218.936 547.323 218.935C547.323 218.934 547.322 218.933 547.321 218.932C547.32 218.931 547.319 218.93 547.318 218.929C547.317 218.928 547.316 218.927 547.315 218.926C547.314 218.925 547.313 218.924 547.312 218.923C547.311 218.923 547.31 218.922 547.31 218.921C547.309 218.92 547.308 218.919 547.307 218.918C547.306 218.917 547.305 218.916 547.304 218.915C547.303 218.914 547.302 218.913 547.301 218.912C547.3 218.911 547.299 218.911 547.298 218.91C547.297 218.909 547.297 218.908 547.296 218.907C547.295 218.906 547.294 218.905 547.293 218.904C547.292 218.903 547.291 218.902 547.29 218.901C547.289 218.9 547.288 218.899 547.287 218.899C547.286 218.898 547.286 218.897 547.285 218.896C547.284 218.895 547.283 218.894 547.282 218.893C547.281 218.892 547.28 218.891 547.279 218.89C547.278 218.889 547.277 218.888 547.276 218.887C547.275 218.887 547.274 218.886 547.274 218.885C547.273 218.884 547.272 218.883 547.271 218.882C547.27 218.881 547.269 218.88 547.268 218.879C547.267 218.878 547.266 218.877 547.265 218.876C547.264 218.876 547.263 218.875 547.263 218.874C547.262 218.873 547.261 218.872 547.26 218.871C547.259 218.87 547.258 218.869 547.257 218.868C547.256 218.867 547.255 218.866 547.254 218.866C547.253 218.865 547.253 218.864 547.252 218.863C547.251 218.862 547.25 218.861 547.249 218.86C547.248 218.859 547.247 218.858 547.246 218.857C547.245 218.856 547.244 218.856 547.243 218.855C547.242 218.854 547.242 218.853 547.241 218.852C547.24 218.851 547.239 218.85 547.238 218.849C547.237 218.848 547.236 218.847 547.235 218.846C547.234 218.846 547.233 218.845 547.233 218.844C547.232 218.843 547.231 218.842 547.23 218.841C547.229 218.84 547.228 218.839 547.227 218.838C547.226 218.837 547.225 218.836 547.224 218.836C547.223 218.835 547.223 218.834 547.222 218.833C547.221 218.832 547.22 218.831 547.219 218.83C547.218 218.829 547.217 218.828 547.216 218.827C547.215 218.827 547.214 218.826 547.214 218.825C547.213 218.824 547.212 218.823 547.211 218.822C547.21 218.821 547.209 218.82 547.208 218.819C547.207 218.818 547.206 218.818 547.205 218.817C547.205 218.816 547.204 218.815 547.203 218.814C547.202 218.813 547.201 218.812 547.2 218.811C547.199 218.81 547.198 218.809 547.197 218.809C547.196 218.808 547.196 218.807 547.195 218.806C547.194 218.805 547.193 218.804 547.192 218.803C547.191 218.802 547.19 218.801 547.189 218.8C547.188 218.8 547.188 218.799 547.187 218.798C547.186 218.797 547.185 218.796 547.184 218.795C547.183 218.794 547.182 218.793 547.181 218.792C547.18 218.792 547.179 218.791 547.179 218.79C547.178 218.789 547.177 218.788 547.176 218.787C547.175 218.786 547.174 218.785 547.173 218.784C547.172 218.783 547.171 218.783 547.171 218.782C547.17 218.781 547.169 218.78 547.168 218.779C547.167 218.778 547.166 218.777 547.165 218.776C547.164 218.775 547.163 218.775 547.163 218.774C547.162 218.773 547.161 218.772 547.16 218.771C547.159 218.77 547.158 218.769 547.157 218.768C547.156 218.767 547.155 218.767 547.155 218.766C547.154 218.765 547.153 218.764 547.152 218.763C547.151 218.762 547.15 218.761 547.149 218.76C547.148 218.76 547.147 218.759 547.147 218.758C547.146 218.757 547.145 218.756 547.144 218.755C547.143 218.754 547.142 218.753 547.141 218.752C547.14 218.752 547.14 218.751 547.139 218.75C547.138 218.749 547.137 218.748 547.136 218.747C547.135 218.746 547.134 218.745 547.133 218.745C547.132 218.744 547.132 218.743 547.131 218.742C547.13 218.741 547.129 218.74 547.128 218.739C547.127 218.738 547.126 218.737 547.125 218.737C547.125 218.736 547.124 218.735 547.123 218.734C547.122 218.733 547.121 218.732 547.12 218.731C547.119 218.73 547.118 218.73 547.118 218.729C547.117 218.728 547.116 218.727 547.115 218.726C547.114 218.725 547.113 218.724 547.112 218.723C547.111 218.723 547.111 218.722 547.11 218.721C547.109 218.72 547.108 218.719 547.107 218.718C547.106 218.717 547.105 218.716 547.104 218.716C547.104 218.715 547.103 218.714 547.102 218.713C547.101 218.712 547.1 218.711 547.099 218.71C547.098 218.709 547.097 218.709 547.097 218.708C547.096 218.707 547.095 218.706 547.094 218.705C547.093 218.704 547.092 218.703 547.091 218.703C547.09 218.702 547.09 218.701 547.089 218.7C547.088 218.699 547.087 218.698 547.086 218.697C547.085 218.696 547.084 218.696 547.084 218.695C547.083 218.694 547.082 218.693 547.081 218.692C547.08 218.691 547.079 218.69 547.078 218.69C547.077 218.689 547.077 218.688 547.076 218.687C547.075 218.686 547.074 218.685 547.073 218.684C547.072 218.683 547.071 218.683 547.071 218.682C547.07 218.681 547.069 218.68 547.068 218.679C547.067 218.678 547.066 218.677 547.065 218.677C547.065 218.676 547.064 218.675 547.063 218.674C547.062 218.673 547.061 218.672 547.06 218.671C547.059 218.671 547.058 218.67 547.058 218.669C547.057 218.668 547.056 218.667 547.055 218.666C547.054 218.665 547.053 218.665 547.052 218.664C547.052 218.663 547.051 218.662 547.05 218.661C547.049 218.66 547.048 218.659 547.047 218.659C547.046 218.658 547.046 218.657 547.045 218.656C547.044 218.655 547.043 218.654 547.042 218.653C547.041 218.653 547.04 218.652 547.04 218.651C547.039 218.65 547.038 218.649 547.037 218.648C547.036 218.647 547.035 218.647 547.034 218.646C547.034 218.645 547.033 218.644 547.032 218.643C547.031 218.642 547.03 218.641 547.029 218.641C547.029 218.64 547.028 218.639 547.027 218.638C547.026 218.637 547.025 218.636 547.024 218.635C547.023 218.635 547.023 218.634 547.022 218.633C547.021 218.632 547.02 218.631 547.019 218.63C547.018 218.63 547.017 218.629 547.017 218.628C547.016 218.627 547.015 218.626 547.014 218.625C547.013 218.624 547.012 218.624 547.012 218.623C547.011 218.622 547.01 218.621 547.009 218.62C547.008 218.619 547.007 218.618 547.006 218.618C547.006 218.617 547.005 218.616 547.004 218.615C547.003 218.614 547.002 218.613 547.001 218.613C547.001 218.612 547 218.611 546.999 218.61C546.998 218.609 546.997 218.608 546.996 218.607C546.995 218.607 546.995 218.606 546.994 218.605C546.993 218.604 546.992 218.603 546.991 218.602C546.99 218.602 546.99 218.601 546.989 218.6C546.988 218.599 546.987 218.598 546.986 218.597C546.985 218.597 546.985 218.596 546.984 218.595C546.983 218.594 546.982 218.593 546.981 218.592C546.98 218.592 546.979 218.591 546.979 218.59C546.978 218.589 546.977 218.588 546.976 218.587C546.975 218.587 546.974 218.586 546.974 218.585C546.973 218.584 546.972 218.583 546.971 218.582C546.97 218.581 546.969 218.581 546.969 218.58C546.968 218.579 546.967 218.578 546.966 218.577C546.965 218.576 546.964 218.576 546.964 218.575C546.963 218.574 546.962 218.573 546.961 218.572C546.96 218.571 546.959 218.571 546.959 218.57C546.958 218.569 546.957 218.568 546.956 218.567C546.955 218.566 546.954 218.566 546.954 218.565C546.953 218.564 546.952 218.563 546.951 218.562C546.95 218.561 546.949 218.561 546.949 218.56C546.948 218.559 546.947 218.558 546.946 218.557C546.945 218.557 546.945 218.556 546.944 218.555C546.943 218.554 546.942 218.553 546.941 218.552C546.94 218.552 546.94 218.551 546.939 218.55C546.938 218.549 546.937 218.548 546.936 218.547C546.935 218.547 546.935 218.546 546.934 218.545C546.933 218.544 546.932 218.543 546.931 218.542C546.93 218.542 546.93 218.541 546.929 218.54C546.928 218.539 546.927 218.538 546.926 218.538C546.926 218.537 546.925 218.536 546.924 218.535C546.923 218.534 546.922 218.533 546.921 218.533C546.921 218.532 546.92 218.531 546.919 218.53C546.918 218.529 546.917 218.528 546.917 218.528C546.916 218.527 546.915 218.526 546.914 218.525C546.913 218.524 546.912 218.524 546.912 218.523C546.911 218.522 546.91 218.521 546.909 218.52C546.908 218.519 546.907 218.519 546.907 218.518C546.906 218.517 546.905 218.516 546.904 218.515C546.903 218.515 546.903 218.514 546.902 218.513C546.901 218.512 546.9 218.511 546.899 218.51C546.898 218.51 546.898 218.509 546.897 218.508C546.896 218.507 546.895 218.506 546.894 218.506C546.894 218.505 546.893 218.504 546.892 218.503C546.891 218.502 546.89 218.502 546.89 218.501C546.889 218.5 546.888 218.499 546.887 218.498C546.886 218.497 546.885 218.497 546.885 218.496C546.884 218.495 546.883 218.494 546.882 218.493C546.881 218.493 546.881 218.492 546.88 218.491C546.879 218.49 546.878 218.489 546.877 218.489C546.877 218.488 546.876 218.487 546.875 218.486C546.874 218.485 546.873 218.485 546.872 218.484C546.872 218.483 546.871 218.482 546.87 218.481C546.869 218.48 546.868 218.48 546.868 218.479C546.867 218.478 546.866 218.477 546.865 218.476C546.864 218.476 546.864 218.475 546.863 218.474C546.862 218.473 546.861 218.472 546.86 218.472C546.86 218.471 546.859 218.47 546.858 218.469C546.857 218.468 546.856 218.468 546.856 218.467C546.855 218.466 546.854 218.465 546.853 218.464C546.852 218.464 546.852 218.463 546.851 218.462C546.85 218.461 546.849 218.46 546.848 218.46C546.848 218.459 546.847 218.458 546.846 218.457C546.845 218.456 546.844 218.456 546.844 218.455C546.843 218.454 546.842 218.453 546.841 218.452C546.84 218.452 546.84 218.451 546.839 218.45C546.838 218.449 546.837 218.448 546.836 218.448C546.836 218.447 546.835 218.446 546.834 218.445C546.833 218.444 546.832 218.444 546.832 218.443C546.831 218.442 546.83 218.441 546.829 218.44C546.828 218.44 546.828 218.439 546.827 218.438C546.826 218.437 546.825 218.436 546.825 218.436C546.824 218.435 546.823 218.434 546.822 218.433C546.821 218.432 546.821 218.432 546.82 218.431C546.819 218.43 546.818 218.429 546.817 218.429C546.817 218.428 546.816 218.427 546.815 218.426C546.814 218.425 546.813 218.425 546.813 218.424C546.812 218.423 546.811 218.422 546.81 218.421C546.809 218.421 546.809 218.42 546.808 218.419C546.807 218.418 546.806 218.417 546.806 218.417C546.805 218.416 546.804 218.415 546.803 218.414C546.802 218.414 546.802 218.413 546.801 218.412C546.8 218.411 546.799 218.41 546.798 218.41C546.798 218.409 546.797 218.408 546.796 218.407C546.795 218.406 546.794 218.406 546.794 218.405C546.793 218.404 546.792 218.403 546.791 218.403C546.791 218.402 546.79 218.401 546.789 218.4C546.788 218.399 546.787 218.399 546.787 218.398C546.786 218.397 546.785 218.396 546.784 218.396C546.784 218.395 546.783 218.394 546.782 218.393C546.781 218.392 546.78 218.392 546.78 218.391C546.779 218.39 546.778 218.389 546.777 218.388C546.777 218.388 546.776 218.387 546.775 218.386C546.774 218.385 546.773 218.385 546.773 218.384C546.772 218.383 546.771 218.382 546.77 218.381C546.77 218.381 546.769 218.38 546.768 218.379C546.767 218.378 546.766 218.378 546.766 218.377C546.765 218.376 546.764 218.375 546.763 218.374C546.763 218.374 546.762 218.373 546.761 218.372C546.76 218.371 546.759 218.371 546.759 218.37C546.758 218.369 546.757 218.368 546.756 218.368C546.756 218.367 546.755 218.366 546.754 218.365C546.753 218.364 546.753 218.364 546.752 218.363C546.751 218.362 546.75 218.361 546.749 218.361C546.749 218.36 546.748 218.359 546.747 218.358C546.746 218.358 546.746 218.357 546.745 218.356C546.744 218.355 546.743 218.354 546.742 218.354C546.742 218.353 546.741 218.352 546.74 218.351C546.739 218.351 546.739 218.35 546.738 218.349C546.737 218.348 546.736 218.348 546.736 218.347C546.735 218.346 546.734 218.345 546.733 218.344C546.732 218.344 546.732 218.343 546.731 218.342C546.73 218.341 546.729 218.341 546.729 218.34C546.728 218.339 546.727 218.338 546.726 218.338C546.726 218.337 546.725 218.336 546.724 218.335C546.723 218.335 546.723 218.334 546.722 218.333C546.721 218.332 546.72 218.331 546.72 218.331C546.719 218.33 546.718 218.329 546.717 218.328C546.716 218.328 546.716 218.327 546.715 218.326C546.714 218.325 546.713 218.325 546.713 218.324C546.712 218.323 546.711 218.322 546.71 218.322C546.71 218.321 546.709 218.32 546.708 218.319C546.707 218.319 546.707 218.318 546.706 218.317C546.705 218.316 546.704 218.316 546.704 218.315C546.703 218.314 546.702 218.313 546.701 218.312C546.701 218.312 546.7 218.311 546.699 218.31C546.698 218.309 546.698 218.309 546.697 218.308C546.696 218.307 546.695 218.306 546.695 218.306C546.694 218.305 546.693 218.304 546.692 218.303C546.692 218.303 546.691 218.302 546.69 218.301C546.689 218.3 546.688 218.3 546.688 218.299C546.687 218.298 546.686 218.297 546.685 218.297C546.685 218.296 546.684 218.295 546.683 218.294C546.682 218.294 546.682 218.293 546.681 218.292C546.68 218.291 546.68 218.291 546.679 218.29C546.678 218.289 546.677 218.288 546.677 218.288C546.676 218.287 546.675 218.286 546.674 218.285C546.674 218.285 546.673 218.284 546.672 218.283C546.671 218.282 546.671 218.282 546.67 218.281C546.669 218.28 546.668 218.279 546.668 218.279C546.667 218.278 546.666 218.277 546.665 218.276C546.665 218.276 546.664 218.275 546.663 218.274C546.662 218.274 546.662 218.273 546.661 218.272C546.66 218.271 546.659 218.271 546.659 218.27C546.658 218.269 546.657 218.268 546.656 218.268C546.656 218.267 546.655 218.266 546.654 218.265C546.653 218.265 546.653 218.264 546.652 218.263C546.651 218.262 546.65 218.262 546.65 218.261C546.649 218.26 546.648 218.259 546.648 218.259C546.647 218.258 546.646 218.257 546.645 218.256C546.645 218.256 546.644 218.255 546.643 218.254C546.642 218.254 546.642 218.253 546.641 218.252C546.64 218.251 546.639 218.251 546.639 218.25C546.638 218.249 546.637 218.248 546.636 218.248C546.636 218.247 546.635 218.246 546.634 218.245C546.633 218.245 546.633 218.244 546.632 218.243C546.631 218.242 546.631 218.242 546.63 218.241C546.629 218.24 546.628 218.24 546.628 218.239C546.627 218.238 546.626 218.237 546.625 218.237C546.625 218.236 546.624 218.235 546.623 218.234C546.622 218.234 546.622 218.233 546.621 218.232C546.62 218.232 546.62 218.231 546.619 218.23C546.618 218.229 546.617 218.229 546.617 218.228C546.616 218.227 546.615 218.226 546.615 218.226C546.614 218.225 546.613 218.224 546.612 218.223C546.612 218.223 546.611 218.222 546.61 218.221C546.609 218.221 546.609 218.22 546.608 218.219C546.607 218.218 546.607 218.218 546.606 218.217C546.605 218.216 546.604 218.215 546.604 218.215L545.189 219.629ZM546.619 221.057C547.26 221.633 548.578 222.732 550.554 224.337L551.815 222.784C549.832 221.173 548.554 220.107 547.957 219.57L546.619 221.057ZM550.566 224.346C552.644 225.983 554.788 227.434 556.997 228.696L557.989 226.96C555.869 225.748 553.807 224.354 551.803 222.775L550.566 224.346ZM557.016 228.707C559.262 229.926 562.025 231.002 565.287 231.943L565.842 230.022C562.672 229.107 560.053 228.08 557.97 226.949L557.016 228.707ZM565.287 231.943C568.588 232.895 571.867 233.374 575.12 233.374V231.374C572.065 231.374 568.973 230.925 565.842 230.022L565.287 231.943ZM54.29 437.678L55.2677 437.888L55.5279 436.678H54.29V437.678ZM48.167 466.159V467.159H48.9749L49.1447 466.369L48.167 466.159ZM-21.1348 466.159L-22.1131 465.952L-22.3687 467.159H-21.1348V466.159ZM-15.1045 437.678V436.678H-15.9149L-16.0828 437.471L-15.1045 437.678ZM53.3124 437.468L47.1893 465.949L49.1447 466.369L55.2677 437.888L53.3124 437.468ZM48.167 465.159H-21.1348V467.159H48.167V465.159ZM-20.1565 466.366L-14.1262 437.885L-16.0828 437.471L-22.1131 465.952L-20.1565 466.366ZM-15.1045 438.678H54.29V436.678H-15.1045V438.678ZM89.3584 374.963V373.963H88.5476L88.38 374.756L89.3584 374.963ZM191.966 374.963L192.944 375.17L193.2 373.963H191.966V374.963ZM185.101 407.341V408.341H185.911L186.079 407.548L185.101 407.341ZM118.582 407.341V406.341H117.769L117.603 407.137L118.582 407.341ZM114.036 429.143L113.057 428.938L112.806 430.143H114.036V429.143ZM165.34 429.143L166.318 429.351L166.575 428.143H165.34V429.143ZM158.475 461.428V462.428H159.284L159.453 461.636L158.475 461.428ZM107.171 461.428V460.428H106.36L106.192 461.221L107.171 461.428ZM97.3369 508V509H98.1478L98.3153 508.207L97.3369 508ZM61.248 508L60.2696 507.793L60.0147 509H61.248V508ZM89.3584 375.963H191.966V373.963H89.3584V375.963ZM190.988 374.755L184.122 407.133L186.079 407.548L192.944 375.17L190.988 374.755ZM185.101 406.341H118.582V408.341H185.101V406.341ZM117.603 407.137L113.057 428.938L115.015 429.347L119.561 407.545L117.603 407.137ZM114.036 430.143H165.34V428.143H114.036V430.143ZM164.362 428.935L157.496 461.22L159.453 461.636L166.318 429.351L164.362 428.935ZM158.475 460.428H107.171V462.428H158.475V460.428ZM106.192 461.221L96.3585 507.793L98.3153 508.207L108.149 461.634L106.192 461.221ZM97.3369 507H61.248V509H97.3369V507ZM62.2264 508.207L90.3368 375.17L88.38 374.756L60.2696 507.793L62.2264 508.207ZM236.033 416.247L235.326 415.54L235.324 415.543L236.033 416.247ZM232.879 470.056L232.168 470.759L232.175 470.766L232.879 470.056ZM286.688 467.18L285.994 466.46L285.991 466.462L286.688 467.18ZM289.935 413.093L289.224 413.796L289.227 413.8L289.935 413.093ZM325.838 472.282L326.684 472.815L326.685 472.813L325.838 472.282ZM295.872 500.949L295.371 500.084L295.369 500.085L295.872 500.949ZM205.975 493.249L205.295 493.983L205.297 493.984L205.975 493.249ZM316.932 389.807L316.252 390.54L316.254 390.542L316.932 389.807ZM265.628 402.537C254.088 402.537 243.974 406.893 235.326 415.54L236.74 416.954C245.039 408.655 254.655 404.537 265.628 404.537V402.537ZM235.324 415.543C226.734 424.195 222.416 434.434 222.416 446.213H224.416C224.416 434.984 228.51 425.245 236.743 416.952L235.324 415.543ZM222.416 446.213C222.416 455.983 225.662 464.189 232.168 470.759L233.589 469.352C227.479 463.181 224.416 455.492 224.416 446.213H222.416ZM232.175 470.766C238.753 477.28 247.149 480.519 257.278 480.519V478.519C247.616 478.519 239.745 475.448 233.583 469.345L232.175 470.766ZM257.278 480.519C268.688 480.519 278.737 476.292 287.384 467.897L285.991 466.462C277.692 474.519 268.134 478.519 257.278 478.519V480.519ZM287.381 467.9C296.116 459.482 300.49 449.077 300.49 436.75H298.49C298.49 448.544 294.329 458.426 285.994 466.46L287.381 467.9ZM300.49 436.75C300.49 427.097 297.209 418.953 290.642 412.386L289.227 413.8C295.401 419.974 298.49 427.601 298.49 436.75H300.49ZM290.645 412.389C284.128 405.808 275.76 402.537 265.628 402.537V404.537C275.287 404.537 283.124 407.636 289.224 413.796L290.645 412.389ZM336.063 434.431C336.063 447.529 332.381 459.963 324.991 471.751L326.685 472.813C334.262 460.727 338.063 447.927 338.063 434.431H336.063ZM324.992 471.749C317.597 483.483 307.728 492.926 295.371 500.084L296.373 501.815C309.003 494.499 319.111 484.831 326.684 472.815L324.992 471.749ZM295.369 500.085C283.085 507.236 270.084 510.804 256.351 510.804V512.804C270.449 512.804 283.796 509.136 296.375 501.813L295.369 500.085ZM256.351 510.804C236.41 510.804 219.869 504.695 206.652 492.514L205.297 493.984C218.923 506.543 235.965 512.804 256.351 512.804V510.804ZM206.654 492.515C193.425 480.262 186.843 465.617 186.843 448.532H184.843C184.843 466.206 191.682 481.373 205.295 493.983L206.654 492.515ZM186.843 448.532C186.843 428.298 194.813 410.522 210.841 395.167L209.458 393.723C193.077 409.417 184.843 427.699 184.843 448.532H186.843ZM210.841 395.167C226.869 379.812 245.427 372.159 266.556 372.159V370.159C244.885 370.159 225.838 378.03 209.458 393.723L210.841 395.167ZM266.556 372.159C286.494 372.159 303.035 378.298 316.252 390.54L317.611 389.073C303.986 376.452 286.942 370.159 266.556 370.159V372.159ZM316.254 390.542C329.481 402.733 336.063 417.346 336.063 434.431H338.063C338.063 416.756 331.224 401.62 317.609 389.071L316.254 390.542ZM344.393 508L343.414 507.793L343.159 509H344.393V508ZM372.503 374.963V373.963H371.692L371.525 374.756L372.503 374.963ZM463.699 446.027L464.399 446.741L464.406 446.734L463.699 446.027ZM454.236 454.006L454.81 454.825L454.813 454.823L454.236 454.006ZM446.351 458.366L446.026 457.42L446.019 457.423L446.011 457.426L446.351 458.366ZM443.011 459.572L442.671 458.632L441.735 458.97L442.069 459.908L443.011 459.572ZM460.267 508V509H461.685L461.209 507.664L460.267 508ZM423.064 508L422.116 508.316L422.343 509H423.064V508ZM409.148 466.159L410.097 465.844L409.87 465.159H409.148V466.159ZM389.202 466.159V465.159H388.389L388.223 465.955L389.202 466.159ZM380.481 508V509H381.294L381.46 508.204L380.481 508ZM432.991 429.699L433.618 430.479L432.991 429.699ZM434.754 410.681L434.047 411.388L434.057 411.398L434.067 411.407L434.754 410.681ZM401.727 407.341V406.341H400.917L400.749 407.132L401.727 407.341ZM396.067 433.874L395.089 433.665L394.832 434.874H396.067V433.874ZM345.371 508.207L373.481 375.17L371.525 374.756L343.414 507.793L345.371 508.207ZM372.503 375.963H432.156V373.963H372.503V375.963ZM432.156 375.963C444.103 375.963 454.055 379.805 462.081 387.468L463.462 386.022C455.036 377.976 444.578 373.963 432.156 373.963V375.963ZM462.081 387.468C470.124 395.149 474.11 404.14 474.11 414.484H476.11C476.11 403.553 471.87 394.051 463.462 386.022L462.081 387.468ZM474.11 414.484C474.11 421.114 473.016 427.14 470.842 432.575L472.699 433.318C474.978 427.619 476.11 421.337 476.11 414.484H474.11ZM470.842 432.575C468.649 438.056 466.024 442.289 462.992 445.32L464.406 446.734C467.683 443.458 470.438 438.969 472.699 433.318L470.842 432.575ZM462.999 445.313C459.878 448.373 456.764 450.997 453.66 453.189L454.813 454.823C458.017 452.561 461.212 449.866 464.399 446.741L462.999 445.313ZM453.663 453.187C450.604 455.328 448.064 456.722 446.026 457.42L446.675 459.312C448.967 458.526 451.683 457.014 454.81 454.825L453.663 453.187ZM446.011 457.426L442.671 458.632L443.35 460.513L446.69 459.307L446.011 457.426ZM442.069 459.908L459.325 508.336L461.209 507.664L443.953 459.237L442.069 459.908ZM460.267 507H423.064V509H460.267V507ZM424.013 507.684L410.097 465.844L408.2 466.475L422.116 508.316L424.013 507.684ZM409.148 465.159H389.202V467.159H409.148V465.159ZM388.223 465.955L379.502 507.796L381.46 508.204L390.181 466.363L388.223 465.955ZM380.481 507H344.393V509H380.481V507ZM420.931 434.874C425.728 434.874 429.971 433.409 433.618 430.479L432.365 428.92C429.085 431.556 425.287 432.874 420.931 432.874V434.874ZM433.618 430.479C437.325 427.499 439.187 423.528 439.187 418.659H437.187C437.187 422.944 435.584 426.333 432.365 428.92L433.618 430.479ZM439.187 418.659C439.187 415.23 437.93 412.308 435.441 409.954L434.067 411.407C436.155 413.383 437.187 415.779 437.187 418.659H439.187ZM435.461 409.974C433.014 407.526 429.773 406.341 425.848 406.341V408.341C429.344 408.341 432.041 409.382 434.047 411.388L435.461 409.974ZM425.848 406.341H401.727V408.341H425.848V406.341ZM400.749 407.132L395.089 433.665L397.045 434.083L402.705 407.549L400.749 407.132ZM396.067 434.874H420.931V432.874H396.067V434.874ZM58.6504 724.715L57.7867 725.219L58.4378 726.334L59.3547 725.425L58.6504 724.715ZM31.4678 678.143L32.3314 677.638L31.026 675.402L30.4895 677.935L31.4678 678.143ZM14.7686 757V758H15.579L15.7469 757.207L14.7686 757ZM-21.3203 757L-22.2987 756.793L-22.5537 758H-21.3203V757ZM6.79004 623.963V622.963H5.97926L5.81164 623.756L6.79004 623.963ZM36.7559 623.963L37.6243 623.467L37.3364 622.963H36.7559V623.963ZM66.6289 676.287L65.7605 676.783L66.4129 677.926L67.3392 676.991L66.6289 676.287ZM118.489 623.963V622.963H118.072L117.779 623.259L118.489 623.963ZM153.094 623.963L154.072 624.17L154.327 622.963H153.094V623.963ZM124.983 757V758H125.794L125.962 757.207L124.983 757ZM88.8945 757L87.9162 756.793L87.6606 758H88.8945V757ZM105.594 678.143L106.572 678.35L107.265 675.076L104.889 677.433L105.594 678.143ZM59.514 724.211L32.3314 677.638L30.6041 678.647L57.7867 725.219L59.514 724.211ZM30.4895 677.935L13.7902 756.793L15.7469 757.207L32.4461 678.35L30.4895 677.935ZM14.7686 756H-21.3203V758H14.7686V756ZM-20.3419 757.207L7.76844 624.17L5.81164 623.756L-22.2987 756.793L-20.3419 757.207ZM6.79004 624.963H36.7559V622.963H6.79004V624.963ZM35.8874 624.459L65.7605 676.783L67.4973 675.791L37.6243 623.467L35.8874 624.459ZM67.3392 676.991L119.2 624.667L117.779 623.259L65.9187 675.583L67.3392 676.991ZM118.489 624.963H153.094V622.963H118.489V624.963ZM152.115 623.756L124.005 756.793L125.962 757.207L154.072 624.17L152.115 623.756ZM124.983 756H88.8945V758H124.983V756ZM89.8728 757.207L106.572 678.35L104.615 677.935L87.9162 756.793L89.8728 757.207ZM104.889 677.433L57.9461 724.005L59.3547 725.425L106.298 678.852L104.889 677.433ZM236.219 700.037V701.037H237.332L237.213 699.931L236.219 700.037ZM232.044 661.072L233.038 660.966L232.688 657.7L231.159 660.607L232.044 661.072ZM211.541 700.037L210.656 699.571L209.885 701.037H211.541V700.037ZM239.651 728.519L240.643 728.393L240.532 727.519H239.651V728.519ZM195.955 728.519V727.519H195.359L195.075 728.043L195.955 728.519ZM180.555 757V758H181.151L181.434 757.476L180.555 757ZM140.105 757L139.244 756.492L138.354 758H140.105V757ZM218.592 623.963V622.963H218.021L217.731 623.455L218.592 623.963ZM258.484 623.963L259.471 623.798L259.332 622.963H258.484V623.963ZM280.657 757V758H281.838L281.644 756.836L280.657 757ZM243.27 757L242.277 757.126L242.389 758H243.27V757ZM237.213 699.931L233.038 660.966L231.05 661.179L235.224 700.144L237.213 699.931ZM231.159 660.607L210.656 699.571L212.426 700.503L232.929 661.538L231.159 660.607ZM211.541 701.037H236.219V699.037H211.541V701.037ZM239.651 727.519H195.955V729.519H239.651V727.519ZM195.075 728.043L179.675 756.524L181.434 757.476L196.835 728.994L195.075 728.043ZM180.555 756H140.105V758H180.555V756ZM140.967 757.508L219.453 624.471L217.731 623.455L139.244 756.492L140.967 757.508ZM218.592 624.963H258.484V622.963H218.592V624.963ZM257.498 624.127L279.671 757.164L281.644 756.836L259.471 623.798L257.498 624.127ZM280.657 756H243.27V758H280.657V756ZM244.262 756.874L240.643 728.393L238.659 728.645L242.277 757.126L244.262 756.874ZM301.16 623.963V622.963H300.35L300.182 623.755L301.16 623.963ZM411.375 623.963L412.353 624.17L412.609 622.963H411.375V623.963ZM404.51 656.341V657.341H405.32L405.488 656.548L404.51 656.341ZM367.493 656.341V655.341H366.683L366.515 656.133L367.493 656.341ZM346.155 757V758H346.966L347.134 757.207L346.155 757ZM310.066 757L309.088 756.793L308.832 758H310.066V757ZM331.404 656.341L332.383 656.548L332.638 655.341H331.404V656.341ZM294.295 656.341L293.317 656.133L293.061 657.341H294.295V656.341ZM301.16 624.963H411.375V622.963H301.16V624.963ZM410.397 623.755L403.532 656.133L405.488 656.548L412.353 624.17L410.397 623.755ZM404.51 655.341H367.493V657.341H404.51V655.341ZM366.515 656.133L345.177 756.793L347.134 757.207L368.471 656.548L366.515 656.133ZM346.155 756H310.066V758H346.155V756ZM311.045 757.207L332.383 656.548L330.426 656.133L309.088 756.793L311.045 757.207ZM331.404 655.341H294.295V657.341H331.404V655.341ZM295.273 656.548L302.138 624.17L300.182 623.755L293.317 656.133L295.273 656.548ZM402.283 757L401.305 756.793L401.05 758H402.283V757ZM430.394 623.963V622.963H429.583L429.415 623.756L430.394 623.963ZM466.482 623.963L467.461 624.17L467.716 622.963H466.482V623.963ZM438.372 757V758H439.183L439.35 757.207L438.372 757ZM403.262 757.207L431.372 624.17L429.415 623.756L401.305 756.793L403.262 757.207ZM430.394 624.963H466.482V622.963H430.394V624.963ZM465.504 623.756L437.394 756.793L439.35 757.207L467.461 624.17L465.504 623.756ZM438.372 756H402.283V758H438.372V756ZM523.816 665.247L523.109 664.54L523.107 664.543L523.816 665.247ZM520.662 719.056L519.952 719.759L519.958 719.766L520.662 719.056ZM574.471 716.18L573.777 715.46L573.774 715.462L574.471 716.18ZM577.718 662.093L577.007 662.796L577.011 662.8L577.718 662.093ZM613.621 721.282L614.467 721.815L614.468 721.813L613.621 721.282ZM583.655 749.949L583.154 749.084L583.152 749.085L583.655 749.949ZM493.758 742.249L493.078 742.983L493.08 742.984L493.758 742.249ZM604.715 638.807L604.035 639.54L604.037 639.542L604.715 638.807ZM553.411 651.537C541.871 651.537 531.757 655.893 523.109 664.54L524.523 665.954C532.823 657.655 542.438 653.537 553.411 653.537V651.537ZM523.107 664.543C514.517 673.195 510.199 683.434 510.199 695.213H512.199C512.199 683.984 516.293 674.245 524.526 665.952L523.107 664.543ZM510.199 695.213C510.199 704.983 513.445 713.189 519.952 719.759L521.373 718.352C515.262 712.181 512.199 704.492 512.199 695.213H510.199ZM519.958 719.766C526.536 726.28 534.932 729.519 545.062 729.519V727.519C535.399 727.519 527.529 724.448 521.366 718.345L519.958 719.766ZM545.062 729.519C556.471 729.519 566.52 725.292 575.167 716.897L573.774 715.462C565.475 723.519 555.917 727.519 545.062 727.519V729.519ZM575.165 716.9C583.899 708.482 588.273 698.077 588.273 685.75H586.273C586.273 697.544 582.113 707.426 573.777 715.46L575.165 716.9ZM588.273 685.75C588.273 676.097 584.992 667.953 578.425 661.386L577.011 662.8C583.185 668.974 586.273 676.601 586.273 685.75H588.273ZM578.428 661.389C571.911 654.808 563.543 651.537 553.411 651.537V653.537C563.07 653.537 570.907 656.636 577.007 662.796L578.428 661.389ZM623.847 683.431C623.847 696.529 620.164 708.964 612.774 720.751L614.468 721.813C622.046 709.727 625.847 696.927 625.847 683.431H623.847ZM612.775 720.749C605.38 732.483 595.512 741.926 583.154 749.084L584.156 750.815C596.786 743.499 606.895 733.831 614.467 721.815L612.775 720.749ZM583.152 749.085C570.868 756.236 557.867 759.804 544.134 759.804V761.804C558.233 761.804 571.579 758.136 584.158 750.813L583.152 749.085ZM544.134 759.804C524.194 759.804 507.652 753.695 494.436 741.514L493.08 742.984C506.706 755.543 523.748 761.804 544.134 761.804V759.804ZM494.437 741.515C481.208 729.262 474.626 714.617 474.626 697.532H472.626C472.626 715.206 479.465 730.373 493.078 742.983L494.437 741.515ZM474.626 697.532C474.626 677.298 482.597 659.522 498.624 644.167L497.241 642.723C480.86 658.417 472.626 676.699 472.626 697.532H474.626ZM498.624 644.167C514.653 628.812 533.21 621.159 554.339 621.159V619.159C532.668 619.159 513.621 627.03 497.241 642.723L498.624 644.167ZM554.339 621.159C574.278 621.159 590.818 627.298 604.035 639.54L605.394 638.073C591.769 625.452 574.726 619.159 554.339 619.159V621.159ZM604.037 639.542C617.265 651.733 623.847 666.346 623.847 683.431H625.847C625.847 665.756 619.008 650.62 605.393 638.071L604.037 639.542ZM748.606 623.963V622.963H747.797L747.628 623.755L748.606 623.963ZM784.695 623.963L785.674 624.17L785.929 622.963H784.695V623.963ZM756.585 757V758H757.396L757.563 757.207L756.585 757ZM725.97 757L725.1 757.494L725.388 758H725.97V757ZM683.851 682.874L684.72 682.38L683.415 680.084L682.872 682.668L683.851 682.874ZM668.265 757V758H669.076L669.243 757.206L668.265 757ZM632.176 757L631.197 756.793L630.942 758H632.176V757ZM660.286 623.963V622.963H659.475L659.308 623.756L660.286 623.963ZM691.087 623.963L691.958 623.472L691.671 622.963H691.087V623.963ZM732.835 698.089L731.964 698.58L733.262 700.885L733.813 698.297L732.835 698.089ZM748.606 624.963H784.695V622.963H748.606V624.963ZM783.717 623.756L755.607 756.793L757.563 757.207L785.674 624.17L783.717 623.756ZM756.585 756H725.97V758H756.585V756ZM726.839 756.506L684.72 682.38L682.981 683.368L725.1 757.494L726.839 756.506ZM682.872 682.668L667.286 756.794L669.243 757.206L684.829 683.08L682.872 682.668ZM668.265 756H632.176V758H668.265V756ZM633.154 757.207L661.265 624.17L659.308 623.756L631.197 756.793L633.154 757.207ZM660.286 624.963H691.087V622.963H660.286V624.963ZM690.216 624.454L731.964 698.58L733.706 697.598L691.958 623.472L690.216 624.454ZM733.813 698.297L749.585 624.171L747.628 623.755L731.857 697.881L733.813 698.297Z" fill="white"/>
</g>
</g>
<defs>
<filter id="filter0_f" x="-295.532" y="28.8093" width="1157.88" height="836.36" filterUnits="userSpaceOnUse" color-interpolation-filters="sRGB">
<feFlood flood-opacity="0" result="BackgroundImageFix"/>
<feBlend mode="normal" in="SourceGraphic" in2="BackgroundImageFix" result="shape"/>
<feGaussianBlur stdDeviation="97" result="effect1_foregroundBlur"/>
</filter>
<filter id="filter1_d" x="-42.3203" y="115.159" width="848.016" height="680.645" filterUnits="userSpaceOnUse" color-interpolation-filters="sRGB">
<feFlood flood-opacity="0" result="BackgroundImageFix"/>
<feColorMatrix in="SourceAlpha" type="matrix" values="0 0 0 0 0 0 0 0 0 0 0 0 0 0 0 0 0 0 127 0"/>
<feOffset dy="14"/>
<feGaussianBlur stdDeviation="10.5"/>
<feColorMatrix type="matrix" values="0 0 0 0 0 0 0 0 0 0 0 0 0 0 0 0 0 0 1 0"/>
<feBlend mode="normal" in2="BackgroundImageFix" result="effect1_dropShadow"/>
<feBlend mode="normal" in="SourceGraphic" in2="effect1_dropShadow" result="shape"/>
</filter>
</defs>
</svg>
