<svg width="112" height="44" viewBox="0 0 112 44" fill="none" xmlns="http://www.w3.org/2000/svg">
<path d="M0 43.1681C0.286767 41.3676 0.583423 39.5671 0.860301 37.7641C1.06796 36.4051 1.25337 35.051 1.45608 33.6377H5.39419C4.9319 36.9575 4.4795 40.2133 4.01227 43.5849H0V43.1681Z" fill="#F44D4D"/>
<path d="M55.4651 24.0777C55.8261 21.5348 56.1771 19.3273 56.454 17.1075C56.7506 14.5843 56.7185 14.5818 59.292 14.5818H60.7604C60.0583 19.5666 59.3736 24.4477 58.6739 29.4201C57.4552 29.4201 56.2809 29.462 55.1141 29.3905C54.8199 29.3732 54.4713 29.0501 54.281 28.7738C52.5505 26.2679 50.8521 23.7398 49.1414 21.2215C48.8942 20.8639 48.647 20.5161 48.2144 19.9217C47.7372 23.2712 47.3022 26.3345 46.8646 29.3806H42.9092C43.6063 24.4477 44.2936 19.5715 44.9957 14.5818C46.2317 14.5818 47.406 14.5301 48.5679 14.6164C48.8893 14.641 49.2527 15.0332 49.4677 15.344C51.176 17.8104 52.8546 20.3213 54.5455 22.8124C54.7853 23.1553 55.035 23.4858 55.4651 24.0777Z" fill="#F44D4D"/>
<path d="M67.1184 20.3509H75.0662C74.9352 21.3794 74.8734 22.3092 74.6658 23.207C74.6064 23.466 74.1343 23.799 73.8426 23.8064C71.8327 23.8582 69.8204 23.836 67.8081 23.836H66.5943L66.31 25.8782H76.4902C76.3295 27.1312 76.1861 28.2386 76.0427 29.3658H61.8379C62.535 24.4181 63.2223 19.5394 63.9145 14.6336H78.0921C77.9413 15.7756 77.7979 16.8534 77.6373 18.062H74.1763C72.337 18.062 70.4953 18.1286 68.661 18.0373C67.6177 17.9856 67.1777 18.3309 67.2172 19.3446C67.2051 19.6817 67.1721 20.0178 67.1184 20.3509Z" fill="#F44D4D"/>
<path d="M96.1436 29.1339C96.3215 27.8859 96.4872 26.7365 96.6553 25.5699C98.4327 25.8166 100.099 26.1175 101.778 26.2359C103.15 26.332 104.536 26.2137 105.918 26.1693C106.162 26.1831 106.402 26.1135 106.601 25.9719C106.934 25.634 107.382 25.232 107.407 24.8324C107.424 24.5611 106.836 24.0432 106.467 23.9914C105.068 23.7916 103.642 23.7817 102.235 23.614C101.375 23.5233 100.53 23.3313 99.7158 23.0418C98.0496 22.4153 97.3351 21.0958 97.5799 19.3421C97.9779 16.4687 99.6268 14.868 102.841 14.3599C105.659 13.9481 108.53 14.0593 111.308 14.6879C111.884 14.8088 112.074 15.0283 111.975 15.5882C111.812 16.5007 111.681 17.4207 111.533 18.3481C109.708 18.1261 107.941 17.8351 106.163 17.7241C105.026 17.6944 103.889 17.7721 102.766 17.956C102.121 18.0398 101.431 18.4246 101.647 19.1547C101.77 19.5641 102.447 20.013 102.927 20.082C104.635 20.3287 106.388 20.3065 108.089 20.5753C110.262 20.9231 111.51 22.1292 111.55 23.8557C111.584 25.9571 110.872 27.7897 108.86 28.7418C107.769 29.2589 106.6 29.5922 105.399 29.7284C102.302 30.037 99.1754 29.8362 96.1436 29.1339Z" fill="#F44D4D"/>
<path d="M78.6904 29.1364C78.8684 27.9032 79.0365 26.7489 79.2071 25.5699C80.9376 25.8042 82.6088 26.1101 84.2873 26.226C85.7016 26.2831 87.1179 26.26 88.5295 26.1569C88.9021 26.1572 89.2603 26.0135 89.529 25.756C89.7977 25.4985 89.9561 25.1472 89.9708 24.7757C89.9229 24.6045 89.8326 24.4482 89.7081 24.321C89.5837 24.1938 89.4292 24.1 89.2588 24.0481C87.8917 23.8607 86.5098 23.7842 85.1328 23.6559C84.6501 23.6178 84.1698 23.5536 83.694 23.4636C82.1044 23.1454 80.5495 22.6225 80.233 20.8121C79.8622 18.7477 80.3987 16.8806 82.2107 15.5808C83.5611 14.6443 85.1776 14.1661 86.8213 14.2168C89.1624 14.2415 91.501 14.535 93.8446 14.6953C94.4552 14.7372 94.5986 15.0505 94.5121 15.5906C94.3613 16.5057 94.2278 17.4257 94.0869 18.3506C92.2377 18.1237 90.4701 17.8252 88.6902 17.7241C87.5193 17.67 86.6708 17.6644 85.5266 17.9183C85.1063 18.0095 84.2097 18.2642 84.1316 19.1917C84.2873 19.9245 84.9301 19.9957 85.3825 20.0722C86.5048 20.2596 87.6593 20.2448 88.799 20.3312C89.3513 20.3665 89.901 20.434 90.4454 20.5334C92.0745 20.854 93.5504 21.4287 94.0127 23.2465C94.4626 25.0224 93.6419 27.4641 92.0029 28.3422C90.6425 29.0774 89.1571 29.5542 87.6222 29.7481C84.6903 30.086 81.7485 29.8196 78.6904 29.1364Z" fill="#F44D4D"/>
<path d="M98.1406 43.4851C98.2621 42.6473 98.3768 41.863 98.4932 41.062C99.674 41.2212 100.814 41.429 101.96 41.5077C102.925 41.5465 103.891 41.5308 104.855 41.4608C105.109 41.461 105.353 41.3634 105.537 41.1884C105.72 41.0135 105.828 40.7747 105.838 40.5224C105.805 40.4061 105.744 40.2998 105.659 40.2134C105.574 40.127 105.469 40.0633 105.352 40.028C104.419 39.9007 103.476 39.8487 102.537 39.7616C102.207 39.7357 101.88 39.692 101.555 39.6309C100.47 39.4147 99.4092 39.0594 99.1933 37.8294C98.9402 36.4268 99.3063 35.1582 100.543 34.2751C101.464 33.6389 102.567 33.314 103.689 33.3484C105.286 33.3652 106.882 33.5646 108.482 33.6735C108.898 33.702 108.996 33.9148 108.937 34.2818C108.834 34.9035 108.743 35.5286 108.647 36.157C107.385 36.0028 106.179 35.8001 104.964 35.7313C104.165 35.6946 103.634 35.664 102.854 35.8365C102.567 35.8985 101.854 36.157 101.854 36.7284C101.854 37.2201 102.398 37.2747 102.707 37.3267C103.473 37.454 104.261 37.444 105.039 37.5026C105.415 37.5266 105.791 37.5725 106.162 37.64C107.274 37.8579 108.281 38.2484 108.596 39.4834C108.903 40.69 108.343 42.349 107.225 42.9455C106.296 43.4451 105.283 43.769 104.236 43.9007C102.235 44.1303 100.227 43.9493 98.1406 43.4851Z" fill="white"/>
<path d="M6.07189 29.3781H2.13379C2.82846 24.4452 3.51571 19.5641 4.21038 14.6385H18.3782C18.2372 15.6991 18.1482 16.7104 17.9307 17.6945C17.8887 17.877 17.3226 18.0423 16.9962 18.0472C14.2942 18.0743 11.5897 18.062 8.88517 18.062H7.71339L7.39695 20.3213H15.3795C15.2163 21.5126 15.0803 22.583 14.9023 23.8014H6.89758L6.07189 29.3781Z" fill="#F44D4D"/>
<path d="M26.8076 18.1064C26.951 16.9669 27.0375 16.042 27.2106 15.1467C27.2554 15.0142 27.3331 14.8952 27.4364 14.8008C27.5397 14.7064 27.6653 14.6395 27.8014 14.6065C32.7209 14.6065 37.6405 14.6213 42.56 14.6435C42.5872 14.6435 42.6144 14.6805 42.7405 14.7742C42.6317 15.6646 42.5674 16.6241 42.3672 17.5589C42.3202 17.7734 41.8258 18.025 41.5267 18.0373C40.1423 18.0891 38.7529 18.0817 37.3686 18.0521C36.7209 18.0373 36.4761 18.2618 36.3797 18.9253C35.9248 22.3783 35.4106 25.8314 34.9088 29.3535H30.9781L32.5454 18.1039L26.8076 18.1064Z" fill="#F44D4D"/>
<path d="M22.9906 29.3756H19.0352C19.7274 24.4427 20.4121 19.5665 21.1043 14.641H25.0597C24.3577 19.5739 23.6753 24.4403 22.9906 29.3756Z" fill="#F44D4D"/>
<path d="M7.7701 33.6426H11.4585L10.1038 43.4641H6.42773C6.8653 40.2009 7.31028 36.9724 7.7701 33.6426Z" fill="#F44D4D"/>
<path d="M17.5146 33.6327C17.0573 36.9871 16.6098 40.1886 16.1574 43.464H12.7607C13.0698 41.2245 13.3738 39.0244 13.6779 36.8046C13.7891 35.9857 13.8608 35.157 14.0314 34.3382C14.0883 34.0742 14.3849 33.6771 14.5975 33.6599C15.5172 33.5982 16.4467 33.6327 17.5146 33.6327Z" fill="#F44D4D"/>
<path d="M19.1514 43.5035C19.3566 41.9274 19.5296 40.5043 19.7274 39.0861C19.9054 37.7567 20.113 36.4297 20.2688 35.0954C20.4319 33.6821 20.422 33.6722 21.8163 33.6697H23.5196C23.3466 34.9745 23.2057 36.1239 23.045 37.2683C22.7978 39.0762 22.5036 40.8767 22.3033 42.6945C22.2218 43.3728 21.9251 43.5627 21.2898 43.5183C20.6544 43.4739 19.9845 43.5035 19.1514 43.5035Z" fill="#FF7B7B"/>
<path d="M25.251 43.5035C25.4562 41.9274 25.6292 40.5043 25.827 39.0861C26.005 37.7567 26.2126 36.4297 26.3684 35.0954C26.5315 33.6821 26.5217 33.6722 27.9159 33.6697H29.6192C29.4462 34.9745 29.3053 36.1239 29.1446 37.2683C28.8974 39.0762 28.6032 40.8767 28.4029 42.6945C28.3214 43.3728 28.0247 43.5627 27.3894 43.5183C26.754 43.4739 26.0841 43.5035 25.251 43.5035Z" fill="#FFA2A2"/>
<path d="M31.3496 43.5035C31.5548 41.9274 31.7278 40.5043 31.9256 39.0861C32.1036 37.7567 32.3113 36.4297 32.467 35.0954C32.6302 33.6821 32.6203 33.6722 34.0146 33.6697H35.7179C35.5448 34.9745 35.4039 36.1239 35.2432 37.2683C34.996 39.0762 34.7018 40.8767 34.5016 42.6945C34.42 43.3728 34.1233 43.5627 33.488 43.5183C32.8527 43.4739 32.1827 43.5035 31.3496 43.5035Z" fill="#FFC9C9"/>
<path d="M37.7266 43.5035C37.9317 41.9274 38.1048 40.5043 38.3026 39.0861C38.4806 37.7567 38.6882 36.4297 38.844 35.0954C39.0071 33.6821 38.9972 33.6722 40.3915 33.6697H41.8176C41.6445 34.9745 41.5036 36.1239 41.3429 37.2683C41.0957 39.0762 40.8015 40.8767 40.6013 42.6945C40.5197 43.3728 40.2231 43.5627 39.5877 43.5183C38.9524 43.4739 38.5597 43.5035 37.7266 43.5035Z" fill="#FFE6E6"/>
<path fill-rule="evenodd" clip-rule="evenodd" d="M11.3841 0C8.23994 0 5.58997 2.34588 5.20863 5.46683C4.87177 8.22382 7.02316 10.6541 9.80065 10.6541H11.0754C14.1389 10.6541 16.7209 8.36836 17.0925 5.32744C17.4384 2.49594 15.2289 0 12.3763 0H11.3841ZM11.1173 2.35221C9.45877 2.35221 8.06099 3.58974 7.86003 5.23603C7.66111 6.86558 8.93276 8.30189 10.5744 8.30189H11.1069C12.8191 8.30189 14.2622 7.02429 14.4696 5.32468C14.6625 3.74477 13.4296 2.35221 11.8379 2.35221H11.1173Z" fill="white"/>
<path d="M70.9717 43.5849L72.3578 33.6918H75.2688L78.1797 38.6038L82.4076 33.6918H85.2492L83.9323 43.5849H81.16L81.7838 37.7736L78.5263 41.4402H76.9322L74.5757 37.7736L73.744 43.5849H70.9717Z" fill="white"/>
<path d="M19.6147 0.484283L18.2979 10.239H21.1395L21.8326 4.15095L26.1297 10.239H28.9713L30.2189 0.484283H27.4466L26.6842 6.57233L22.2484 0.484283H19.6147Z" fill="white"/>
<path d="M48.4467 0.4151L47.1299 10.1698H49.9715L50.6646 4.08177L54.9617 10.1698H57.8034L59.0509 0.4151H56.2786L55.5162 6.50315L51.0805 0.4151H48.4467Z" fill="white"/>
<path d="M59.8828 10.1698L61.0611 0.484283H70.5563L70.2098 2.7673H63.5562L63.3482 4.22013H68.6157L68.2691 6.64151H63.0017L62.7938 8.02516H69.586L69.3088 10.1698H59.8828Z" fill="white"/>
<path d="M86.3584 43.5849L87.5672 33.6227H97.3091L96.9536 35.9709H90.1272L89.9138 37.4652H95.3181L94.9625 39.9558H89.5583L89.345 41.2406H96.3136L96.0292 43.5849H86.3584Z" fill="white"/>
<path d="M31.0498 10.239L32.3667 0.4151H34.9311L33.9608 8.02516H40.753L40.545 10.239H31.0498Z" fill="white"/>
<path d="M42.4164 10.239L43.6639 0.4151H46.2283L44.9808 10.239H42.4164Z" fill="white"/>
<path fill-rule="evenodd" clip-rule="evenodd" d="M57.1104 43.5849L63.4174 33.6227H66.1897L69.6552 43.5849H66.9521L66.1897 41.717H60.9916L59.8134 43.5849H57.1104ZM64.457 36.1824L62.4471 39.3648H65.4966L64.457 36.1824Z" fill="white"/>
<path d="M56.6939 36.1132L56.9018 33.8302C56.0932 33.5535 53.6027 33.0692 50.1096 33.3459C45.7431 33.6918 45.1887 38.0503 45.1194 39.088C45.0501 40.1258 44.7035 43.0314 48.0996 43.6541C50.8165 44.1522 54.4991 43.6771 56.0008 43.3773L56.4166 38.7421H53.6443L53.3671 41.3019C52.7202 41.3711 51.0106 41.4679 49.3472 41.3019C47.2679 41.0943 47.6145 36.9434 49.5551 36.1132C51.1076 35.449 54.9612 35.8365 56.6939 36.1132Z" fill="white"/>
</svg>
