<svg width="70" height="528" viewBox="0 0 70 528" fill="none" xmlns="http://www.w3.org/2000/svg">
<path opacity="0.1" fill-rule="evenodd" clip-rule="evenodd" d="M54.1117 494.534L54.1142 494.538C55.274 496.419 55.8298 498.657 55.8298 501.207C55.8298 502.877 55.5845 504.557 55.099 506.244C54.6242 507.893 54.0771 509.306 53.4491 510.465L53.4441 510.474L53.4388 510.484C52.7983 511.607 52.063 512.696 51.2341 513.75L51.2296 513.756L51.225 513.762C50.4274 514.745 49.8732 515.413 49.5769 515.743L49.5597 515.762L49.5335 515.788L49.5303 515.791L49.5286 515.793L49.527 515.795L49.5254 515.796L49.5222 515.8L49.5206 515.801L49.519 515.803L49.5125 515.809L49.5109 515.811L49.5093 515.812L49.4997 515.822L49.4966 515.825L49.495 515.827L49.4918 515.83L49.4902 515.832L49.4886 515.833L58.7089 526.58L59.1347 526.171L59.1496 526.158C59.8694 525.519 60.7741 524.462 61.8671 522.94C62.9483 521.435 64.0358 519.696 65.1284 517.719C66.1864 515.775 67.0993 513.327 67.8548 510.359L67.8565 510.352C68.6349 507.382 69.0251 504.303 69.0251 501.114C69.0251 492.236 66.805 485.431 62.4857 480.571C58.1236 475.698 52.559 473.262 45.7124 473.262C42.6682 473.262 40.0217 474.086 37.7359 475.718L37.7293 475.723C35.3793 477.371 33.541 479.378 32.2 481.745L32.1974 481.749C30.8014 484.182 29.5888 486.643 28.5589 489.133L28.555 489.142C27.4606 491.712 26.31 493.912 25.0988 495.733L25.0943 495.74C23.8508 497.576 22.3477 498.759 20.5475 498.759C18.6663 498.759 17.1168 497.831 15.9252 496.18C14.7288 494.523 14.1702 492.44 14.1702 490.008C14.1702 487.883 14.6514 485.814 15.6009 483.81C16.4601 481.935 17.1957 480.568 17.8043 479.814C18.068 479.488 18.3206 479.193 18.5615 478.934L9.39559 468.285L9.15987 468.509L9.09894 468.552C8.53574 468.944 7.81502 469.724 6.9434 470.989L6.93898 470.995L6.93446 471.002C6.04003 472.256 5.13813 473.731 4.23006 475.43L4.22659 475.436C3.35734 477.034 2.5977 479.136 1.96351 481.769L1.96103 481.779C1.30528 484.378 0.974894 487.151 0.974894 490.101C0.974894 498.539 3.1448 505.103 7.3797 509.907C11.6101 514.71 16.6758 517.074 22.6253 517.074C25.6351 517.074 28.2833 516.252 30.6032 514.616C32.9917 512.902 34.864 510.874 36.2359 508.535C37.6671 506.062 38.9449 503.592 40.0697 501.125C41.225 498.59 42.4203 496.411 43.6591 494.596C44.9246 492.711 46.4415 491.484 48.252 491.484C50.8179 491.484 52.832 492.482 54.1117 494.534ZM44.4657 495.145C45.6662 493.355 46.9283 492.461 48.252 492.461C50.5299 492.461 52.2076 493.324 53.285 495.052C54.3316 496.749 54.8549 498.8 54.8549 501.207C54.8549 502.78 54.624 504.369 54.1623 505.973C53.7005 507.577 53.1772 508.919 52.5923 509.999C51.9767 511.079 51.2687 512.128 50.4683 513.146C49.668 514.133 49.1293 514.781 48.8522 515.089L48.1596 515.783L58.6412 528L59.7955 526.889C60.5959 526.18 61.5501 525.054 62.6583 523.511C63.7665 521.969 64.8747 520.195 65.9828 518.19C67.091 516.154 68.0299 513.624 68.7995 510.601C69.5998 507.546 70 504.384 70 501.114C70 492.075 67.7375 485.01 63.2124 479.92C58.6565 474.83 52.8232 472.285 45.7124 472.285C42.4802 472.285 39.6328 473.164 37.1702 474.922C34.7076 476.65 32.7682 478.763 31.3522 481.262C29.9362 483.73 28.7049 486.229 27.6583 488.759C26.5809 491.288 25.4573 493.432 24.2876 495.191C23.1179 496.918 21.8711 497.782 20.5475 497.782C19.0391 497.782 17.7617 497.057 16.715 495.607C15.6684 494.157 15.1451 492.291 15.1451 490.008C15.1451 488.034 15.5915 486.106 16.4842 484.224C17.3461 482.342 18.0387 481.077 18.562 480.429C19.0304 479.849 19.4371 479.405 19.7821 479.097C19.8226 479.061 19.8623 479.027 19.9011 478.995L9.4657 466.87L8.54222 467.75C7.83421 468.243 7.03386 469.138 6.14116 470.434C5.21768 471.729 4.2942 473.241 3.37071 474.969C2.44723 476.665 1.66227 478.856 1.01583 481.54C0.33861 484.224 4.87998e-07 487.077 4.51946e-07 490.101C3.49306e-07 498.708 2.21636 505.526 6.64908 510.554C11.051 515.552 16.3764 518.051 22.6253 518.051C25.8267 518.051 28.6741 517.172 31.1675 515.413C33.6609 513.624 35.631 511.495 37.0778 509.027C38.5246 506.528 39.8175 504.029 40.9565 501.531C42.0954 499.032 43.2652 496.903 44.4657 495.145ZM18.0079 426.981L18.0079 408.517L1.89314 405.093L1.89314 460.068L18.0079 463.492L18.0079 444.982L68.1069 455.626L68.1069 437.625L18.0079 426.981ZM67.132 438.416L17.033 427.773L17.033 409.309L2.86803 406.299L2.86803 459.276L17.033 462.286L17.033 443.776L67.132 454.42L67.132 438.416ZM40.7308 373.927L40.7308 388.942L17.0753 376.467L40.7308 373.927ZM52.9565 372.441L67.132 370.637L67.132 354.002L2.86803 364.736L2.86803 383.249L67.132 421.245L67.132 403.362L52.9565 395.68L52.9565 372.441ZM68.1069 402.779L68.1069 422.955L1.89314 383.806L1.89314 363.908L68.1069 352.848L68.1069 371.497L53.9314 373.302L53.9314 395.098L68.1069 402.779ZM20.3628 377.097L39.7559 387.323L39.7559 375.014L20.3628 377.097ZM68.1069 298.429L68.1069 283.158L1.89314 269.137L1.89314 287.138L38.7863 295.004L1.89314 315.828L1.89314 331.192L68.1069 345.213L68.1069 327.212L31.2137 319.438L68.1069 298.429ZM67.132 328.005L28.4937 319.863L67.132 297.86L67.132 283.95L2.86804 270.342L2.86804 286.347L41.5127 294.587L2.86804 316.399L2.86804 330.399L67.132 344.008L67.132 328.005ZM10.4354 208.146C4.74055 213.884 1.89314 221.087 1.89314 229.756L1.89314 253.912L68.1069 267.933L68.1069 240.353C68.1069 229.001 64.5207 219.36 57.3483 211.431C50.1451 203.503 41.2181 199.539 30.5673 199.539C22.81 199.539 16.0994 202.408 10.4354 208.146ZM56.6274 212.089C49.608 204.363 40.9423 200.516 30.5673 200.516C23.0813 200.516 16.6172 203.272 11.1284 208.833L11.1266 208.835C5.62726 214.376 2.86804 221.325 2.86804 229.756L2.86804 253.12L67.132 266.728L67.132 240.353C67.132 229.228 63.6258 219.826 56.6274 212.089ZM17.033 240.128L17.033 232.116C17.033 227.675 18.3997 223.991 21.1911 221.159C23.9428 218.335 27.4323 216.933 31.5831 216.933C37.6263 216.933 42.7359 219.28 46.8544 223.922C50.9346 228.49 53.0131 233.575 53.0131 239.15L53.0131 247.712L17.033 240.128ZM46.128 224.574C42.1878 220.131 37.3395 217.91 31.5831 217.91C27.6737 217.91 24.4415 219.221 21.8865 221.843C19.3008 224.466 18.0079 227.89 18.0079 232.116L18.0079 239.335L52.0383 246.508L52.0383 239.15C52.0383 233.844 50.0682 228.985 46.128 224.574ZM40.7308 158.284L40.7308 173.299L17.0753 160.825L40.7308 158.284ZM52.9565 156.799L67.132 154.994L67.132 138.359L2.86804 149.093L2.86804 167.606L67.132 205.602L67.132 187.719L52.9565 180.038L52.9565 156.799ZM68.1069 187.137L68.1069 207.313L1.89314 168.164L1.89314 148.266L68.1069 137.206L68.1069 155.855L53.9314 157.66L53.9314 179.455L68.1069 187.137ZM20.3628 161.454L39.7559 171.681L39.7559 159.372L20.3628 161.454ZM43.4037 78.7141C43.0343 77.6344 42.3109 76.3232 41.2335 74.7807C40.1253 73.2074 38.8017 71.634 37.2625 70.0607C35.6926 68.4873 33.5224 67.1453 30.752 66.0347C27.9815 64.9241 24.9186 64.3688 21.5633 64.3688C16.2687 64.3688 11.6667 66.4203 7.75726 70.5234C3.84785 74.6265 1.89315 79.7168 1.89314 85.7942L1.89314 115.549L68.1069 129.571L68.1069 111.57L47.2823 107.22L47.2823 97.2705L68.1069 90.3292L68.1069 71.7728L44.004 80.38L43.4037 78.7141ZM67.132 73.1582L43.4167 81.6269L42.4841 79.0385L42.4815 79.031C42.1549 78.0762 41.49 76.8521 40.4371 75.3442C39.3636 73.8202 38.0755 72.2876 36.5691 70.7474C35.1189 69.2955 33.0751 68.0183 30.3899 66.9419C27.7481 65.8828 24.81 65.3458 21.5633 65.3458C16.5549 65.3458 12.202 67.2732 8.46234 71.1982C4.73921 75.1057 2.86804 79.9484 2.86804 85.7942L2.86804 114.757L67.132 128.366L67.132 112.364L46.3074 108.014L46.3074 96.5658L67.132 89.6245L67.132 73.1582ZM18.0079 100.973L18.0079 88.9409C18.0079 87.0899 18.562 85.6091 19.6702 84.4985C20.7476 83.3571 22.0712 82.7863 23.6412 82.7863C25.9191 82.7863 27.7507 83.6501 29.1359 85.3777C30.5211 87.1053 31.2137 89.1106 31.2137 91.3935L31.2137 103.795L18.0079 100.973ZM18.971 83.8175C17.6543 85.1426 17.033 86.8856 17.033 88.9409L17.033 101.763L32.1886 105.003L32.1886 91.3935C32.1886 88.8953 31.4246 86.6725 29.8958 84.7657C28.3192 82.7994 26.2042 81.8093 23.6412 81.8093C21.8081 81.8093 20.2313 82.487 18.971 83.8175ZM18.0079 21.8882L18.0079 3.42438L1.89315 2.25755e-08L1.89315 54.9749L18.0079 58.3993L18.0079 39.8892L68.1069 50.5325L68.1069 32.5315L18.0079 21.8882ZM67.132 33.3231L17.033 22.6798L17.033 4.216L2.86804 1.20599L2.86804 54.1834L17.033 57.1934L17.033 38.6834L67.132 49.3267L67.132 33.3231Z" fill="white"/>
</svg>
