<svg width="1673" height="141" viewBox="0 0 1673 141" fill="none" xmlns="http://www.w3.org/2000/svg">
<path opacity="0.1" fill-rule="evenodd" clip-rule="evenodd" d="M73.7119 36.3408H110.729L117.594 3.96289H7.37891L0.513672 36.3408H37.623L16.2852 137H52.374L73.7119 36.3408ZM51.5638 136L72.9017 35.3408H109.918L116.359 4.96289H8.1891L1.74794 35.3408H38.8573L17.5194 136H51.5638ZM210.46 87.3662C212.625 86.624 215.253 85.1706 218.346 83.0059C221.5 80.7793 224.654 78.1198 227.809 75.0273C230.963 71.873 233.653 67.5127 235.88 61.9463C238.106 56.3799 239.22 50.2259 239.22 43.4844C239.22 32.8464 235.107 23.5999 226.881 15.7451C218.655 7.8903 208.45 3.96289 196.266 3.96289H136.612L108.502 137H144.591L153.312 95.1592H173.258L187.174 137H224.376L207.12 88.5723L210.46 87.3662ZM222.958 136L205.844 87.9699L210.128 86.4229L210.136 86.4203C212.172 85.7219 214.712 84.3286 217.769 82.1889C220.873 79.9981 223.985 77.3754 227.105 74.3167C230.135 71.2853 232.76 67.0543 234.951 61.5749C237.125 56.1404 238.22 50.1145 238.22 43.4844C238.22 33.14 234.234 24.149 226.19 16.4683C218.164 8.80462 208.213 4.96289 196.266 4.96289H137.423L109.735 136H143.778L152.498 94.1592H173.979L187.895 136H222.958ZM165.836 36.3408H189.957C193.668 36.3408 196.637 37.4541 198.863 39.6807C201.152 41.8454 202.296 44.5049 202.296 47.6592C202.296 52.236 200.564 55.916 197.101 58.6992C193.637 61.4824 189.617 62.874 185.04 62.874H160.177L165.836 36.3408ZM199.561 38.9638C197.114 36.5231 193.877 35.3408 189.957 35.3408H165.027L158.941 63.874H185.04C189.837 63.874 194.08 62.4092 197.727 59.4787C201.435 56.4992 203.296 52.5285 203.296 47.6592C203.296 44.2351 202.042 41.316 199.561 38.9638ZM327.261 81.0371H299.815L322.618 37.7001L327.261 81.0371ZM330.462 107.519L334.08 136H369.406L347.567 4.96289H309.093L231.786 136H269.888L285.289 107.519H330.462ZM270.484 137H230.035L308.521 3.96289H348.414L370.587 137H333.199L329.581 108.519H285.885L270.484 137ZM321.974 41.0723L301.471 80.0371H326.148L321.974 41.0723ZM479.688 137H510.304L538.414 3.96289H502.325L486.554 78.0889L444.806 3.96289H414.005L385.895 137H421.983L437.569 62.874L479.688 137ZM421.172 136L437.134 60.0839L480.27 136H509.493L537.181 4.96289H503.135L486.981 80.8855L444.221 4.96289H414.816L387.128 136H421.172ZM599.989 108.068L599.985 108.07C596.395 110.289 592.092 111.374 587.12 111.374C583.867 111.374 580.588 110.895 577.287 109.943C574.025 109.002 571.262 107.926 569.016 106.707L569.006 106.702L568.997 106.696C566.788 105.434 564.644 103.983 562.566 102.346L562.56 102.341L562.554 102.337C560.578 100.732 559.26 99.6332 558.619 99.0568L558.6 99.0392L558.581 99.0206L558.578 99.0173L558.574 99.0141L558.571 99.0108L558.568 99.0076L558.558 98.9978L558.555 98.9946L558.552 98.9913L558.548 98.9881L558.532 98.9719L558.529 98.9687L558.526 98.9654L558.523 98.9622L558.513 98.9526L558.51 98.9493L558.507 98.9461L558.503 98.9429L558.5 98.9397L558.497 98.9365L558.494 98.9333L558.49 98.9301L558.487 98.9269L558.484 98.9237L558.481 98.9205L558.478 98.9173L558.474 98.9141L558.465 98.9045L558.462 98.9014L558.455 98.895L558.452 98.8918L558.443 98.8823L558.44 98.8791L558.436 98.876L558.433 98.8728L558.43 98.8696L558.421 98.8602L558.417 98.857L558.414 98.8539L558.411 98.8507L558.408 98.8475L558.405 98.8444L558.402 98.8413L558.398 98.8381L558.395 98.835L558.392 98.8318L558.389 98.8287L558.383 98.8224L558.38 98.8193L558.373 98.8131L558.37 98.81L558.367 98.8068L558.364 98.8037L558.361 98.8006L558.355 98.7944L558.352 98.7913L558.349 98.7881L558.345 98.785L558.333 98.7726L558.33 98.7695L558.327 98.7664L558.324 98.7634L558.321 98.7603L558.318 98.7572L558.315 98.7541L558.311 98.751L558.308 98.7479L558.305 98.7449L558.302 98.7418L558.299 98.7387L558.296 98.7356L558.287 98.7264L558.284 98.7234L558.281 98.7203L558.278 98.7173L558.259 98.6989L558.253 98.6929L558.25 98.6898L558.244 98.6837L558.241 98.6807L558.238 98.6777L558.235 98.6747L558.232 98.6716L558.226 98.6656L558.223 98.6626L558.22 98.6595L558.217 98.6565L558.214 98.6535L558.211 98.6505L558.202 98.6415L558.199 98.6385L558.196 98.6355L558.193 98.6325L558.19 98.6295L558.175 98.6145L558.172 98.6115L558.169 98.6086L558.163 98.6026L558.16 98.5996L558.154 98.5937L558.151 98.5907L558.148 98.5877L558.145 98.5848L558.142 98.5818L558.139 98.5788L558.136 98.5759L558.133 98.5729L558.13 98.57L558.127 98.567L558.124 98.5641L558.116 98.5552L558.113 98.5523L558.11 98.5494L558.107 98.5464L558.104 98.5435L558.101 98.5405L558.092 98.5318L558.089 98.5288L558.086 98.5259L558.08 98.5201L558.078 98.5172L558.075 98.5142L558.072 98.5113L558.069 98.5084L558.066 98.5055L558.063 98.5026L558.06 98.4997L558.057 98.4968L558.054 98.4939L558.051 98.491L558.049 98.4881L558.046 98.4852L558.043 98.4823L558.04 98.4794L558.037 98.4765L558.028 98.4679L558.025 98.465L558.023 98.4621L558.005 98.4449L558.002 98.4421L558 98.4392L557.991 98.4306L557.988 98.4278L557.985 98.4249L557.982 98.4221L557.98 98.4193L557.977 98.4164L557.974 98.4136L557.971 98.4107L557.968 98.4079L557.965 98.4051L557.963 98.4022L557.96 98.3994L557.957 98.3966L557.951 98.3909L557.948 98.3881L557.946 98.3853L557.94 98.3797L557.926 98.3656L557.923 98.3628L557.92 98.36L557.915 98.3544L557.912 98.3516L557.906 98.3461L557.904 98.3433L557.901 98.3405L557.898 98.3377L557.895 98.3349L557.893 98.3321L557.89 98.3294L557.887 98.3266L557.884 98.3238L557.881 98.321L557.879 98.3183L557.876 98.3155L557.873 98.3127L557.87 98.31L557.868 98.3072L557.865 98.3045L557.862 98.3017L557.859 98.299L557.857 98.2962L557.848 98.288L557.846 98.2852L534.857 118.051L536.366 119.623L536.38 119.638C537.729 121.164 539.917 123.03 542.988 125.241C546.041 127.44 549.561 129.644 553.551 131.855C557.54 134.03 562.528 135.89 568.534 137.423L568.541 137.424C574.578 139.01 580.832 139.804 587.306 139.804C605.263 139.804 619.162 135.301 629.131 126.419C639.113 117.465 644.104 106.02 644.104 92.0049C644.104 85.7036 642.397 80.1886 639.001 75.4221L638.996 75.4153C635.614 70.5829 631.486 66.7901 626.612 64.0219L626.607 64.0193C621.695 61.1948 616.724 58.74 611.693 56.6542L611.684 56.6502C606.571 54.4681 602.215 52.1829 598.626 49.7901L598.619 49.7855C595.044 47.3596 592.985 44.5917 592.985 41.4434C592.985 38.0303 594.647 35.1846 597.76 32.9329C600.879 30.6765 604.842 29.5889 609.571 29.5889C613.684 29.5889 617.694 30.5214 621.592 32.3735C625.358 34.1024 627.998 35.5379 629.405 36.6769C630.336 37.4307 631.117 38.1232 631.734 38.7524L654.51 19.1058L653.418 17.9558L653.374 17.8933C652.488 16.6193 650.813 15.0929 648.246 13.3209L648.24 13.3164L648.233 13.3118C645.677 11.4861 642.684 9.65278 639.25 7.81312L639.244 7.80956C635.944 6.0097 631.643 4.45854 626.314 3.17228L626.304 3.16973C621.01 1.83103 615.372 1.15918 609.386 1.15918C592.303 1.15918 578.894 5.56466 569.042 14.268L568.38 13.5186C578.461 4.6123 592.13 0.15918 609.386 0.15918C615.447 0.15918 621.168 0.83952 626.549 2.2002C631.93 3.49902 636.321 5.07617 639.723 6.93164C643.186 8.78711 646.217 10.6426 648.814 12.498C651.412 14.2917 653.206 15.8997 654.195 17.3223L655.958 19.1777L631.651 40.1445C631.586 40.0664 631.517 39.9866 631.445 39.905C630.827 39.2118 629.938 38.3949 628.775 37.4541C627.477 36.4027 624.941 35.0111 621.168 33.2793C617.395 31.4857 613.53 30.5889 609.571 30.5889C604.994 30.5889 601.253 31.6403 598.346 33.7432C595.439 35.846 593.985 38.4128 593.985 41.4434C593.985 44.1029 595.717 46.6077 599.181 48.958C602.706 51.3083 607.005 53.5658 612.076 55.7305C617.148 57.8333 622.158 60.3073 627.105 63.1523C632.115 65.9974 636.352 69.8939 639.815 74.8418C643.341 79.7897 645.104 85.5107 645.104 92.0049C645.104 106.292 640.001 118.012 629.796 127.166C619.591 136.258 605.427 140.804 587.306 140.804C580.75 140.804 574.41 140 568.287 138.392C562.226 136.845 557.154 134.959 553.072 132.732C549.052 130.506 545.496 128.279 542.403 126.053C539.311 123.826 537.053 121.909 535.631 120.301L533.404 117.981L557.896 96.9219L559.288 98.3135C559.907 98.8701 561.205 99.9525 563.185 101.561C565.226 103.169 567.328 104.591 569.493 105.828C571.658 107.003 574.348 108.055 577.564 108.982C580.781 109.91 583.966 110.374 587.12 110.374C591.944 110.374 596.057 109.323 599.459 107.22C602.923 105.055 604.654 101.684 604.654 97.1074C604.654 94.4479 602.861 91.9121 599.273 89.5C595.748 87.0879 591.48 84.7376 586.471 82.4492C581.461 80.1608 576.451 77.5631 571.441 74.6562C566.493 71.7494 562.226 67.791 558.639 62.7812C555.113 57.7715 553.351 52.0505 553.351 45.6182C553.351 33.0628 558.36 22.363 568.38 13.5186L569.042 14.268C559.222 22.9364 554.351 33.3699 554.351 45.6182C554.351 51.8543 556.055 57.3714 559.455 62.2034C562.965 67.1043 567.128 70.9615 571.943 73.7913C576.926 76.6828 581.907 79.2654 586.886 81.5396C591.933 83.8448 596.252 86.2213 599.835 88.6728C603.52 91.1513 605.654 93.9485 605.654 97.1074C605.654 101.98 603.784 105.696 599.989 108.068ZM714.127 36.3408H780.646L787.511 3.96289H684.903L656.793 137H692.882L702.716 90.4277H754.02L760.885 58.1426H709.581L714.127 36.3408ZM759.65 59.1426H708.351L713.314 35.3408H779.835L786.276 4.96289H685.714L658.026 136H692.071L701.905 89.4277H753.21L759.65 59.1426ZM830.868 44.5426L830.871 44.54C839.518 35.8925 849.633 31.5371 861.173 31.5371C871.305 31.5371 879.673 34.8084 886.19 41.3891C892.755 47.9554 896.035 56.0983 896.035 65.75C896.035 78.0768 891.661 88.4816 882.926 96.8997C874.28 105.293 864.232 109.519 852.823 109.519C842.694 109.519 834.298 106.28 827.72 99.7662L827.713 99.7594C821.207 93.1891 817.961 84.983 817.961 75.2129C817.961 63.4341 822.279 53.1953 830.868 44.5426ZM882.232 96.1797C890.768 87.9538 895.035 77.8105 895.035 65.75C895.035 56.349 891.85 48.4632 885.479 42.0928C879.171 35.7223 871.069 32.5371 861.173 32.5371C849.916 32.5371 840.051 36.7738 831.578 45.2471C823.167 53.7204 818.961 63.709 818.961 75.2129C818.961 84.7376 822.115 92.6852 828.424 99.0557C834.794 105.364 842.927 108.519 852.823 108.519C863.956 108.519 873.759 104.406 882.232 96.1797ZM912.477 18.8066C899.055 6.375 882.263 0.15918 862.101 0.15918C840.701 0.15918 821.899 7.92122 805.694 23.4453C789.49 38.9694 781.388 56.9984 781.388 77.5322C781.388 94.9118 788.098 109.817 801.52 122.249C814.941 134.619 831.733 140.804 851.896 140.804C865.812 140.804 878.985 137.186 891.417 129.949C903.91 122.713 913.899 113.157 921.383 101.282C928.867 89.3454 932.608 76.7282 932.608 63.4307C932.608 46.0511 925.898 31.1764 912.477 18.8066ZM920.537 100.749C927.926 88.9621 931.608 76.5282 931.608 63.4307C931.608 46.3459 925.026 31.7331 911.799 19.542L911.797 19.5403C898.58 7.29795 882.039 1.15918 862.101 1.15918C840.972 1.15918 822.414 8.81207 806.386 24.1674C790.358 39.5223 782.388 57.2979 782.388 77.5322C782.388 94.6172 788.97 109.262 802.199 121.515C815.415 133.695 831.956 139.804 851.896 139.804C865.629 139.804 878.63 136.236 890.914 129.085L890.916 129.084C903.273 121.926 913.142 112.483 920.537 100.749ZM1041.9 87.3662C1044.06 86.624 1046.69 85.1706 1049.78 83.0059C1052.94 80.7793 1056.09 78.1198 1059.24 75.0273C1062.4 71.873 1065.09 67.5127 1067.32 61.9463C1069.54 56.3799 1070.66 50.2259 1070.66 43.4844C1070.66 32.8464 1066.54 23.5999 1058.32 15.7451C1050.09 7.8903 1039.89 3.96289 1027.7 3.96289H968.048L939.938 137H976.026L984.747 95.1592H1004.69L1018.61 137H1055.81L1038.56 88.5723L1041.9 87.3662ZM1054.39 136L1037.28 87.9699L1041.56 86.4257L1041.56 86.4229L1041.57 86.4203C1043.61 85.7217 1046.15 84.3276 1049.21 82.1866C1052.31 79.9969 1055.42 77.3755 1058.54 74.3189C1061.57 71.2873 1064.19 67.0556 1066.39 61.5749C1068.56 56.1404 1069.66 50.1145 1069.66 43.4844C1069.66 33.14 1065.67 24.149 1057.63 16.4683C1049.6 8.80462 1039.65 4.96289 1027.7 4.96289H968.859L941.171 136H975.213L983.934 94.1592H1005.41L1019.33 136H1054.39ZM997.271 36.3408H1021.39C1025.1 36.3408 1028.07 37.4541 1030.3 39.6807C1032.59 41.8454 1033.73 44.5049 1033.73 47.6592C1033.73 52.236 1032 55.916 1028.54 58.6992C1025.07 61.4824 1021.05 62.874 1016.48 62.874H991.612L997.271 36.3408ZM1031 38.9634C1028.55 36.5229 1025.31 35.3408 1021.39 35.3408H996.462L990.377 63.874H1016.48C1021.27 63.874 1025.52 62.4092 1029.16 59.4787C1032.87 56.4992 1034.73 52.5285 1034.73 47.6592C1034.73 44.2349 1033.48 41.3157 1031 38.9634ZM1134.76 3.96289H1104.8L1076.69 137H1112.77L1129.47 58.1426L1156.66 104.715L1203.6 58.1426L1186.9 137H1222.99L1251.1 3.96289H1216.5L1164.63 56.2871L1134.76 3.96289ZM1216.91 4.96289L1164.42 57.9256L1134.18 4.96289H1105.61L1077.92 136H1111.96L1129.03 55.4019L1156.87 103.095L1205.27 55.0755L1188.13 136H1222.18L1249.87 4.96289H1216.91ZM1335.34 81.0371H1307.89L1330.69 37.7001L1335.34 81.0371ZM1338.54 107.519L1342.16 136H1377.48L1355.64 4.96289H1317.17L1239.86 136H1277.96L1293.36 107.519H1338.54ZM1278.56 137H1238.11L1316.6 3.96289H1356.49L1378.66 137H1341.28L1337.66 108.519H1293.96L1278.56 137ZM1330.05 41.0723L1309.55 80.0371H1334.22L1330.05 41.0723ZM1465.5 36.3408H1502.52L1509.38 3.96289H1399.17L1392.3 36.3408H1429.41L1408.07 137H1444.16L1465.5 36.3408ZM1443.35 136L1464.69 35.3408H1501.71L1508.15 4.96289H1399.98L1393.54 35.3408H1430.64L1409.31 136H1443.35ZM1500.29 137H1536.38L1564.49 3.96289H1528.4L1500.29 137ZM1501.52 136H1535.57L1563.25 4.96289H1529.21L1501.52 136ZM1621.11 44.5426L1621.12 44.54C1629.76 35.8925 1639.88 31.5371 1651.42 31.5371C1661.55 31.5371 1669.91 34.8073 1676.43 41.3857C1683 47.9525 1686.28 56.0966 1686.28 65.75C1686.28 78.0768 1681.91 88.4816 1673.17 96.8997C1664.52 105.293 1654.48 109.519 1643.07 109.519C1632.94 109.519 1624.54 106.28 1617.96 99.7662L1617.96 99.7594C1611.45 93.1891 1608.21 84.983 1608.21 75.2129C1608.21 63.4341 1612.52 53.1953 1621.11 44.5426ZM1672.48 96.1797C1681.01 87.9538 1685.28 77.8105 1685.28 65.75C1685.28 56.349 1682.09 48.4632 1675.72 42.0928C1669.42 35.7223 1661.31 32.5371 1651.42 32.5371C1640.16 32.5371 1630.3 36.7738 1621.82 45.2471C1613.41 53.7204 1609.21 63.709 1609.21 75.2129C1609.21 84.7376 1612.36 92.6852 1618.67 99.0557C1625.04 105.364 1633.17 108.519 1643.07 108.519C1654.2 108.519 1664 104.406 1672.48 96.1797ZM1702.72 18.8066C1689.3 6.375 1672.51 0.15918 1652.34 0.15918C1630.94 0.15918 1612.14 7.92122 1595.94 23.4453C1579.73 38.9694 1571.63 56.9984 1571.63 77.5322C1571.63 94.9118 1578.34 109.817 1591.76 122.249C1605.18 134.619 1621.98 140.804 1642.14 140.804C1656.06 140.804 1669.23 137.186 1681.66 129.949C1694.15 122.713 1704.14 113.157 1711.63 101.282C1719.11 89.3454 1722.85 76.7282 1722.85 63.4307C1722.85 46.0511 1716.14 31.1764 1702.72 18.8066ZM1710.78 100.749C1718.17 88.9621 1721.85 76.5282 1721.85 63.4307C1721.85 46.3459 1715.27 31.7331 1702.04 19.542L1702.04 19.5403C1688.82 7.29795 1672.28 1.15918 1652.34 1.15918C1631.22 1.15918 1612.66 8.81207 1596.63 24.1674C1580.6 39.5223 1572.63 57.2979 1572.63 77.5322C1572.63 94.6172 1579.21 109.262 1592.44 121.515C1605.66 133.695 1622.2 139.804 1642.14 139.804C1655.87 139.804 1668.87 136.236 1681.16 129.085L1681.16 129.084C1693.52 121.926 1703.39 112.483 1710.78 100.749ZM1823.98 137H1854.59L1882.7 3.96289H1846.61L1830.84 78.0889L1789.09 3.96289H1758.29L1730.18 137H1766.27L1781.86 62.874L1823.98 137ZM1765.46 136L1781.42 60.0839L1824.56 136H1853.78L1881.47 4.96289H1847.42L1831.27 80.8855L1788.51 4.96289H1759.1L1731.42 136H1765.46Z" fill="white"/>
</svg>
