<svg width="1883" height="141" viewBox="0 0 1883 141" fill="none" xmlns="http://www.w3.org/2000/svg">
<path opacity="0.1" fill-rule="evenodd" clip-rule="evenodd" d="M73.1982 36.1816H110.215L117.08 3.80371H6.86523L0 36.1816H37.1094L15.7715 136.841H51.8604L73.1982 36.1816ZM51.0501 135.841L72.388 35.1816H109.405L115.846 4.80371H7.67543L1.23426 35.1816H38.3436L17.0057 135.841H51.0501ZM209.946 87.207C212.111 86.4648 214.74 85.0114 217.832 82.8467C220.986 80.6201 224.141 77.9606 227.295 74.8682C230.449 71.7139 233.14 67.3535 235.366 61.7871C237.593 56.2207 238.706 50.0667 238.706 43.3252C238.706 32.6872 234.593 23.4408 226.367 15.5859C218.141 7.73112 207.936 3.80371 195.752 3.80371H136.099L107.988 136.841H144.077L152.798 95H172.744L186.66 136.841H223.862L206.606 88.4131L209.946 87.207ZM222.444 135.841L205.33 87.8107L209.614 86.2637L209.622 86.2611C211.659 85.5628 214.198 84.1694 217.255 82.0297C220.359 79.8389 223.471 77.2162 226.591 74.1575C229.622 71.1261 232.246 66.8951 234.438 61.4157C236.612 55.9812 237.706 49.9553 237.706 43.3252C237.706 32.9808 233.72 23.9899 225.677 16.3092C217.651 8.64544 207.699 4.80371 195.752 4.80371H136.909L109.222 135.841H143.264L151.985 94H173.465L187.381 135.841H222.444ZM165.322 36.1816H189.443C193.154 36.1816 196.123 37.2949 198.35 39.5215C200.638 41.6862 201.782 44.3457 201.782 47.5C201.782 52.0768 200.05 55.7568 196.587 58.54C193.123 61.3232 189.103 62.7148 184.526 62.7148H159.663L165.322 36.1816ZM199.047 38.8046C196.601 36.3639 193.363 35.1816 189.443 35.1816H164.513L158.427 63.7148H184.526C189.324 63.7148 193.566 62.25 197.213 59.3195C200.921 56.34 202.782 52.3693 202.782 47.5C202.782 44.0759 201.529 41.1568 199.047 38.8046ZM326.748 80.8779H299.301L322.104 37.5409L326.748 80.8779ZM329.948 107.359L333.567 135.841H368.893L347.053 4.80371H308.579L231.272 135.841H269.375L284.775 107.359H329.948ZM269.971 136.841H229.521L308.008 3.80371H347.9L370.073 136.841H332.686L329.067 108.359H285.371L269.971 136.841ZM321.46 40.9131L300.957 79.8779H325.635L321.46 40.9131ZM479.175 136.841H509.79L537.9 3.80371H501.812L486.04 77.9297L444.292 3.80371H413.491L385.381 136.841H421.47L437.056 62.7148L479.175 136.841ZM420.658 135.841L436.62 59.9247L479.757 135.841H508.979L536.667 4.80371H502.621L486.467 80.7263L443.708 4.80371H414.302L386.614 135.841H420.658ZM599.475 107.909L599.471 107.911C595.882 110.13 591.578 111.215 586.606 111.215C583.353 111.215 580.074 110.736 576.774 109.784C573.511 108.843 570.749 107.767 568.502 106.548L568.493 106.543L568.483 106.537C566.274 105.275 564.13 103.824 562.052 102.187L562.046 102.182L562.04 102.177C560.065 100.572 558.746 99.474 558.105 98.8976L558.086 98.88L558.067 98.8614L558.064 98.8581L558.061 98.8549L558.058 98.8516L558.054 98.8484L558.045 98.8386L558.041 98.8354L558.038 98.8321L558.035 98.8289L558.019 98.8127L558.015 98.8095L558.012 98.8063L558.009 98.803L557.999 98.7934L557.996 98.7902L557.993 98.787L557.99 98.7837L557.986 98.7805L557.983 98.7773L557.98 98.7741L557.977 98.7709L557.974 98.7677L557.97 98.7645L557.967 98.7613L557.964 98.7581L557.961 98.7549L557.951 98.7454L557.948 98.7422L557.942 98.7358L557.939 98.7326L557.929 98.7231L557.926 98.72L557.923 98.7168L557.919 98.7136L557.916 98.7104L557.907 98.701L557.904 98.6978L557.901 98.6947L557.897 98.6915L557.894 98.6884L557.891 98.6852L557.888 98.6821L557.885 98.6789L557.882 98.6758L557.879 98.6727L557.875 98.6695L557.869 98.6633L557.866 98.6601L557.86 98.6539L557.857 98.6508L557.854 98.6476L557.85 98.6445L557.847 98.6414L557.841 98.6352L557.838 98.6321L557.835 98.629L557.832 98.6259L557.819 98.6135L557.816 98.6104L557.813 98.6073L557.81 98.6042L557.807 98.6011L557.804 98.598L557.801 98.5949L557.798 98.5918L557.795 98.5888L557.792 98.5857L557.789 98.5826L557.785 98.5795L557.782 98.5765L557.773 98.5673L557.77 98.5642L557.767 98.5611L557.764 98.5581L557.746 98.5398L557.74 98.5337L557.737 98.5306L557.73 98.5246L557.727 98.5215L557.724 98.5185L557.721 98.5155L557.718 98.5125L557.712 98.5064L557.709 98.5034L557.706 98.5004L557.703 98.4973L557.7 98.4943L557.697 98.4913L557.688 98.4823L557.685 98.4793L557.682 98.4763L557.679 98.4733L557.676 98.4703L557.661 98.4553L557.658 98.4524L557.655 98.4494L557.649 98.4434L557.646 98.4404L557.64 98.4345L557.637 98.4315L557.634 98.4286L557.631 98.4256L557.629 98.4226L557.626 98.4197L557.623 98.4167L557.62 98.4138L557.617 98.4108L557.614 98.4079L557.611 98.4049L557.602 98.3961L557.599 98.3931L557.596 98.3902L557.593 98.3872L557.59 98.3843L557.587 98.3814L557.578 98.3726L557.576 98.3697L557.573 98.3667L557.567 98.3609L557.564 98.358L557.561 98.3551L557.558 98.3522L557.555 98.3492L557.552 98.3463L557.549 98.3434L557.546 98.3405L557.544 98.3376L557.541 98.3347L557.538 98.3318L557.535 98.3289L557.532 98.326L557.529 98.3232L557.526 98.3203L557.523 98.3174L557.515 98.3087L557.512 98.3058L557.509 98.303L557.492 98.2858L557.489 98.2829L557.486 98.28L557.477 98.2715L557.475 98.2686L557.472 98.2658L557.469 98.2629L557.466 98.2601L557.463 98.2572L557.46 98.2544L557.457 98.2516L557.455 98.2487L557.452 98.2459L557.449 98.2431L557.446 98.2402L557.443 98.2374L557.438 98.2318L557.435 98.2289L557.432 98.2261L557.426 98.2205L557.412 98.2064L557.41 98.2036L557.407 98.2008L557.401 98.1953L557.398 98.1925L557.393 98.1869L557.39 98.1841L557.387 98.1813L557.384 98.1785L557.382 98.1757L557.379 98.173L557.376 98.1702L557.373 98.1674L557.371 98.1646L557.368 98.1619L557.365 98.1591L557.362 98.1563L557.359 98.1536L557.357 98.1508L557.354 98.148L557.351 98.1453L557.348 98.1425L557.346 98.1398L557.343 98.137L557.335 98.1288L557.332 98.1261L534.344 117.892L535.853 119.464L535.866 119.479C537.216 121.005 539.403 122.871 542.474 125.082C545.527 127.28 549.047 129.485 553.037 131.695C557.026 133.871 562.014 135.731 568.021 137.263L568.027 137.265C574.065 138.851 580.319 139.645 586.792 139.645C604.75 139.645 618.648 135.142 628.617 126.26C638.599 117.305 643.59 105.861 643.59 91.8457C643.59 85.5444 641.883 80.0294 638.487 75.2629L638.482 75.2561C635.1 70.4238 630.972 66.6309 626.098 63.8627L626.093 63.8601C621.181 61.0356 616.21 58.5808 611.18 56.495L611.17 56.4911C606.058 54.3089 601.702 52.0237 598.112 49.6309L598.105 49.6263C594.53 47.2004 592.472 44.4325 592.472 41.2842C592.472 37.8711 594.133 35.0254 597.246 32.7738C600.365 30.5173 604.329 29.4297 609.058 29.4297C613.171 29.4297 617.18 30.3623 621.078 32.2143C624.844 33.9432 627.484 35.3788 628.891 36.5177C629.822 37.2716 630.603 37.9641 631.221 38.5932L653.997 18.9466L652.904 17.7966L652.861 17.7341C651.974 16.4601 650.299 14.9338 647.733 13.1618L647.726 13.1572L647.72 13.1526C645.164 11.3269 642.171 9.4936 638.737 7.65394L638.73 7.65038C635.43 5.85052 631.129 4.29936 625.801 3.0131L625.79 3.01056C620.496 1.67185 614.858 1 608.872 1C591.789 1 578.38 5.40548 568.528 14.1088L567.866 13.3594C577.948 4.45312 591.616 0 608.872 0C614.933 0 620.654 0.68034 626.035 2.04102C631.416 3.33984 635.807 4.91699 639.209 6.77246C642.673 8.62793 645.703 10.4834 648.301 12.3389C650.898 14.1325 652.692 15.7406 653.682 17.1631L655.444 19.0186L631.138 39.9854C631.073 39.9072 631.004 39.8274 630.931 39.7458C630.314 39.0527 629.424 38.2357 628.262 37.2949C626.963 36.2435 624.427 34.8519 620.654 33.1201C616.882 31.3265 613.016 30.4297 609.058 30.4297C604.481 30.4297 600.739 31.4811 597.832 33.584C594.925 35.6869 593.472 38.2536 593.472 41.2842C593.472 43.9437 595.203 46.4486 598.667 48.7988C602.192 51.1491 606.491 53.4066 611.562 55.5713C616.634 57.6742 621.644 60.1481 626.592 62.9932C631.602 65.8382 635.838 69.7347 639.302 74.6826C642.827 79.6305 644.59 85.3516 644.59 91.8457C644.59 106.133 639.487 117.853 629.282 127.007C619.077 136.099 604.914 140.645 586.792 140.645C580.236 140.645 573.896 139.84 567.773 138.232C561.712 136.686 556.641 134.8 552.559 132.573C548.538 130.347 544.982 128.12 541.89 125.894C538.797 123.667 536.54 121.75 535.117 120.142L532.891 117.822L557.383 96.7627L558.774 98.1543C559.393 98.7109 560.692 99.7933 562.671 101.401C564.712 103.009 566.815 104.432 568.979 105.669C571.144 106.844 573.835 107.896 577.051 108.823C580.267 109.751 583.452 110.215 586.606 110.215C591.431 110.215 595.544 109.163 598.945 107.061C602.409 104.896 604.141 101.525 604.141 96.9482C604.141 94.2887 602.347 91.7529 598.76 89.3408C595.234 86.9287 590.967 84.5784 585.957 82.29C580.947 80.0016 575.938 77.404 570.928 74.4971C565.98 71.5902 561.712 67.6318 558.125 62.6221C554.6 57.6123 552.837 51.8913 552.837 45.459C552.837 32.9036 557.847 22.2038 567.866 13.3594L568.528 14.1088C558.708 22.7772 553.837 33.2108 553.837 45.459C553.837 51.6951 555.542 57.2122 558.941 62.0442C562.451 66.9452 566.614 70.8023 571.43 73.6321C576.413 76.5236 581.394 79.1062 586.372 81.3804C591.419 83.6857 595.738 86.0621 599.322 88.5136C603.006 90.9922 605.141 93.7893 605.141 96.9482C605.141 101.82 603.271 105.536 599.475 107.909ZM713.613 36.1816H780.132L786.997 3.80371H684.39L656.279 136.841H692.368L702.202 90.2686H753.506L760.371 57.9834H709.067L713.613 36.1816ZM759.136 58.9834H707.837L712.8 35.1816H779.322L785.763 4.80371H685.2L657.513 135.841H691.557L701.391 89.2686H752.696L759.136 58.9834ZM830.355 44.3834L830.357 44.3808C839.005 35.7334 849.119 31.3779 860.659 31.3779C870.792 31.3779 879.16 34.6493 885.676 41.2299C892.241 47.7962 895.521 55.9391 895.521 65.5908C895.521 77.9176 891.147 88.3225 882.413 96.7405C873.766 105.134 863.718 109.359 852.31 109.359C842.18 109.359 833.784 106.121 827.206 99.607L827.2 99.6002C820.693 93.0299 817.447 84.8238 817.447 75.0537C817.447 63.2749 821.765 53.0361 830.355 44.3834ZM881.719 96.0205C890.254 87.7946 894.521 77.6514 894.521 65.5908C894.521 56.1898 891.336 48.304 884.966 41.9336C878.657 35.5631 870.555 32.3779 860.659 32.3779C849.403 32.3779 839.538 36.6146 831.064 45.0879C822.653 53.5612 818.447 63.5498 818.447 75.0537C818.447 84.5784 821.602 92.526 827.91 98.8965C834.281 105.205 842.414 108.359 852.31 108.359C863.442 108.359 873.245 104.246 881.719 96.0205ZM911.963 18.6475C898.542 6.21582 881.75 0 861.587 0C840.187 0 821.385 7.76204 805.181 23.2861C788.976 38.8102 780.874 56.8392 780.874 77.373C780.874 94.7526 787.585 109.658 801.006 122.09C814.427 134.46 831.219 140.645 851.382 140.645C865.298 140.645 878.472 137.026 890.903 129.79C903.397 122.554 913.385 112.998 920.869 101.123C928.353 89.1862 932.095 76.569 932.095 63.2715C932.095 45.8919 925.384 31.0173 911.963 18.6475ZM920.023 100.59C927.412 88.8029 931.095 76.369 931.095 63.2715C931.095 46.1867 924.513 31.574 911.285 19.3828L911.283 19.3811C898.067 7.13877 881.526 1 861.587 1C840.458 1 821.901 8.65289 805.872 24.0082C789.845 39.3631 781.874 57.1387 781.874 77.373C781.874 94.458 788.456 109.103 801.685 121.356C814.902 133.536 831.443 139.645 851.382 139.645C865.115 139.645 878.116 136.076 890.4 128.926L890.402 128.925C902.76 121.767 912.628 112.324 920.023 100.59ZM1041.38 87.207C1043.55 86.4648 1046.18 85.0114 1049.27 82.8467C1052.42 80.6201 1055.58 77.9606 1058.73 74.8682C1061.88 71.7139 1064.58 67.3535 1066.8 61.7871C1069.03 56.2207 1070.14 50.0667 1070.14 43.3252C1070.14 32.6872 1066.03 23.4408 1057.8 15.5859C1049.58 7.73112 1039.37 3.80371 1027.19 3.80371H967.534L939.424 136.841H975.513L984.233 95H1004.18L1018.1 136.841H1055.3L1038.04 88.4131L1041.38 87.207ZM1053.88 135.841L1036.77 87.8107L1041.04 86.2665L1041.05 86.2637L1041.06 86.2611C1043.09 85.5625 1045.64 84.1684 1048.69 82.0275C1051.8 79.8377 1054.91 77.2164 1058.02 74.1597C1061.06 71.1281 1063.68 66.8964 1065.87 61.4157C1068.05 55.9812 1069.14 49.9553 1069.14 43.3252C1069.14 32.9808 1065.16 23.9899 1057.11 16.3092C1049.09 8.64544 1039.13 4.80371 1027.19 4.80371H968.345L940.657 135.841H974.7L983.42 94H1004.9L1018.82 135.841H1053.88ZM996.758 36.1816H1020.88C1024.59 36.1816 1027.56 37.2949 1029.79 39.5215C1032.07 41.6862 1033.22 44.3457 1033.22 47.5C1033.22 52.0768 1031.49 55.7568 1028.02 58.54C1024.56 61.3232 1020.54 62.7148 1015.96 62.7148H991.099L996.758 36.1816ZM1030.48 38.8042C1028.04 36.3637 1024.8 35.1816 1020.88 35.1816H995.949L989.863 63.7148H1015.96C1020.76 63.7148 1025 62.25 1028.65 59.3195C1032.36 56.34 1034.22 52.3693 1034.22 47.5C1034.22 44.0758 1032.96 41.1565 1030.48 38.8042ZM1134.25 3.80371H1104.28L1076.17 136.841H1112.26L1128.96 57.9834L1156.14 104.556L1203.09 57.9834L1186.39 136.841H1222.48L1250.59 3.80371H1215.98L1164.12 56.1279L1134.25 3.80371ZM1216.4 4.80371L1163.91 57.7664L1133.67 4.80371H1105.09L1077.41 135.841H1111.45L1128.52 55.2427L1156.36 102.936L1204.76 54.9163L1187.62 135.841H1221.66L1249.35 4.80371H1216.4ZM1334.82 80.8779H1307.38L1330.18 37.5409L1334.82 80.8779ZM1338.02 107.359L1341.64 135.841H1376.97L1355.13 4.80371H1316.66L1239.35 135.841H1277.45L1292.85 107.359H1338.02ZM1278.05 136.841H1237.6L1316.08 3.80371H1355.98L1378.15 136.841H1340.76L1337.14 108.359H1293.45L1278.05 136.841ZM1329.54 40.9131L1309.03 79.8779H1333.71L1329.54 40.9131ZM1464.99 36.1816H1502L1508.87 3.80371H1398.65L1391.79 36.1816H1428.9L1407.56 136.841H1443.65L1464.99 36.1816ZM1442.84 135.841L1464.18 35.1816H1501.19L1507.63 4.80371H1399.46L1393.02 35.1816H1430.13L1408.79 135.841H1442.84ZM1499.78 136.841H1535.86L1563.97 3.80371H1527.89L1499.78 136.841ZM1501.01 135.841H1535.05L1562.74 4.80371H1528.7L1501.01 135.841ZM1620.6 44.3834L1620.6 44.3808C1629.25 35.7334 1639.36 31.3779 1650.9 31.3779C1661.03 31.3779 1669.4 34.6481 1675.92 41.2265C1682.48 47.7934 1685.77 55.9374 1685.77 65.5908C1685.77 77.9176 1681.39 88.3225 1672.66 96.7405C1664.01 105.134 1653.96 109.359 1642.55 109.359C1632.42 109.359 1624.03 106.121 1617.45 99.607L1617.44 99.6002C1610.94 93.0299 1607.69 84.8238 1607.69 75.0537C1607.69 63.2749 1612.01 53.0361 1620.6 44.3834ZM1671.96 96.0205C1680.5 87.7946 1684.77 77.6514 1684.77 65.5908C1684.77 56.1898 1681.58 48.304 1675.21 41.9336C1668.9 35.5631 1660.8 32.3779 1650.9 32.3779C1639.65 32.3779 1629.78 36.6146 1621.31 45.0879C1612.9 53.5612 1608.69 63.5498 1608.69 75.0537C1608.69 84.5784 1611.85 92.526 1618.15 98.8965C1624.52 105.205 1632.66 108.359 1642.55 108.359C1653.69 108.359 1663.49 104.246 1671.96 96.0205ZM1702.21 18.6475C1688.79 6.21582 1671.99 0 1651.83 0C1630.43 0 1611.63 7.76204 1595.42 23.2861C1579.22 38.8102 1571.12 56.8392 1571.12 77.373C1571.12 94.7526 1577.83 109.658 1591.25 122.09C1604.67 134.46 1621.46 140.645 1641.63 140.645C1655.54 140.645 1668.72 137.026 1681.15 129.79C1693.64 122.554 1703.63 112.998 1711.11 101.123C1718.6 89.1862 1722.34 76.569 1722.34 63.2715C1722.34 45.8919 1715.63 31.0173 1702.21 18.6475ZM1710.27 100.59C1717.66 88.8029 1721.34 76.369 1721.34 63.2715C1721.34 46.1867 1714.76 31.574 1701.53 19.3828L1701.53 19.3811C1688.31 7.13877 1671.77 1 1651.83 1C1630.7 1 1612.14 8.65289 1596.12 24.0082C1580.09 39.3631 1572.12 57.1387 1572.12 77.373C1572.12 94.458 1578.7 109.103 1591.93 121.356C1605.15 133.536 1621.69 139.645 1641.63 139.645C1655.36 139.645 1668.36 136.076 1680.64 128.926L1680.65 128.925C1693 121.767 1702.87 112.324 1710.27 100.59ZM1823.46 136.841H1854.08L1882.19 3.80371H1846.1L1830.33 77.9297L1788.58 3.80371H1757.78L1729.67 136.841H1765.76L1781.34 62.7148L1823.46 136.841ZM1764.95 135.841L1780.91 59.9247L1824.04 135.841H1853.27L1880.95 4.80371H1846.91L1830.75 80.7263L1787.99 4.80371H1758.59L1730.9 135.841H1764.95Z" fill="white"/>
</svg>
