<svg width="1128" height="106" viewBox="0 0 1128 106" fill="none" xmlns="http://www.w3.org/2000/svg">
<path opacity="0.1" fill-rule="evenodd" clip-rule="evenodd" d="M55.52 27.2407H83.3799L88.5469 2.87207H5.5957L0.428711 27.2407H28.3584L12.2988 103H39.4604L55.52 27.2407ZM38.6502 102L54.7098 26.2407H82.5697L87.3126 3.87207H6.4059L1.66298 26.2407H29.5926L13.533 102H38.6502ZM152.464 103H179.626L200.782 2.87207H173.621L165.8 40.0884H129.282L137.172 2.87207H110.011L88.8541 103H116.016L124.185 64.3872H160.633L152.464 103ZM115.205 102L123.375 63.3872H161.867L153.698 102H178.815L199.549 3.87207H174.432L166.612 41.0884H128.048L135.938 3.87207H110.822L90.0875 102H115.205ZM286.415 65.644C288.044 65.0854 290.022 63.9915 292.35 62.3623C294.724 60.6865 297.098 58.6849 299.472 56.3574C301.846 53.9834 303.871 50.7017 305.547 46.5122C307.222 42.3228 308.06 37.6911 308.06 32.6172C308.06 24.6107 304.965 17.6515 298.774 11.7397C292.583 5.82796 284.902 2.87207 275.732 2.87207H230.835L209.678 103H236.84L243.403 71.5093H258.415L268.889 103H296.888L283.901 66.5518L286.415 65.644ZM295.47 102L282.625 65.9494L286.083 64.7007L286.09 64.6981C287.592 64.1832 289.483 63.1487 291.776 61.5435C294.098 59.9041 296.429 57.94 298.768 55.6475C301.018 53.3963 302.977 50.2437 304.618 46.1408C306.241 42.0833 307.06 37.5796 307.06 32.6172C307.06 24.9043 304.092 18.2006 298.083 12.463C292.092 6.74228 284.665 3.87207 275.732 3.87207H231.645L210.911 102H236.026L242.59 70.5093H259.137L269.61 102H295.47ZM252.829 27.2407H270.984C273.777 27.2407 276.011 28.0786 277.687 29.7544C279.409 31.3836 280.27 33.3853 280.27 35.7593C280.27 39.2039 278.967 41.9736 276.36 44.0684C273.753 46.1631 270.728 47.2104 267.283 47.2104H248.57L252.829 27.2407ZM278.384 29.0373C276.488 27.1475 273.986 26.2407 270.984 26.2407H252.02L247.334 48.2104H267.283C270.948 48.2104 274.196 47.0899 276.986 44.8479C279.838 42.5568 281.27 39.4964 281.27 35.7593C281.27 33.1154 280.3 30.8541 278.384 29.0373ZM350.494 81.0977L354.549 61.9907H393.161L397.277 42.4849H358.667L362.367 24.7744H412.434L416.895 3.87207H341.716L320.982 102H397.562L402.023 81.0977H350.494ZM403.259 80.0977L398.371 103H319.749L340.906 2.87207H418.131L413.243 25.7744H363.18L359.898 41.4849H398.511L393.972 62.9907H355.359L351.728 80.0977H403.259ZM453.443 81.0977L457.498 61.9907H496.11L500.226 42.4849H461.616L465.316 24.7744H515.383L519.844 3.87207H444.665L423.931 102H500.511L504.971 81.0977H453.443ZM506.207 80.0977L501.32 103H422.698L443.854 2.87207H521.08L516.192 25.7744H466.128L462.847 41.4849H501.459L496.921 62.9907H458.308L454.677 80.0977H506.207ZM640.066 41.7483L646.462 102H670.586L722.455 3.87207H694.572L663.227 67.2177L657.978 3.87207H636.47L604.268 67.1841L599.459 3.87207H573.643L584.455 102H608.232L640.066 41.7483ZM608.835 103H583.559L572.526 2.87207H600.386L604.995 63.5493L635.857 2.87207H658.899L663.926 63.5493L693.951 2.87207H724.115L671.188 103H645.563L639.418 45.1157L608.835 103ZM753.771 81.0977L757.826 61.9907H796.438L800.554 42.4849H761.944L765.644 24.7744H815.711L820.172 3.87207H744.993L724.259 102H800.839L805.299 81.0977H753.771ZM806.535 80.0977L801.648 103H723.026L744.182 2.87207H821.408L816.52 25.7744H766.456L763.174 41.4849H801.787L797.249 62.9907H758.636L755.005 80.0977H806.535ZM856.719 81.0977L860.775 61.9907H899.387L903.503 42.4849H864.893L868.592 24.7744H918.66L923.121 3.87207H847.942L827.208 102H903.787L908.248 81.0977H856.719ZM909.484 80.0977L904.596 103H825.974L847.131 2.87207H924.357L919.469 25.7744H869.405L866.123 41.4849H904.736L900.198 62.9907H861.585L857.954 80.0977H909.484ZM976.257 62.9947L993.877 102H1021.71L995.938 45.0209L1039.12 3.87207H1008.37L967.696 42.925L976.006 3.87207H950.891L930.157 102H955.275L960.48 77.4826L976.257 62.9947ZM956.085 103H928.923L950.08 2.87207H977.242L969.351 39.9487L1007.96 2.87207H1041.62L997.141 45.2554L1023.26 103H993.231L975.915 64.6665L961.391 78.0029L956.085 103ZM1085.19 81.4344L1085.19 81.437C1082.44 83.1358 1079.15 83.9604 1075.37 83.9604C1072.9 83.9604 1070.41 83.5965 1067.9 82.8739C1065.44 82.1623 1063.34 81.3466 1061.63 80.4179L1061.62 80.4127L1061.61 80.4073C1059.94 79.4508 1058.31 78.3522 1056.74 77.1126L1056.73 77.108L1056.73 77.1033C1055.24 75.8959 1054.24 75.0653 1053.76 74.6266L1053.74 74.609L1053.72 74.5904L1053.72 74.588L1053.7 74.5757L1053.69 74.5635L1053.68 74.5538L1053.68 74.5513L1053.68 74.5489L1053.67 74.5465L1053.67 74.5441L1053.67 74.5416L1053.67 74.5392L1053.66 74.5344L1053.66 74.532L1053.66 74.5295L1053.65 74.5271L1053.65 74.5223L1053.65 74.5199L1053.65 74.5175L1053.64 74.5151L1053.64 74.5127L1053.64 74.5079L1053.63 74.5055L1053.63 74.5007L1053.63 74.4983L1053.62 74.4935L1053.62 74.4911L1053.62 74.4887L1053.61 74.4863L1053.61 74.4839L1053.61 74.4816L1053.61 74.4792L1053.6 74.4768L1053.6 74.4744L1053.6 74.472L1053.6 74.4697L1053.6 74.4673L1053.59 74.4649L1053.59 74.4625L1053.59 74.4602L1053.59 74.4578L1053.58 74.4554L1053.58 74.4531L1053.58 74.4507L1053.58 74.4484L1053.57 74.446L1053.57 74.4413L1053.57 74.4389L1053.56 74.4319L1053.56 74.4295L1053.55 74.4272L1053.55 74.4202L1053.55 74.4178L1053.54 74.4155L1053.53 74.4061L1053.53 74.4038L1053.53 74.4015L1053.53 74.3991L1053.52 74.3968L1053.52 74.3945L1053.52 74.3922L1053.51 74.3829L1053.51 74.3783L1053.5 74.376L1053.5 74.3713L1053.49 74.3621L1053.49 74.3598L1053.49 74.3575L1053.48 74.3529L1053.48 74.3506L1053.48 74.3483L1053.47 74.346L1053.47 74.3392L1053.46 74.3369L1053.46 74.3323L1053.46 74.3301L1053.46 74.3278L1053.45 74.3255L1053.45 74.3232L1053.45 74.3187L1053.44 74.3164L1053.44 74.3141L1053.44 74.3119L1053.44 74.3096L1053.44 74.3073L1053.43 74.3051L1053.43 74.3028L1053.43 74.3006L1053.43 74.2983L1053.42 74.2961L1053.42 74.2938L1053.42 74.2915L1053.42 74.2893L1053.41 74.287L1053.41 74.2848L1053.41 74.2825L1053.41 74.2781L1053.4 74.2758L1053.4 74.2736L1053.4 74.2713L1053.4 74.2691L1053.39 74.2646L1053.39 74.2624L1053.39 74.2602L1053.38 74.2557L1053.38 74.2535L1053.38 74.2513L1053.37 74.2446L1053.37 74.2424L1053.36 74.2313L1053.35 74.2225L1053.35 74.2203L1053.34 74.2115L1053.34 74.2093L1053.33 74.2006L1053.33 74.1984L1036.4 88.7555L1037.34 89.7391L1037.36 89.7538L1037.37 89.7691C1038.37 90.8968 1040 92.289 1042.3 93.9492C1044.59 95.5968 1047.23 97.2508 1050.23 98.9102C1053.2 100.535 1056.94 101.929 1061.45 103.078L1061.45 103.08C1065.97 104.268 1070.66 104.863 1075.51 104.863C1088.99 104.863 1099.38 101.485 1106.82 94.8542C1114.28 88.1635 1118.01 79.6177 1118.01 69.1353C1118.01 64.4404 1116.74 60.3406 1114.22 56.798L1114.21 56.7913C1111.69 53.1829 1108.61 50.3539 1104.97 48.2895L1104.97 48.2868C1101.28 46.1661 1097.55 44.3233 1093.77 42.7577L1093.76 42.7538C1089.9 41.1071 1086.61 39.3803 1083.9 37.5689L1083.89 37.5643C1081.17 35.7198 1079.54 33.5715 1079.54 31.0811C1079.54 28.4177 1080.84 26.2069 1083.24 24.4754C1085.64 22.7391 1088.67 21.9116 1092.27 21.9116C1095.4 21.9116 1098.46 22.6223 1101.42 24.0306C1104.25 25.3312 1106.27 26.4225 1107.35 27.3014C1107.98 27.8075 1108.52 28.2803 1108.96 28.7183L1125.73 14.2513L1125.08 13.5603L1125.03 13.4978C1124.39 12.5757 1123.16 11.4471 1121.24 10.1188L1121.23 10.1143L1121.22 10.1096C1119.31 8.74294 1117.07 7.3686 1114.49 5.98793L1114.48 5.98437C1112.03 4.64349 1108.81 3.48247 1104.81 2.51749L1104.8 2.51495C1100.84 1.51284 1096.62 1.00928 1092.13 1.00928C1079.32 1.00928 1069.29 4.31319 1061.93 10.8134L1061.27 10.064C1068.86 3.36084 1079.14 0.00927734 1092.13 0.00927734C1096.69 0.00927734 1101 0.52132 1105.05 1.54541C1109.1 2.52295 1112.4 3.70996 1114.96 5.10645C1117.57 6.50293 1119.85 7.89941 1121.81 9.2959C1123.76 10.6458 1125.11 11.8561 1125.86 12.9268L1127.18 14.3232L1108.89 30.1035C1108.84 30.0447 1108.79 29.9845 1108.73 29.9231C1108.27 29.4014 1107.6 28.7866 1106.72 28.0786C1105.75 27.2873 1103.84 26.2399 1101 24.9365C1098.16 23.5866 1095.25 22.9116 1092.27 22.9116C1088.83 22.9116 1086.01 23.703 1083.82 25.2856C1081.63 26.8683 1080.54 28.8001 1080.54 31.0811C1080.54 33.0827 1081.84 34.9679 1084.45 36.7368C1087.1 38.5057 1090.34 40.2048 1094.16 41.834C1097.97 43.4167 1101.74 45.2786 1105.47 47.4199C1109.24 49.5612 1112.43 52.4938 1115.03 56.2178C1117.69 59.9417 1119.01 64.2476 1119.01 69.1353C1119.01 79.8882 1115.17 88.7093 1107.49 95.5986C1099.81 102.441 1089.15 105.863 1075.51 105.863C1070.58 105.863 1065.81 105.258 1061.2 104.047C1056.64 102.884 1052.82 101.464 1049.75 99.7881C1046.72 98.1123 1044.04 96.4365 1041.72 94.7607C1039.39 93.085 1037.69 91.6419 1036.62 90.4316L1034.94 88.686L1053.38 72.8359L1054.43 73.8833C1054.89 74.3022 1055.87 75.1169 1057.36 76.3271C1058.89 77.5374 1060.48 78.6081 1062.11 79.5391C1063.74 80.4235 1065.76 81.2148 1068.18 81.9131C1070.6 82.6113 1073 82.9604 1075.37 82.9604C1079 82.9604 1082.1 82.1691 1084.66 80.5864C1087.27 78.9572 1088.57 76.4202 1088.57 72.9756C1088.57 70.974 1087.22 69.0654 1084.52 67.25C1081.87 65.4346 1078.65 63.6657 1074.88 61.9434C1071.11 60.221 1067.34 58.266 1063.57 56.0781C1059.85 53.8903 1056.64 50.9111 1053.94 47.1406C1051.28 43.3701 1049.96 39.0643 1049.96 34.2231C1049.96 24.7736 1053.73 16.7205 1061.27 10.064L1061.93 10.8134C1054.59 17.294 1050.96 25.0807 1050.96 34.2231C1050.96 38.8663 1052.22 42.9667 1054.75 46.5584C1057.37 50.2237 1060.48 53.1041 1064.08 55.2159C1067.82 57.3872 1071.56 59.3263 1075.3 61.0338C1079.11 62.7732 1082.37 64.5686 1085.08 66.4237" fill="white"/>
</svg>
