<svg width="20" height="20" viewBox="0 0 20 20" fill="none" xmlns="http://www.w3.org/2000/svg">
<path d="M14.6875 4.6875C14.0403 4.6875 13.5156 4.16285 13.5156 3.51562V1.17188C13.5156 0.524648 14.0403 0 14.6875 0C15.3347 0 15.8594 0.524648 15.8594 1.17188V3.51562C15.8594 4.16285 15.3347 4.6875 14.6875 4.6875Z" fill="#F44D4D"/>
<path d="M17.8516 2.34375H17.0312V3.51562C17.0312 4.80797 15.9798 5.85938 14.6875 5.85938C13.3952 5.85938 12.3438 4.80797 12.3438 3.51562V2.34375H7.65625V3.51562C7.65625 4.80797 6.60484 5.85938 5.3125 5.85938C4.02016 5.85938 2.96875 4.80797 2.96875 3.51562V2.34375H2.14844C0.963789 2.34375 0 3.30754 0 4.49219V7.10938H20V4.49219C20 3.30754 19.0362 2.34375 17.8516 2.34375Z" fill="#F44D4D"/>
<path d="M5.3125 4.6875C4.66527 4.6875 4.14062 4.16285 4.14062 3.51562V1.17188C4.14062 0.524648 4.66527 0 5.3125 0C5.95973 0 6.48438 0.524648 6.48438 1.17188V3.51562C6.48438 4.16285 5.95973 4.6875 5.3125 4.6875Z" fill="#F44D4D"/>
<path fill-rule="evenodd" clip-rule="evenodd" d="M0 17.8516V8.28125H20V17.8516C20 19.0362 19.0362 20 17.8516 20H2.14844C0.963789 20 0 19.0362 0 17.8516ZM4.83453 17.9999H10.2585V16.3199H7.16253C9.03453 14.8799 9.97053 13.3639 9.97053 11.7719C9.97053 11.1399 9.75053 10.6039 9.31053 10.1639C8.87853 9.72385 8.27453 9.50385 7.49853 9.50385C6.78653 9.50385 6.20253 9.68385 5.74653 10.0439C5.29853 10.3959 5.00253 10.8879 4.85853 11.5199L6.35853 12.2039C6.47053 11.8999 6.59453 11.6759 6.73053 11.5319C6.86653 11.3799 7.05053 11.3039 7.28253 11.3039C7.79453 11.3039 8.05053 11.5799 8.05053 12.1319C8.05053 12.5799 7.91053 13.0159 7.63053 13.4399L7.23453 14.0519C7.12253 14.2199 6.93053 14.4479 6.65853 14.7359C6.41853 14.9759 6.22653 15.1759 6.08253 15.3359L5.42253 15.9959C5.03853 16.3639 4.84253 16.5519 4.83453 16.5599V17.9999ZM10.8641 11.2559L11.8001 12.7439L12.6401 12.1559V17.9999H14.4401V9.59985H13.1441L10.8641 11.2559Z" fill="#F44D4D"/>
</svg>
