<svg width="24" height="24" viewBox="0 0 24 24" fill="none" xmlns="http://www.w3.org/2000/svg">
<path fill-rule="evenodd" clip-rule="evenodd" d="M6 4C4.89543 4 4 4.89543 4 6V18C4 19.1046 4.89543 20 6 20H18C19.1046 20 20 19.1046 20 18V6C20 4.89543 19.1046 4 18 4H6ZM10.6387 15.4539C10.7589 15.4539 10.8747 15.4063 10.9595 15.3209L16.2452 10.0348C16.5112 9.7693 16.5112 9.33815 16.2452 9.07222L15.9244 8.75127C15.6588 8.48534 15.2277 8.48534 14.9617 8.75127L10.6387 13.0744L9.0388 11.4744C8.77287 11.2085 8.34214 11.2085 8.07612 11.4744L7.75525 11.7954C7.48932 12.0608 7.48932 12.4921 7.75525 12.758L10.3178 15.3209C10.4026 15.4063 10.5184 15.4539 10.6387 15.4539Z" fill="#F44D4D"/>
</svg>
