<svg width="24" height="24" viewBox="0 0 24 24" fill="none" xmlns="http://www.w3.org/2000/svg">
<path d="M10.0459 10.6665H13.9537V13.3332H10.0459V10.6665Z" fill="#F44D4D"/>
<path d="M21.4749 16.3629C21.7646 16.3629 22.0003 16.1272 22.0003 15.8375V8.16215C22.0003 7.87242 21.7646 7.63672 21.4749 7.63672H19.8525V16.3629H21.4749Z" fill="#F44D4D"/>
<path d="M18.0125 18.4336C18.3759 18.4336 18.6715 18.138 18.6715 17.7746V6.22539C18.6715 5.86203 18.3759 5.56641 18.0125 5.56641H15.785C15.4216 5.56641 15.126 5.86203 15.126 6.22539V17.7746C15.126 18.138 15.4216 18.4336 15.785 18.4336H18.0125V18.4336Z" fill="#F44D4D"/>
<path d="M4.14777 16.3629V7.63672H2.52543C2.2357 7.63672 2 7.87246 2 8.16215V15.8375C2 16.1272 2.2357 16.3629 2.52543 16.3629H4.14777Z" fill="#F44D4D"/>
<path d="M8.87469 6.22539C8.87469 5.86203 8.57906 5.56641 8.21566 5.56641H5.98813C5.62473 5.56641 5.3291 5.86203 5.3291 6.22539V17.7746C5.3291 18.138 5.62473 18.4336 5.98813 18.4336H8.21566C8.57906 18.4336 8.87469 18.138 8.87469 17.7746V6.22539Z" fill="#F44D4D"/>
</svg>
