<svg width="24" height="24" viewBox="0 0 24 24" fill="none" xmlns="http://www.w3.org/2000/svg">
<path d="M18.7659 4.83274C14.7947 1.98069 10.8241 7.5274 6.85288 5.59835V5.18799C6.85288 4.67836 6.43789 4.26489 5.9264 4.26489C5.41492 4.26489 5 4.67836 5 5.18799V21.077C5 21.5865 5.41492 22 5.9264 22C6.43789 22 6.85288 21.5865 6.85288 21.077V14.3457C10.6274 16.1786 14.4021 11.2587 18.1773 13.2166C18.3515 13.3073 18.5609 13.3013 18.7291 13.1991C18.8974 13.0976 19 12.9161 19 12.7195C19 10.2425 19 7.76538 19 5.28768C19 5.10805 18.9124 4.93788 18.7659 4.83274Z" fill="#F44D4D"/>
</svg>
