<svg width="24" height="24" viewBox="0 0 24 24" fill="none" xmlns="http://www.w3.org/2000/svg">
<path d="M4.41653 17.6039L10.6904 11.33L18.0204 4H18.5933L18.7102 4.29722C19.019 5.08172 19.1509 5.88409 19.0917 6.6175C19.0242 7.4535 18.7066 8.17728 18.1732 8.71069L12.451 14.4329L11.6962 13.6781L6.40606 19.5935C5.87981 20.1198 4.97403 20.151 4.41653 19.5935C3.86797 19.045 3.86797 18.1525 4.41653 17.6039Z" fill="#F44D4D"/>
<path d="M15.1021 13.1079L19.5837 17.5895C20.1322 18.138 20.1322 19.0305 19.5837 19.579C19.0627 20.1001 18.1613 20.1461 17.5942 19.579L13.1126 15.0974L15.1021 13.1079Z" fill="#F44D4D"/>
<path d="M4.67894 6.66447L7.22116 9.20666L7.88438 8.54347L5.34216 6.00125L6.00534 5.33806L8.54753 7.88025L9.21072 7.21706L6.6685 4.67487L7.33166 4.01172L10.6476 7.32766C11.0532 7.73331 11.2955 8.27194 11.3297 8.84437C11.3384 8.98941 11.3712 9.13206 11.4258 9.26775L9.27175 11.4218C9.13606 11.3672 8.99338 11.3343 8.84838 11.3257C8.27594 11.2915 7.73731 11.0492 7.33166 10.6436L4.01572 7.32769L4.67894 6.66447Z" fill="#F44D4D"/>
</svg>
