<svg width="56" height="56" viewBox="0 0 56 56" fill="none" xmlns="http://www.w3.org/2000/svg">
<g clip-path="url(#clip0)">
<path d="M28.0002 56C25.9723 56 24.3281 54.3559 24.3281 52.3279C24.3281 50.2999 25.9723 48.6558 28.0002 48.6558C30.0282 48.6558 31.6723 50.2999 31.6723 52.3279C31.6723 54.3559 30.0282 56 28.0002 56Z" fill="#F44D4D"/>
<path d="M14.2295 22.9509V23.8691H21.5737C21.5737 21.8411 23.2178 20.197 25.2458 20.197H30.754C32.782 20.197 34.4261 21.8411 34.4261 23.8691V26.6233C34.4261 28.6512 32.782 30.2954 30.754 30.2954H27.9998C25.9718 30.2954 24.3277 31.9395 24.3277 33.9675V41.3117C24.3277 43.3397 25.9718 44.9838 27.9998 44.9838C30.0278 44.9838 31.6719 43.3397 31.6719 41.3117V37.6396C37.249 37.6396 41.7703 33.1183 41.7703 27.5412V22.9509C41.7703 17.3738 37.249 12.8525 31.6719 12.8525H24.3277C18.7508 12.8527 14.2295 17.374 14.2295 22.9509Z" fill="#F44D4D"/>
<path d="M32.7587 50.9638L32.4219 49.1581C32.9975 49.0507 33.5778 48.9193 34.1449 48.7689L34.6187 50.5435C34.0055 50.7049 33.3794 50.8472 32.7587 50.9638Z" fill="white"/>
<path d="M38.2011 49.2985L37.4732 47.6131C38.5444 47.1495 39.5948 46.5995 40.5916 45.9799L41.562 47.5378C40.4878 48.2069 39.3568 48.7991 38.2011 49.2985ZM17.7264 49.2672C16.5725 48.7633 15.4442 48.1683 14.371 47.4953L15.3469 45.9394C16.3429 46.5645 17.3913 47.1172 18.4608 47.5835L17.7264 49.2672ZM44.6272 45.3032L43.4384 43.9033C44.3335 43.145 45.1781 42.3133 45.9502 41.4329L47.3309 42.6429C46.4991 43.5902 45.5894 44.4862 44.6272 45.3032ZM11.3138 45.2527C10.3546 44.4339 9.4474 43.5359 8.61662 42.5849L10.0011 41.3787C10.7723 42.2627 11.615 43.0963 12.5063 43.8565L11.3138 45.2527ZM49.6158 39.6161L48.0735 38.621C48.7096 37.6341 49.277 36.594 49.759 35.5282L51.4317 36.2847C50.9131 37.433 50.3017 38.5538 49.6158 39.6161ZM6.34187 39.5509C5.65974 38.4868 5.05301 37.3633 4.53617 36.2129L6.21065 35.462C6.68989 36.5297 7.25451 37.5726 7.8869 38.5595L6.34187 39.5509ZM52.7345 32.7245L50.9681 32.2241C51.2868 31.0976 51.5235 29.9382 51.6732 28.775L53.4945 29.0083C53.3347 30.2603 53.0778 31.5108 52.7345 32.7245ZM3.24358 32.6453C2.90399 31.4307 2.65232 30.1794 2.49624 28.9274L4.3176 28.6998C4.46273 29.8629 4.69676 31.0233 5.01168 32.1526L3.24358 32.6453ZM51.8641 25.2553C51.8422 24.0802 51.7329 22.9006 51.541 21.7475L53.3522 21.4465C53.5596 22.6868 53.6763 23.9564 53.7002 25.2214L51.8641 25.2553ZM4.13684 25.1809L2.30078 25.1413C2.3284 23.8753 2.44943 22.6057 2.65977 21.3664L4.47095 21.6748C4.27354 22.8252 4.16151 24.005 4.13684 25.1809ZM50.7075 18.3278C50.3457 17.2152 49.8978 16.1191 49.3745 15.068L51.0169 14.2481C51.5815 15.3792 52.0653 16.5617 52.4536 17.7604L50.7075 18.3278ZM5.31642 18.2581L3.57221 17.6843C3.96704 16.4835 4.45352 15.3047 5.01912 14.1792L6.65973 15.0018C6.13525 16.0474 5.68265 17.1427 5.31642 18.2581ZM47.5723 12.0394C46.9012 11.0801 46.1513 10.161 45.3462 9.30734L46.6801 8.04688C47.5467 8.96501 48.3528 9.95364 49.0761 10.9863L47.5723 12.0394ZM8.46895 11.9824L6.96623 10.9266C7.69046 9.89665 8.50029 8.91056 9.37063 7.99439L10.7008 9.26034C9.89177 10.1097 9.1409 11.0259 8.46895 11.9824ZM42.7463 6.93428C41.8274 6.2118 40.845 5.54906 39.8251 4.96426L40.7375 3.37243C41.8337 4.00031 42.8922 4.71358 43.8808 5.49129L42.7463 6.93428ZM13.3079 6.89198L12.1787 5.44507C13.1757 4.6656 14.236 3.95605 15.3312 3.33443L16.2364 4.93175C15.2202 5.50754 14.235 6.16774 13.3079 6.89198ZM36.6496 3.45116C35.5582 3.02696 34.4252 2.6809 33.2822 2.42297L33.6871 0.631956C34.9182 0.911037 36.1383 1.28373 37.3141 1.74084L36.6496 3.45116ZM19.4201 3.42374L18.7601 1.71165C19.9369 1.25729 21.1598 0.888123 22.3936 0.613743L22.7939 2.40475C21.6482 2.65994 20.5135 3.00326 19.4201 3.42374ZM29.8011 1.90241C28.637 1.81604 27.4435 1.81428 26.2776 1.89693L26.1464 0.066353C27.3994 -0.0245195 28.682 -0.0217776 29.937 0.0718367L29.8011 1.90241Z" fill="white"/>
<path d="M23.2408 50.9637C22.6194 50.8472 21.9941 50.7058 21.3818 50.5432L21.8556 48.7687C22.423 48.9193 23.003 49.0505 23.5786 49.1578L23.2408 50.9637Z" fill="white"/>
</g>
<defs>
<clipPath id="clip0">
<rect width="56" height="56" fill="white"/>
</clipPath>
</defs>
</svg>
