<svg width="56" height="56" viewBox="0 0 56 56" fill="none" xmlns="http://www.w3.org/2000/svg">
<path d="M40.3809 15.9938L37.033 12.646L12.6459 37.0331L15.9938 40.3809L40.3809 15.9938Z" fill="#F44D4D"/>
<path d="M1.01348 50.0964L12.7228 38.3871L11.3679 37.0323L37.0323 11.3679L38.3871 12.7228L50.0964 1.01348C50.7504 0.359438 51.6184 0 52.5415 0C54.4493 0 56 1.55066 56 3.45854V3.90001C56 4.44556 55.8681 4.99112 55.6198 5.47713L46.9625 22.372C48.1418 24.642 48.7742 27.1744 48.7742 29.8073C48.7742 34.1246 47.0934 38.1847 44.0393 41.2375L41.2357 44.0411C38.1838 47.0943 34.1246 48.7751 29.8082 48.776H29.8047C27.1726 48.776 24.6398 48.1435 22.3703 46.9642L5.47537 55.6216C4.98935 55.8681 4.4438 56 3.89913 56H3.45766C1.55066 56 0 54.4493 0 52.5415C0 51.6184 0.35944 50.7504 1.01348 50.0964ZM54.0118 4.65241C54.1314 4.42131 54.1935 4.16022 54.1935 3.89913V3.45854C54.1935 2.54694 53.4531 1.80645 52.5415 1.80645C52.1009 1.80645 51.6863 1.97801 51.3736 2.2907L39.6643 14L44.0393 18.3754C44.7185 19.0546 45.3192 19.7907 45.8594 20.5621L54.0118 4.65241ZM29.8091 46.9686C33.6434 46.9686 37.2479 45.4749 39.9598 42.7634L42.7634 39.9598C45.4749 37.2479 46.9677 33.6425 46.9677 29.8056C46.9677 25.9704 45.4749 22.365 42.7625 19.6522L37.0323 13.9224L13.9224 37.0323L19.6531 42.7634C22.365 45.4749 25.9704 46.9686 29.8056 46.9686C29.8065 46.9686 29.8082 46.9686 29.8091 46.9686ZM3.45855 54.1935H3.90001C4.16022 54.1935 4.42131 54.1305 4.65329 54.0118L20.5629 45.8603C19.7925 45.3201 19.0564 44.7207 18.3772 44.0411L14.0009 39.6652L2.29158 51.3745C1.97801 51.6863 1.80645 52.1009 1.80645 52.5415C1.80645 53.4531 2.54694 54.1935 3.45855 54.1935Z" fill="white"/>
<path d="M32.5166 41.9224L35.2263 39.2128L37.936 41.9224L41.9229 37.9355L39.2132 35.2259L41.9229 32.5162L37.936 28.5293L35.2263 31.239L32.5166 28.5293L28.5297 32.5162L31.2394 35.2259L28.5297 37.9355L32.5166 41.9224Z" fill="#F44D4D"/>
</svg>
