<svg width="56" height="56" viewBox="0 0 56 56" fill="none" xmlns="http://www.w3.org/2000/svg">
<g clip-path="url(#clip0)">
<path d="M27.9997 6.05225C15.8798 6.05225 6.05469 15.8773 6.05469 27.9973C6.05469 40.1172 15.8798 49.9423 27.9997 49.9423C40.1196 49.9423 49.9447 40.1172 49.9447 27.9973C49.9447 15.8773 40.1196 6.05225 27.9997 6.05225ZM27.9997 45.3704C18.405 45.3704 10.6266 37.5919 10.6266 27.9973C10.6266 18.4026 18.405 10.6241 27.9997 10.6241C37.5944 10.6241 45.3728 18.4026 45.3728 27.9973C45.3728 37.5919 37.5944 45.3704 27.9997 45.3704Z" fill="#F44D4D"/>
<path d="M28.0002 4.22353C40.1349 4.22353 50.2917 13.3079 51.624 25.3546L51.8334 27.2463L56.0003 23.0798L54.7073 21.7869L53.1719 23.3209C50.9592 11.2689 40.4456 2.39478 28.0002 2.39478C27.3676 2.39478 26.7291 2.41755 26.1045 2.46309L26.238 4.28737C26.8188 4.24451 27.4113 4.22353 28.0002 4.22353Z" fill="white"/>
<path d="M28.0001 51.771C15.8654 51.771 5.7086 42.6858 4.37632 30.64L4.16693 28.7478L0 32.9147L1.29298 34.2077L2.82796 32.6732C5.04112 44.7257 15.5546 53.5998 28.0001 53.5998C28.6345 53.5998 29.2739 53.577 29.8962 53.5301L29.761 51.7068C29.1832 51.7501 28.5907 51.771 28.0001 51.771Z" fill="white"/>
<path d="M28.0004 9.70984C17.9168 9.70984 9.71289 17.9138 9.71289 27.9973C9.71289 38.0809 17.9168 46.2849 28.0004 46.2849C38.084 46.2849 46.2879 38.0809 46.2879 27.9973C46.2879 17.9138 38.084 9.70984 28.0004 9.70984ZM28.9148 44.4092V39.8842H27.086V44.4092C18.7415 43.9476 12.0502 37.2563 11.5881 28.9117H16.1135V27.083H11.5881C12.0502 18.7384 18.7415 12.0471 27.086 11.585V16.1105H28.9148V11.585C37.2593 12.0471 43.9506 18.7384 44.4123 27.083H39.8873V28.9117H44.4123C43.9506 37.2563 37.2593 43.9476 28.9148 44.4092Z" fill="white"/>
<path d="M28.9143 25.4225V17.9392H27.0856V25.4225C26.0239 25.8011 25.2568 26.8066 25.2568 27.9973C25.2568 29.5095 26.4873 30.7405 28 30.7405C29.1903 30.7405 30.1962 29.9734 30.5748 28.9117H34.4006V27.083H30.5748C30.2988 26.3083 29.689 25.6985 28.9143 25.4225ZM28 28.9117C27.495 28.9117 27.0856 28.501 27.0856 27.9973C27.0856 27.4933 27.495 27.083 28 27.083C28.5045 27.083 28.9143 27.4933 28.9143 27.9973C28.9143 28.501 28.5045 28.9117 28 28.9117Z" fill="white"/>
<path d="M22.1074 3.06592L23.9 2.70874L24.2572 4.50222L22.4646 4.85895L22.1074 3.06592Z" fill="white"/>
<path d="M17.3584 4.69279L19.0483 3.99316L19.7475 5.68306L18.058 6.38224L17.3584 4.69279Z" fill="white"/>
<path d="M13.0156 7.21669L14.5363 6.20142L15.552 7.7221L14.0309 8.73782L13.0156 7.21669Z" fill="white"/>
<path d="M9.25 10.5403L10.543 9.24731L11.836 10.5403L10.543 11.8333L9.25 10.5403Z" fill="white"/>
<path d="M6.20312 14.5335L7.21929 13.0133L8.73953 14.0295L7.72381 15.5497L6.20312 14.5335Z" fill="white"/>
<path d="M3.99609 19.0437L4.69616 17.3542L6.38561 18.0543L5.68554 19.7438L3.99609 19.0437Z" fill="white"/>
<path d="M2.71191 23.8987L3.06865 22.1052L4.86212 22.4615L4.50584 24.2554L2.71191 23.8987Z" fill="white"/>
<path d="M31.7412 51.4889L33.5338 51.1322L33.891 52.9257L32.0984 53.2824L31.7412 51.4889Z" fill="white"/>
<path d="M36.2539 50.3106L37.9438 49.6115L38.643 51.3013L36.9535 52.0005L36.2539 50.3106Z" fill="white"/>
<path d="M40.4502 48.2721L41.9722 47.256L42.9875 48.7771L41.4659 49.7933L40.4502 48.2721Z" fill="white"/>
<path d="M44.1641 45.4544L45.457 44.1614L46.75 45.4544L45.457 46.7473L44.1641 45.4544Z" fill="white"/>
<path d="M47.2627 41.967L48.2789 40.4454L49.7995 41.4612L48.7838 42.9827L47.2627 41.967Z" fill="white"/>
<path d="M49.6143 37.9407L50.3134 36.2512L52.0033 36.9504L51.3037 38.6403L49.6143 37.9407Z" fill="white"/>
<path d="M51.1377 33.5354L51.4949 31.7428L53.2884 32.1L52.9312 33.8926L51.1377 33.5354Z" fill="white"/>
</g>
<defs>
<clipPath id="clip0">
<rect width="56" height="56" fill="white"/>
</clipPath>
</defs>
</svg>
