<svg width="56" height="56" viewBox="0 0 56 56" fill="none" xmlns="http://www.w3.org/2000/svg">
<path d="M46.0645 56H9.93548C4.45742 56 0 51.5426 0 46.0645V9.93548C0 4.45742 4.45742 0 9.93548 0H46.0645C51.5426 0 56 4.45742 56 9.93548V46.0645C56 51.5435 51.5435 56 46.0645 56ZM9.93548 1.80645C5.45277 1.80645 1.80645 5.45368 1.80645 9.93548V46.0645C1.80645 50.5463 5.45277 54.1935 9.93548 54.1935H46.0645C50.5472 54.1935 54.1935 50.5463 54.1935 46.0645V9.93548C54.1935 5.45368 50.5472 1.80645 46.0645 1.80645H9.93548Z" fill="white"/>
<path d="M34.323 52.3871H9.93586C6.45031 52.3871 3.61328 49.551 3.61328 46.0645V9.9355C3.61328 6.44904 6.45031 3.61292 9.93586 3.61292H20.7746V5.41937H9.93586C7.44567 5.41937 5.41973 7.4453 5.41973 9.9355V46.0645C5.41973 48.5547 7.44567 50.5807 9.93586 50.5807H34.323V52.3871Z" fill="white"/>
<path d="M37.9324 50.5807H36.126V52.3871H37.9324V50.5807Z" fill="white"/>
<path d="M46.0642 52.3871H39.7416V50.5807H46.0642C48.5544 50.5807 50.5803 48.5547 50.5803 46.0645V9.9355C50.5803 7.4453 48.5544 5.41937 46.0642 5.41937H34.3223V3.61292H46.0642C49.5498 3.61292 52.3868 6.44904 52.3868 9.9355V46.0645C52.3868 49.551 49.5507 52.3871 46.0642 52.3871Z" fill="white"/>
<path d="M28.0006 0.903198C21.0169 0.903198 15.3555 6.56462 15.3555 13.5484H40.6458C40.6458 6.56462 34.9844 0.903198 28.0006 0.903198Z" fill="#F44D4D"/>
<path d="M28.7822 13.9972L32.3936 7.67712L30.8253 6.781L27.2139 13.1011L28.7822 13.9972Z" fill="white"/>
<path d="M28.9002 0.903198H27.0938V3.61288H28.9002V0.903198Z" fill="white"/>
<path d="M22.2491 5.39602L23.8135 4.4928L22.4587 2.14632L20.8943 3.04954L22.2491 5.39602Z" fill="white"/>
<path d="M18.9452 9.36566L19.8486 7.80127L17.502 6.4461L16.5985 8.01049L18.9452 9.36566Z" fill="white"/>
<path d="M37.0565 9.36336L39.4033 8.00879L38.5003 6.44422L36.1534 7.79879L37.0565 9.36336Z" fill="white"/>
<path d="M33.7499 5.39458L35.1045 3.04773L33.5399 2.14468L32.1854 4.49154L33.7499 5.39458Z" fill="white"/>
<path d="M21.6773 15.3549C20.7741 15.3549 19.9774 15.8038 19.4852 16.4848C19.1907 16.3439 18.8646 16.2581 18.516 16.2581C18.0057 16.2581 17.5396 16.4342 17.1612 16.7214C16.7827 16.4351 16.3166 16.2581 15.8063 16.2581C15.0034 16.2581 14.3016 16.6826 13.9014 17.3158C13.6503 17.2191 13.3812 17.1613 13.0966 17.1613C12.2937 17.1613 11.5919 17.5858 11.1917 18.219C10.9406 18.1223 10.6715 18.0645 10.387 18.0645C9.14142 18.0645 8.12891 19.078 8.12891 20.3226V20.7742V21.6774V25.3229C8.12891 28.3234 8.26529 31.3618 8.53626 34.3533L9.4422 44.3854C9.77729 47.4022 12.3199 49.6774 15.3547 49.6774C18.3914 49.6774 20.933 47.4022 21.2726 44.3159L21.5644 35.8274C21.6357 33.7635 22.0846 31.7538 22.8985 29.8534C23.8857 27.5475 24.387 25.107 24.387 22.5978V21.6774V20.7733V18.0645C24.387 16.5706 23.1712 15.3549 21.6773 15.3549ZM22.5805 21.6774V22.5978C22.5805 24.8613 22.1289 27.0634 21.2383 29.1426C20.3351 31.2498 19.8374 33.4781 19.7597 35.766L19.4725 44.1858C19.2395 46.2867 17.4692 47.871 15.3547 47.871C13.2412 47.871 11.4708 46.2867 11.2396 44.2039L10.3355 34.1907C10.0699 31.2525 9.93536 28.2692 9.93536 25.3229V21.6774V20.7742V20.3226C9.93536 20.0733 10.1386 19.871 10.387 19.871C10.6354 19.871 10.8386 20.0733 10.8386 20.3226V21.6774H12.645V20.3226V19.4194C12.645 19.1701 12.8483 18.9678 13.0966 18.9678C13.345 18.9678 13.5483 19.1701 13.5483 19.4194V21.6774H15.3547V19.4194V18.5161C15.3547 18.2669 15.5579 18.0645 15.8063 18.0645C16.0547 18.0645 16.2579 18.2669 16.2579 18.5161V21.6774H18.0644V18.5161C18.0644 18.2669 18.2676 18.0645 18.516 18.0645C18.7644 18.0645 18.9676 18.2669 18.9676 18.5161V21.6774H20.7741V18.5161V18.0645C20.7741 17.5669 21.1787 17.1613 21.6773 17.1613C22.1759 17.1613 22.5805 17.5669 22.5805 18.0645V20.7733V21.6774Z" fill="white"/>
<path d="M45.6123 18.0645C45.3278 18.0645 45.0586 18.1232 44.8075 18.219C44.4074 17.5858 43.7056 17.1613 42.9026 17.1613C42.6181 17.1613 42.3489 17.22 42.0979 17.3158C41.6977 16.6826 40.9959 16.2581 40.1929 16.2581C39.6826 16.2581 39.2166 16.4342 38.8381 16.7214C38.4597 16.4351 37.9936 16.2581 37.4833 16.2581C37.1346 16.2581 36.8086 16.3439 36.5141 16.4848C36.0219 15.8029 35.2252 15.3549 34.322 15.3549C32.828 15.3549 31.6123 16.5706 31.6123 18.0645V20.7742V21.6774V22.5987C31.6123 25.107 32.1127 27.5475 33.1017 29.8552C33.9164 31.7547 34.3653 33.7644 34.4358 35.8283L34.732 44.3854C35.0671 47.4022 37.6097 49.6774 40.6446 49.6774C43.6812 49.6774 46.2229 47.4022 46.5598 44.3674L47.4639 34.3542C47.734 31.3691 47.8704 28.3306 47.8704 25.3238V21.6774V20.7751V20.3226C47.8704 19.078 46.8578 18.0645 45.6123 18.0645ZM46.0639 21.6774V25.3238C46.0639 28.2764 45.9302 31.2598 45.6647 34.1916L44.7624 44.1867C44.5293 46.2876 42.759 47.8719 40.6446 47.8719C38.531 47.8719 36.7607 46.2876 36.5322 44.2554L36.2404 35.7669C36.1628 33.4781 35.6651 31.2498 34.7619 29.1435C33.8713 27.0625 33.4188 24.8604 33.4188 22.5987V21.6774V20.7742V18.0645C33.4188 17.5669 33.8234 17.1613 34.322 17.1613C34.8206 17.1613 35.2252 17.5669 35.2252 18.0645V18.5161V21.6774H37.0317V18.5161C37.0317 18.2669 37.2349 18.0645 37.4833 18.0645C37.7317 18.0645 37.9349 18.2669 37.9349 18.5161V21.6774H39.7413V18.5161C39.7413 18.2669 39.9446 18.0645 40.1929 18.0645C40.4413 18.0645 40.6446 18.2669 40.6446 18.5161V19.4194V21.6774H42.451V19.4194C42.451 19.1701 42.6542 18.9678 42.9026 18.9678C43.151 18.9678 43.3542 19.1701 43.3542 19.4194V20.3226V21.6774H45.1607V20.3226C45.1607 20.0733 45.3639 19.871 45.6123 19.871C45.8607 19.871 46.0639 20.0733 46.0639 20.3226V20.7751V21.6774Z" fill="white"/>
</svg>
