<svg width="56" height="56" viewBox="0 0 56 56" fill="none" xmlns="http://www.w3.org/2000/svg">
<path d="M45.1631 28.9254C45.1631 28.9254 38.122 30.7319 28.0007 30.7319C17.8794 30.7319 10.8383 28.9254 10.8383 28.9254L10.29 28.7881C9.57103 31.787 9.16906 34.86 9.07422 37.9609C9.5096 37.9871 15.1398 38.3502 18.9679 39.7648C22.9514 41.2371 25.2909 44.2812 25.2909 44.2812H27.0974H28.904H30.7106C30.7106 44.2812 33.0501 41.2371 37.0336 39.7648C40.8617 38.3502 46.4928 37.9871 46.9272 37.9609C46.8342 34.8753 46.4341 31.8177 45.7214 28.8323L45.1631 28.9254Z" fill="#F44D4D"/>
<path d="M1.80657 9.95642H0V11.763H1.80657V9.95642Z" fill="#F44D4D"/>
<path d="M5.41594 9.95642H3.60938V11.763H5.41594V9.95642Z" fill="#F44D4D"/>
<path d="M10.0313 14.069L11.6472 14.8766L13.6561 10.8597L11.6472 6.84277L10.0313 7.65031L11.1839 9.95639H7.22656V11.763H11.1839L10.0313 14.069Z" fill="#F44D4D"/>
<path d="M55.9999 9.95642H54.1934V11.763H55.9999V9.95642Z" fill="#F44D4D"/>
<path d="M52.3866 9.95642H50.5801V11.763H52.3866V9.95642Z" fill="#F44D4D"/>
<path d="M45.9716 7.65031L44.3556 6.84277L42.3467 10.8597L44.3556 14.8766L45.9716 14.069L44.819 11.763H48.7772V9.95639H44.819L45.9716 7.65031Z" fill="#F44D4D"/>
<path d="M42.442 17.6109C41.2687 15.4105 40.6481 12.9291 40.6481 10.4343C40.6481 9.00257 40.8495 7.579 41.2461 6.2051L42.6986 1.17381L40.9625 0.672485L39.51 5.70378C39.0665 7.24117 38.8415 8.83275 38.8415 10.4334C38.8415 13.2236 39.5353 15.9994 40.8486 18.4609C42.4818 21.5239 43.7355 24.7766 44.6108 28.1287C43.1258 28.4711 36.6908 29.8287 28.0021 29.8287C19.3279 29.8287 12.8812 28.4711 11.3934 28.1287C12.2687 24.7775 13.5225 21.5239 15.1556 18.4609C16.469 15.9994 17.1627 13.2236 17.1627 10.4334C17.1627 8.83366 16.9369 7.24207 16.4934 5.70378L15.0418 0.672485L13.3057 1.17381L14.7573 6.2051C15.1547 7.58171 15.3562 9.00347 15.3562 10.4343C15.3562 12.9282 14.7356 15.4096 13.5622 17.6109C10.0087 24.2744 8.12988 31.7888 8.12988 39.3394C8.12988 43.8757 8.58062 48.4327 9.47036 52.8823L9.95361 55.2977L11.725 54.9427L11.2417 52.5273C10.3754 48.1943 9.93645 43.7573 9.93645 39.3385C9.93645 39.203 9.94819 39.0684 9.9491 38.9338C11.7674 39.0937 15.7771 39.548 18.6559 40.6121C21.989 41.8433 24.1225 44.283 24.5082 44.7482C24.6744 45.1601 25.2923 46.8258 25.2923 48.7977C25.2923 51.1471 24.4215 54.8759 24.4125 54.9138L26.1712 55.3275C26.2091 55.1658 27.0989 51.3576 27.0979 48.7968C27.0979 47.356 26.8197 46.0779 26.5587 45.1845H29.4438C29.1827 46.0779 28.9045 47.3569 28.9045 48.7977C28.9045 51.3567 29.7933 55.1658 29.8313 55.3275L31.59 54.9147C31.5809 54.8768 30.7102 51.1507 30.7102 48.7986C30.7102 46.8438 31.3271 45.1692 31.4942 44.7509C31.8745 44.2921 34.0099 41.846 37.3484 40.6121C40.2227 39.5498 44.2351 39.0955 46.0543 38.9347C46.0552 39.0693 46.0669 39.2039 46.0669 39.3385C46.0669 43.7582 45.627 48.1952 44.7608 52.5273L44.2775 54.9427L46.0488 55.2977L46.5321 52.8823C47.4218 48.4336 47.8735 43.8766 47.8735 39.3394C47.8744 31.7879 45.9956 24.2744 42.442 17.6109ZM36.7224 38.9175C33.3153 40.1767 31.0616 42.4927 30.2893 43.3779H25.7159C24.9436 42.4927 22.689 40.1776 19.2827 38.9175C16.1167 37.7478 11.8559 37.2808 10.0051 37.1245C10.1279 34.6884 10.4604 32.2694 10.9806 29.8892C12.5478 30.2559 19.0352 31.6353 28.0021 31.6353C36.9699 31.6353 43.4582 30.255 45.0236 29.8883C45.543 32.2685 45.8763 34.6884 45.9992 37.1245C44.1483 37.2817 39.8884 37.7487 36.7224 38.9175Z" fill="white"/>
<path d="M43.969 31.6841C39.4878 33.2142 33.4511 33.4401 33.3906 33.4428L33.453 35.2475C33.7104 35.2385 39.8139 35.0118 44.5525 33.394L43.969 31.6841Z" fill="white"/>
</svg>
