<svg width="56" height="56" viewBox="0 0 56 56" fill="none" xmlns="http://www.w3.org/2000/svg">
<g clip-path="url(#clip0)">
<path d="M8.15121 51.7041H6.47672L7.66082 50.52C9.32692 48.8539 10.3653 46.6881 10.644 44.3453L10.7135 43.7614L10.2219 43.4388C6.41613 40.9412 3.66853 37.6797 2.20418 33.9756L2.20418 33.9755C0.739664 30.2712 0.550475 26.184 1.67479 22.1449L0.760327 21.8904L1.6748 22.1449C3.02479 17.2949 6.201 12.8455 10.6435 9.63721C15.4672 6.1538 21.4944 4.29595 28.0936 4.29595C36.4549 4.29595 43.4033 6.69666 48.2659 11.1415C52.6482 15.1474 55.05 20.5349 55.05 26.3211C55.05 29.1338 54.4778 31.8689 53.3478 34.455C52.1789 37.1301 50.4665 39.5148 48.252 41.5442L48.8938 42.2446L48.252 41.5442C43.382 46.0074 36.438 48.4169 28.0935 48.4169C25.0085 48.4169 21.788 48.0044 18.9213 47.2506L18.3859 47.1098L17.9994 47.5062C15.3838 50.1894 11.8463 51.7041 8.15121 51.7041Z" stroke="white" stroke-width="1.9"/>
<path d="M27.537 38.3729C20.7674 32.4495 16 29.3118 16 24.321C16 20.547 18.6906 17.4531 22.375 17.4531C24.9318 17.4531 26.8289 19.0233 28 21.2507C29.171 19.0234 31.0682 17.4531 33.625 17.4531C37.3098 17.4531 40 20.5476 40 24.321C40 29.3112 35.2388 32.444 28.463 38.3729C28.1979 38.6049 27.8021 38.6049 27.537 38.3729Z" fill="#F44D4D"/>
</g>
<defs>
<clipPath id="clip0">
<rect width="56" height="56" fill="white"/>
</clipPath>
</defs>
</svg>
