<svg width="140" height="20" viewBox="0 0 140 20" fill="none" xmlns="http://www.w3.org/2000/svg">
<g opacity="0.1">
<path d="M16.2908 14.3427L16.2402 14.4034C14.5761 16.4 12.3594 17.5002 9.99987 17.5002C7.63996 17.5002 5.42367 16.4004 3.75918 14.4034L3.70898 14.3427L3.72084 14.265C4.04223 12.1686 5.13748 10.4846 6.80475 9.52214L6.92327 9.45382L7.01774 9.55282C7.80519 10.379 8.86418 10.8335 9.99952 10.8335C11.1349 10.8335 12.1939 10.3786 12.9813 9.55282L13.0758 9.45382L13.1943 9.52214C14.8616 10.4846 15.9568 12.1686 16.2786 14.265L16.2908 14.3427ZM9.99987 9.99168C12.0649 9.99168 13.745 8.31151 13.745 6.2465C13.745 4.1815 12.0649 2.50098 9.99987 2.50098C7.93486 2.50098 6.25469 4.1815 6.25469 6.24616C6.25469 8.31081 7.93486 9.99168 9.99987 9.99168Z" fill="white"/>
</g>
<g opacity="0.1">
<path d="M36.2908 14.3427L36.2402 14.4034C34.5761 16.4 32.3594 17.5002 29.9999 17.5002C27.64 17.5002 25.4237 16.4004 23.7592 14.4034L23.709 14.3427L23.7208 14.265C24.0422 12.1686 25.1375 10.4846 26.8048 9.52214L26.9233 9.45382L27.0177 9.55282C27.8052 10.379 28.8642 10.8335 29.9995 10.8335C31.1349 10.8335 32.1939 10.3786 32.9813 9.55282L33.0758 9.45382L33.1943 9.52214C34.8616 10.4846 35.9568 12.1686 36.2786 14.265L36.2908 14.3427ZM29.9999 9.99168C32.0649 9.99168 33.745 8.31151 33.745 6.2465C33.745 4.1815 32.0649 2.50098 29.9999 2.50098C27.9349 2.50098 26.2547 4.1815 26.2547 6.24616C26.2547 8.31081 27.9349 9.99168 29.9999 9.99168Z" fill="white"/>
</g>
<g opacity="0.1">
<path d="M56.2908 14.3427L56.2402 14.4034C54.5761 16.4 52.3594 17.5002 49.9999 17.5002C47.64 17.5002 45.4237 16.4004 43.7592 14.4034L43.709 14.3427L43.7208 14.265C44.0422 12.1686 45.1375 10.4846 46.8048 9.52214L46.9233 9.45382L47.0177 9.55282C47.8052 10.379 48.8642 10.8335 49.9995 10.8335C51.1349 10.8335 52.1939 10.3786 52.9813 9.55282L53.0758 9.45382L53.1943 9.52214C54.8616 10.4846 55.9568 12.1686 56.2786 14.265L56.2908 14.3427ZM49.9999 9.99168C52.0649 9.99168 53.745 8.31151 53.745 6.2465C53.745 4.1815 52.0649 2.50098 49.9999 2.50098C47.9349 2.50098 46.2547 4.1815 46.2547 6.24616C46.2547 8.31081 47.9349 9.99168 49.9999 9.99168Z" fill="white"/>
</g>
<g opacity="0.1">
<path d="M76.2908 14.3427L76.2402 14.4034C74.5761 16.4 72.3594 17.5002 69.9999 17.5002C67.64 17.5002 65.4237 16.4004 63.7592 14.4034L63.709 14.3427L63.7208 14.265C64.0422 12.1686 65.1375 10.4846 66.8048 9.52214L66.9233 9.45382L67.0177 9.55282C67.8052 10.379 68.8642 10.8335 69.9995 10.8335C71.1349 10.8335 72.1939 10.3786 72.9813 9.55282L73.0758 9.45382L73.1943 9.52214C74.8616 10.4846 75.9568 12.1686 76.2786 14.265L76.2908 14.3427ZM69.9999 9.99168C72.0649 9.99168 73.745 8.31151 73.745 6.2465C73.745 4.1815 72.0649 2.50098 69.9999 2.50098C67.9349 2.50098 66.2547 4.1815 66.2547 6.24616C66.2547 8.31081 67.9349 9.99168 69.9999 9.99168Z" fill="white"/>
</g>
<g opacity="0.1">
<path d="M96.2908 14.3427L96.2402 14.4034C94.5761 16.4 92.3594 17.5002 89.9999 17.5002C87.64 17.5002 85.4237 16.4004 83.7592 14.4034L83.709 14.3427L83.7208 14.265C84.0422 12.1686 85.1375 10.4846 86.8048 9.52214L86.9233 9.45382L87.0177 9.55282C87.8052 10.379 88.8642 10.8335 89.9995 10.8335C91.1349 10.8335 92.1939 10.3786 92.9813 9.55282L93.0758 9.45382L93.1943 9.52214C94.8616 10.4846 95.9568 12.1686 96.2786 14.265L96.2908 14.3427ZM89.9999 9.99168C92.0649 9.99168 93.745 8.31151 93.745 6.2465C93.745 4.1815 92.0649 2.50098 89.9999 2.50098C87.9349 2.50098 86.2547 4.1815 86.2547 6.24616C86.2547 8.31081 87.9349 9.99168 89.9999 9.99168Z" fill="white"/>
</g>
<path d="M116.291 14.3427L116.24 14.4034C114.576 16.4 112.359 17.5002 110 17.5002C107.64 17.5002 105.424 16.4004 103.759 14.4034L103.709 14.3427L103.721 14.265C104.042 12.1686 105.137 10.4846 106.805 9.52214L106.923 9.45382L107.018 9.55282C107.805 10.379 108.864 10.8335 110 10.8335C111.135 10.8335 112.194 10.3786 112.981 9.55282L113.076 9.45382L113.194 9.52214C114.862 10.4846 115.957 12.1686 116.279 14.265L116.291 14.3427ZM110 9.99168C112.065 9.99168 113.745 8.31151 113.745 6.2465C113.745 4.1815 112.065 2.50098 110 2.50098C107.935 2.50098 106.255 4.1815 106.255 6.24616C106.255 8.31081 107.935 9.99168 110 9.99168Z" fill="white"/>
<path d="M136.291 14.3427L136.24 14.4034C134.576 16.4 132.359 17.5002 130 17.5002C127.64 17.5002 125.424 16.4004 123.759 14.4034L123.709 14.3427L123.721 14.265C124.042 12.1686 125.137 10.4846 126.805 9.52214L126.923 9.45382L127.018 9.55282C127.805 10.379 128.864 10.8335 130 10.8335C131.135 10.8335 132.194 10.3786 132.981 9.55282L133.076 9.45382L133.194 9.52214C134.862 10.4846 135.957 12.1686 136.279 14.265L136.291 14.3427ZM130 9.99168C132.065 9.99168 133.745 8.31151 133.745 6.2465C133.745 4.1815 132.065 2.50098 130 2.50098C127.935 2.50098 126.255 4.1815 126.255 6.24616C126.255 8.31081 127.935 9.99168 130 9.99168Z" fill="white"/>
</svg>
