<svg xmlns="http://www.w3.org/2000/svg" viewBox="0 0 1000 792"><path d="M216.8 247.3c150.2 0 147.2 0 156.1 0 50.4 0 100.2 42.1 100.4 102.3 0.1 56.2-43.8 91.1-72.4 98 0.9 0 38.4 66.8 38.4 66.8l172.2-291.2 179.5 305.3c5.4 9.9 8.8 15.6 11.3 22.7 5.3 15.3-8.8 25.6-18.7 25.7 -9.7 0.1-14.6-3.6-24.4-8.9l-108.1-62 -39.9-74.4 108.4 63L610.6 310.8c0 0-139.3 237.5-144 244.6 -8.1 12.1-13.4 21.6-28.4 21.6 -14.6 0-21.4-9.6-29-21.3 -1.7-3.4-89.8-148.9-89.8-148.9 32.1 0.1 28.9 0.1 54.8 0.1 21.1 0 54-18.6 54-55.7 0-22.2-17.1-56.4-57.9-56.4 -45.2 0-126.3 0-126.3 0L216.8 247.3z" fill="#FFF"></path><path d="M217.1 351l47.7 83.4 -0.3 119.8c0 0 0.5 22.5-24.2 22.9 -0.3-0.3-23.7 1.8-23.7-22.2C216.7 530.8 217.1 351 217.1 351z" fill="#FFF"></path><path d="M264.9 434.4l-0.1 119c0 0 0.4 23.3-24.3 23.7" fill="#FFF"></path></svg>