<svg width="60" height="20" viewBox="0 0 60 20" fill="none" xmlns="http://www.w3.org/2000/svg">
<path d="M26.0991 17.7687H21.9678L24.5518 2.28027H28.683L26.0991 17.7687Z" fill="#00579F"/>
<path d="M41.0765 2.6594C40.2616 2.34602 38.9691 2 37.371 2C33.2912 2 30.4182 4.10895 30.4006 7.12412C30.3667 9.3487 32.4575 10.5843 34.0213 11.326C35.6197 12.084 36.163 12.5787 36.163 13.2543C36.1468 14.2919 34.8715 14.7702 33.682 14.7702C32.0326 14.7702 31.1488 14.5236 29.8057 13.9464L29.2617 13.6989L28.6836 17.1757C29.6526 17.6036 31.4377 17.9834 33.2912 18C37.6261 18 40.4482 15.9237 40.4817 12.7105C40.4982 10.9474 39.3941 9.59639 37.0138 8.49242C35.5689 7.78374 34.684 7.30589 34.684 6.58078C34.7009 5.9216 35.4324 5.24643 37.0635 5.24643C38.4066 5.21336 39.3934 5.52631 40.141 5.83948L40.5146 6.00394L41.0765 2.6594Z" fill="#00579F"/>
<path d="M46.5677 12.2817C46.9079 11.3919 48.2171 7.94816 48.2171 7.94816C48.1999 7.98123 48.5566 7.04195 48.7607 6.46533L49.0494 7.7999C49.0494 7.7999 49.8317 11.5073 50.0016 12.2817C49.3559 12.2817 47.3837 12.2817 46.5677 12.2817ZM51.6673 2.28027H48.4717C47.4862 2.28027 46.7376 2.56015 46.3124 3.56535L40.1758 17.7685H44.5107C44.5107 17.7685 45.2244 15.8568 45.3778 15.4451C45.8533 15.4451 50.0703 15.4451 50.6821 15.4451C50.8007 15.9889 51.175 17.7685 51.175 17.7685H55.0003L51.6673 2.28027Z" fill="#00579F"/>
<path d="M18.5173 2.28027L14.4714 12.8419L14.0293 10.6999C13.2812 8.22826 10.9353 5.54291 8.31738 4.20768L12.0233 17.7523H16.3921L22.8859 2.28027H18.5173Z" fill="#00579F"/>
<path d="M10.715 2.28027H4.068L4 2.59322C9.18504 3.87852 12.619 6.97669 14.0298 10.7005L12.5849 3.58222C12.347 2.593 11.6159 2.3129 10.715 2.28027Z" fill="#FAA61A"/>
</svg>
