<svg width="24" height="24" viewBox="0 0 24 24" fill="none" xmlns="http://www.w3.org/2000/svg">
<path d="M16.8269 3H7.17301C5.06982 3 3.42894 4.81839 3.64631 6.90821L4.78175 17.824C4.96952 19.6288 6.49214 21 8.30849 21H11.4726V16.7629C11.4726 16.4719 11.7087 16.236 12 16.236C12.2912 16.236 12.5273 16.4719 12.5273 16.7629V21H15.6914C17.5078 21 19.0304 19.6288 19.2181 17.824L20.3536 6.90821C20.571 4.81839 18.9301 3 16.8269 3V3ZM17.9822 8.77209L15.1087 12.0717C15.0085 12.1867 14.8634 12.2527 14.7109 12.2527H9.28907C9.13645 12.2527 8.99136 12.1867 8.8912 12.0717L6.01778 8.77209C5.84512 8.57385 5.84512 8.27882 6.01778 8.08053C7.61106 6.25093 9.73559 5.24336 12 5.24336C14.2643 5.24336 16.3889 6.25097 17.9822 8.08057C18.1548 8.27882 18.1548 8.57385 17.9822 8.77209Z" fill="#F44D4D"/>
<path d="M15.9266 7.60859L15.469 8.15014C15.3647 8.27512 15.2148 8.33963 15.0637 8.33963C14.9446 8.33963 14.8249 8.29959 14.7263 8.21746C14.5026 8.03117 14.4724 7.69898 14.6589 7.47549L15.0145 7.04106C14.235 6.6354 13.3957 6.38951 12.5273 6.3186V6.96741C12.5273 7.25836 12.2912 7.49423 12 7.49423C11.7087 7.49423 11.4726 7.25836 11.4726 6.96741V6.3186C10.6042 6.38951 9.76493 6.6354 8.98534 7.04103L9.34095 7.47545C9.52745 7.69894 9.49725 8.03113 9.27359 8.21743C9.17498 8.29952 9.05523 8.3396 8.93616 8.3396C8.78509 8.3396 8.63515 8.27508 8.53084 8.1501L8.0716 7.60982C7.73934 7.85349 7.42212 8.12922 7.12305 8.43596L9.52921 11.199H10.9335L11.7617 9.40697C11.8555 9.20398 12.1443 9.20398 12.2381 9.40697L13.0663 11.199H14.4706L16.8768 8.43596C16.5773 8.12873 16.2595 7.85258 15.9266 7.60859Z" fill="#F44D4D"/>
</svg>
