<svg width="24" height="24" viewBox="0 0 24 24" fill="none" xmlns="http://www.w3.org/2000/svg">
<path d="M20.6291 16.8093C20.4217 17.666 19.8137 18.3412 19.0427 18.5719C17.6341 19 11.9998 19 11.9998 19C11.9998 19 6.36567 19 4.95711 18.5881C4.20092 18.3577 3.5781 17.6658 3.37068 16.8093C3 15.2447 3 12 3 12C3 12 3 8.7389 3.37068 7.19067C3.57832 6.33417 4.18609 5.65891 4.95722 5.42825C6.3805 5 12 5 12 5C12 5 17.6341 5 19.0427 5.41189C19.8138 5.64243 20.4217 6.31769 20.6294 7.17419C20.9999 8.7389 20.9999 11.9835 20.9999 11.9835C20.9999 11.9835 21.0148 15.2447 20.6291 16.8093ZM10.2059 9.00239V14.9976L14.8912 12L10.2059 9.00239Z" fill="#F44D4D"/>
</svg>
